<svg xmlns="http://www.w3.org/2000/svg" xmlns:xlink="http://www.w3.org/1999/xlink" viewBox="0 0 349.16 209.37"><defs><linearGradient id="_ÂÁ_Ï_ÌÌ_È_ËÂÌÚ_113" x1="174.58" y1="209.61" x2="174.58" y2="189.03" gradientUnits="userSpaceOnUse"><stop offset="0" stop-color="#5b5ca9"/><stop offset="0.71" stop-color="#5b53a3"/><stop offset="1" stop-color="#596bb2"/></linearGradient><linearGradient id="_ÂÁ_Ï_ÌÌ_È_ËÂÌÚ_116" x1="174.58" y1="208.53" x2="174.58" y2="17.02" gradientUnits="userSpaceOnUse"><stop offset="0" stop-color="#6fa8db"/><stop offset="0.06" stop-color="#6c9cd3"/><stop offset="0.17" stop-color="#637bbd"/><stop offset="0.22" stop-color="#5e69b1"/><stop offset="0.56" stop-color="#798ac5"/><stop offset="1" stop-color="#a7c8ea"/></linearGradient><linearGradient id="_ÂÁ_Ï_ÌÌ_È_ËÂÌÚ_381" x1="174.58" y1="197.61" x2="174.58" y2="35.52" gradientUnits="userSpaceOnUse"><stop offset="0" stop-color="#504ea1"/><stop offset="0.35" stop-color="#506cb5"/><stop offset="0.77" stop-color="#4f8bc9"/><stop offset="1" stop-color="#4f96d1"/></linearGradient><linearGradient id="_ÂÁ_Ï_ÌÌ_È_ËÂÌÚ_116-2" x1="306" y1="64.49" x2="306" y2="52.48" xlink:href="#_ÂÁ_Ï_ÌÌ_È_ËÂÌÚ_116"/><linearGradient id="_ÂÁ_Ï_ÌÌ_È_ËÂÌÚ_116-3" x1="306" y1="246.36" x2="306" y2="234.35" xlink:href="#_ÂÁ_Ï_ÌÌ_È_ËÂÌÚ_116"/></defs><g style="isolation:isolate"><g id="Layer_1" data-name="Layer 1"><rect y="15.37" width="349.16" height="193.99" rx="9.39" style="fill:url(#_ÂÁ_Ï_ÌÌ_È_ËÂÌÚ_113)"/><rect y="11.79" width="349.16" height="193.99" rx="9.39" style="fill:url(#_ÂÁ_Ï_ÌÌ_È_ËÂÌÚ_116)"/><rect x="12.28" y="23.13" width="324.62" height="170.46" rx="4.37" style="fill:url(#_ÂÁ_Ï_ÌÌ_È_ËÂÌÚ_381)"/><path d="M463.83,63.57H148.17a4.48,4.48,0,0,0-4.47,4.48v3.46A4.47,4.47,0,0,1,148.17,67H463.83a4.48,4.48,0,0,1,4.48,4.48V68.05A4.49,4.49,0,0,0,463.83,63.57Z" transform="translate(-131.42 -40.44)" style="fill:#5b69b1"/><path d="M463.83,66.91H148.17a4.48,4.48,0,0,0-4.47,4.48v5.14a4.47,4.47,0,0,1,4.47-4.48H463.83a4.48,4.48,0,0,1,4.48,4.48V71.39A4.49,4.49,0,0,0,463.83,66.91Z" transform="translate(-131.42 -40.44)" style="fill:#1e6131;opacity:0.4;mix-blend-mode:multiply"/><path d="M468.31,229.6v2.69a4.48,4.48,0,0,1-4.48,4.47H148.17a4.47,4.47,0,0,1-4.47-4.47V229.6a4.48,4.48,0,0,0,4.47,4.48H463.83A4.49,4.49,0,0,0,468.31,229.6Z" transform="translate(-131.42 -40.44)" style="fill:#66b0e1;opacity:0.30000000000000004;mix-blend-mode:screen"/><path d="M480.58,61.58v2.74a9.42,9.42,0,0,0-9.42-9.42H140.84a9.42,9.42,0,0,0-9.42,9.42V61.58a9.42,9.42,0,0,1,9.42-9.42H471.16A9.42,9.42,0,0,1,480.58,61.58Z" transform="translate(-131.42 -40.44)" style="mix-blend-mode:screen;fill:url(#_ÂÁ_Ï_ÌÌ_È_ËÂÌÚ_116-2)"/><path d="M480.58,234v2.74a9.42,9.42,0,0,1-9.42,9.42H140.84a9.42,9.42,0,0,1-9.42-9.42V234a9.42,9.42,0,0,0,9.42,9.42H471.16A9.42,9.42,0,0,0,480.58,234Z" transform="translate(-131.42 -40.44)" style="mix-blend-mode:screen;fill:url(#_ÂÁ_Ï_ÌÌ_È_ËÂÌÚ_116-3)"/><path d="M389.24,47.77v2.16c0-4-2.63-8.3-7.33-8.3l-155.5,0c-5.26,0-7.67,4.22-7.67,8.27V47.77a7.33,7.33,0,0,1,7.33-7.33H381.91A7.33,7.33,0,0,1,389.24,47.77Z" transform="translate(-131.42 -40.44)" style="fill:#fff;opacity:0.30000000000000004;mix-blend-mode:screen"/></g></g></svg>