<svg id="Layer_1" data-name="Layer 1" xmlns="http://www.w3.org/2000/svg" xmlns:xlink="http://www.w3.org/1999/xlink" viewBox="0 0 756.34 897.17"><defs><clipPath id="clip-path" transform="translate(-3.3 -91.31)"><path d="M1075.76-372.34c26.9,9.32-352.24,563.66-352.24,563.66s-19.09,10.16-33.84,11.86-28.64-5.08-68.56-5.93-79.84-5.08-104.14-7.62-75.5-12.7-98.07-22-33.84-33-41.66-39.81S54.19-324.45,54.19-324.45-165.28,363.9-159.3,359.91s369.12,682.37,381.09,676.39,624.51,18,636.48-14S1075.76-372.34,1075.76-372.34Z" style="fill:none"/></clipPath></defs><g style="clip-path:url(#clip-path)"><rect x="357.55" y="116.91" width="368.54" height="780.26" style="fill:#ed5946"/><path d="M759.64,167.54c-3.11-4.22-6-7.25-8.35-8.41C739.14,153.2,691.41,127,662.77,121S571.65,107.47,556,102.39s-129.31-11.86-152.74-11S307,107.47,307,107.47s-32.11,12.7-37.32,28.8-52.07,50.82-52.07,50.82-41.66,20.33-51.2,25.41-90.26,40.65-90.26,40.65,540.8-4.44,683.53-14.4Z" transform="translate(-3.3 -91.31)" style="fill:#ff8983"/><path d="M759.64,188.18,288.73,125.25S245.15,185.71,196,204.88,52,262.39,52,262.39s98.23,22.37,153.89,38.34,163.71,73.49,222.65,73.49,144.07,3.2,196.45,3.2c38.44,0,96.26-1.72,134.68-6.43Z" transform="translate(-3.3 -91.31)" style="fill:#e04f44"/><path d="M759.64,196.92c-60,11.88-155,32.57-155,32.57s39.06,13.26,52.65,33.14a139.92,139.92,0,0,1,18.68,40.6s-.85,33.15,8.49,43.92S653,367.87,643.66,372s42.45,3.32,71.32.83c13.13-1.13,21.34-.72,31.43-.4,4.61-.45,9-.92,13.23-1.44Z" transform="translate(-3.3 -91.31)" style="fill:#f7a6e4;opacity:0.1599999964237213;isolation:isolate"/><path d="M196,204.89C146.93,224.06,52,262.4,52,262.4s-35.81,9.41-48.33,19.9c2.24,8.73-7.29,12,13,17.82,3.91,1.12,14,10.1,32.16,4,66,6.16,208.27,15.29,230.76,24.56,7.31-.86,14.24-1.73,20.63-2.57,48-6.24,103.4-26,103.4-26s65-40.57,79.95-51,92.74-25,92.74-25l-245.44-93.3-42.13-5.63S245.16,185.71,196,204.89Z" transform="translate(-3.3 -91.31)" style="fill:#490125;opacity:0.17000000178813934;isolation:isolate"/><path d="M298.34,136S268,165,253.42,181.74s-53.51,40.61-69.36,44.48-108.34,36.1-111,40,66.72,23.21,96.45,25.14,61.44,7.74,105,2.58S332,259.74,342,251.36s50.21-58,56.15-65.76S316.84,125.65,298.34,136Z" transform="translate(-3.3 -91.31)" style="fill:#490125;opacity:0.17000000178813934;isolation:isolate"/><path d="M352.39,181.33s17.82,23.35,16,27l-18.53,36.17-38.91,39.78s42.62-32.55,51.88-46.11,34.28-29.84,34.28-29.84L449,214.63l-69.49-23.51Z" transform="translate(-3.3 -91.31)" style="fill:#e04f44"/><path d="M759.64,177.24a117.81,117.81,0,0,0-10.09-7.51C678,121.8,587,115.41,587,115.41s-146.3-19.17-182.06-16c0,0-136.54,12.78-117,31.95s71.52,57.51,104,67.1,94.28,28.76,152.8,28.76,133.29,9.58,149.55,6.39c8.79-1.73,45.12-6.26,65.36-17.62Z" transform="translate(-3.3 -91.31)" style="fill:#fc7065"/><path d="M456.23,123.56s-86.78-2.54-79,4.24,19.09,30.49,41.66,39.81,73.77,19.48,98.07,22,64.22,6.77,104.14,7.62,53.81,7.62,68.56,5.93,33.84-11.86,33.84-11.86-33.85-21.17-60.75-30.49S561.24,143,551.7,140.5,483.13,126.94,456.23,123.56Z" transform="translate(-3.3 -91.31)" style="fill:#490125;opacity:0.23000000417232513;isolation:isolate"/><path d="M662.78,160.82C635.88,151.5,561.24,143,551.7,140.49c-2-.53-6.17-1.44-11.77-2.56,10.41,8.59,20.9,18.87,24.78,28a170.79,170.79,0,0,1,8.83,29c15.16,1.12,31.37,2,47.58,2.37,39.92.85,53.81,7.62,68.56,5.93s33.84-11.86,33.84-11.86S689.68,170.14,662.78,160.82Z" transform="translate(-3.3 -91.31)" style="fill:#490125;opacity:0.23000000417232513;isolation:isolate"/></g></svg>