<svg id="Layer_1" data-name="Layer 1" xmlns="http://www.w3.org/2000/svg" xmlns:xlink="http://www.w3.org/1999/xlink" viewBox="0 0 756.4 897.16"><defs><clipPath id="clip-path" transform="translate(-3.31 -91.47)"><path d="M54.2-324.3S369.45,121.18,377.26,128s19.09,30.49,41.65,39.81,73.77,19.48,98.07,22,64.22,6.77,104.14,7.62,53.81,7.62,68.56,5.93,33.84-11.86,33.84-11.86,379.16-554.32,352.24-563.63-485.27-41.36-494.82-43.9S81.1-320.91,54.2-324.3Z" style="fill:none"/></clipPath></defs><g style="clip-path:url(#clip-path)"><rect x="357.54" y="116.9" width="368.54" height="780.26" style="fill:#ed5946"/><path d="M759.68,167.7c-3.11-4.22-6-7.25-8.34-8.41-12.15-5.93-59.88-32.18-88.52-38.11s-91.13-13.55-106.75-18.63-129.39-11.85-152.78-11S307,107.63,307,107.63s-32.11,12.7-37.32,28.79-52.07,50.82-52.07,50.82-41.65,20.32-51.2,25.41S76.11,253.3,76.11,253.3s540.81-4.44,683.53-14.4Z" transform="translate(-3.31 -91.47)" style="fill:#ff8983"/><path d="M759.68,188.34,288.73,125.41S245.16,185.87,196,205.05,52,262.56,52,262.56s98.22,22.37,153.89,38.34,163.71,73.49,222.64,73.49,144.07,3.2,196.45,3.2c38.44,0,96.27-1.72,134.68-6.43Z" transform="translate(-3.31 -91.47)" style="fill:#e04f44"/><path d="M759.68,197.08c-60,11.87-155,32.57-155,32.57s39.06,13.25,52.64,33.14A140,140,0,0,1,676,303.39s-.85,33.15,8.49,43.92S653.08,368,643.74,372.17s42.45,3.32,71.32.83c13.13-1.13,21.34-.72,31.43-.4,4.61-.44,9-.92,13.22-1.44Z" transform="translate(-3.31 -91.47)" style="fill:#f7a6e4;opacity:0.1599999964237213;isolation:isolate"/><path d="M196,205.05C146.93,224.22,52,262.56,52,262.56S16.17,272,3.65,282.46c2.24,8.73-7.29,12,13,17.82,3.91,1.12,14,10.1,32.15,4,66,6.16,208.28,15.3,230.76,24.56,7.31-.87,14.24-1.73,20.64-2.57,48-6.24,103.39-26,103.39-26s65-40.57,80-51,92.74-25,92.74-25L330.89,131l-42.13-5.63S245.16,185.87,196,205.05Z" transform="translate(-3.31 -91.47)" style="fill:#490125;opacity:0.17000000178813934;isolation:isolate"/><path d="M298.34,136.13s-30.39,29-44.92,45.77-53.51,40.62-69.36,44.48-108.34,36.1-111,40,66.73,23.21,96.45,25.14,61.44,7.74,105,2.58,57.47-34.16,67.38-42.55,50.21-58,56.15-65.75S316.84,125.81,298.34,136.13Z" transform="translate(-3.31 -91.47)" style="fill:#490125;opacity:0.17000000178813934;isolation:isolate"/><path d="M352.39,181.49s17.82,23.36,16,27l-18.53,36.16L311,284.43s42.62-32.55,51.88-46.11,34.28-29.83,34.28-29.83L449,214.81l-69.48-23.5Z" transform="translate(-3.31 -91.47)" style="fill:#e04f44"/><path d="M759.68,177.4a115.12,115.12,0,0,0-10.09-7.5C678.07,122,587,115.58,587,115.58S440.74,96.41,405,99.58c0,0-136.54,12.78-117,32s71.53,57.52,104,67.1,94.28,28.76,152.8,28.76,133.29,9.59,149.55,6.39c8.78-1.72,45.12-6.25,65.35-17.62Z" transform="translate(-3.31 -91.47)" style="fill:#fc7065"/><path d="M456.23,123.7s-86.78-2.54-79,4.23,19.09,30.49,41.65,39.81,73.77,19.48,98.07,22,64.22,6.77,104.14,7.62,53.81,7.62,68.56,5.93,33.84-11.86,33.84-11.86S689.68,170.3,662.78,161,561.24,143.2,551.68,140.7,483.13,127.1,456.23,123.7Z" transform="translate(-3.31 -91.47)" style="fill:#490125;opacity:0.23000000417232513;isolation:isolate"/><path d="M662.78,161c-26.91-9.28-101.54-17.78-111.1-20.28-2-.53-6.17-1.44-11.77-2.57,10.41,8.59,20.9,18.88,24.79,28a171.72,171.72,0,0,1,8.83,29c15.16,1.11,31.37,2,47.58,2.36,39.92.85,53.81,7.62,68.56,5.93s33.84-11.86,33.84-11.86S689.68,170.3,662.78,161Z" transform="translate(-3.31 -91.47)" style="fill:#490125;opacity:0.23000000417232513;isolation:isolate"/></g></svg>