<svg id="Layer_1" data-name="Layer 1" xmlns="http://www.w3.org/2000/svg" xmlns:xlink="http://www.w3.org/1999/xlink" viewBox="0 0 604.47 744.84"><defs><clipPath id="clip-path" transform="translate(-3.83 -81.51)"><path d="M-93.63-70.49c-17.2-5,268.21,168.37,270.31,173.24s59.2,35.19,97.06,50.15,124,13,144.77,12,49.55-5.68,56.35-10.35S625.76-45,602.71-52.54l51.88,10s-12,913.82-18,913.82-624.51,27.93-630.5,14S-93.63-70.49-93.63-70.49Z" style="fill:none"/></clipPath></defs><g style="clip-path:url(#clip-path)"><rect x="159.32" y="89.36" width="305.69" height="655.48" style="fill:#ed5946"/><path d="M102.29,192.17c42.79.75,84.5,8.2,126.61,14.91,35.21,5.61,70.5,10.68,105.82,15.62s70.57,9.76,105.82,14.92c27.17,4,54.24,8.78,81.43,12.72,17.82,2,35.79,3.07,53.68,2,2.66-.55,1.12-4.24-3.42-11.73l-.31-.28c-1-.9-2.07-1.86-3.13-2.84l-1-.89c-.42-.39-.84-.8-1.26-1.2l-1.07-1-1.26-1.23L563.12,232c-.42-.42-.86-.84-1.28-1.27l-1.13-1.12-1.31-1.32-1.15-1.16-1.32-1.35-1.17-1.2-1.34-1.38L553.25,222c-.45-.47-.91-.94-1.36-1.42l-1.18-1.23-1.37-1.44-1.15-1.22c-.48-.5-1-1-1.43-1.52L545.67,214l-1.51-1.6-.91-1-6.49-6.92s0,0,0,0l-2.63-2.8c-14-14.88-26.43-41.48-30.2-43.15a2.64,2.64,0,0,1-.36-.2l-.12-.09c-.09-.06-.17-.13-.27-.21l-.15-.14a3.19,3.19,0,0,1-.26-.26l-.16-.17-.28-.31-.16-.2-.3-.37-.16-.21-.33-.44-.15-.2c-.12-.17-.25-.34-.37-.53l-.12-.18-.44-.65a.61.61,0,0,0-.07-.1c-1.67-2.53-3.66-5.88-5.89-9.32l-.05-.07c-.84-1.29-1.71-2.58-2.61-3.85l-.22-.31-.46-.64-.32-.44-.44-.57-.36-.48-.42-.53-.4-.5-.41-.5-.42-.5-.41-.47-.44-.49-.4-.44-.46-.48-.4-.41-.48-.46-.39-.37-.5-.45-.38-.34-.54-.44-.36-.29-.6-.44-.3-.22c-.3-.21-.61-.4-.92-.59-10.18-6.06-69.88-30.33-88.54-32.7L267.33,82c-4.62-.59-19.88-.57-36.26-.32h-.22l-1.88,0h-.3q-3.24,0-6.47.12h-.09l-2.09,0h-.11l-1.94,0h-.3l-6.26.14h-.18l-1.72,0h-.46l-1.8.05h-.06l-3.85.1H203l-1.35,0-.58,0-1.2,0-.51,0-1.21,0h-.5l-1.52.05-.55,0-.93,0-.7,0-.71,0-.7,0-.72,0-.65,0-.57,0-1.18,0-.59,0-.56,0-.55,0-.5,0-.56,0-.41,0-.63,0h-.26l-.77,0-.27,0-.45,0h-.23l-.36,0H183l-.31,0h-.14l-.33,0c-.15,0-.33,0-.52.08l-.2,0-.47.1-.27.06-.56.13-.29.07-.75.19-.2,0-2.35.65-.2.06-1.14.33-.25.08-1.29.38-.11,0c-8,2.4-19.46,6.2-27.7,9l-.38.13-.93.31-3.13,1h0c-2.4.81-4.22,1.42-5.12,1.71-4.93,1.62-36.65,37.7-115.12,73.43-2,15.79,103.3-44.73,101.27-28.93C131.1,142.06,93.71,192,102.29,192.17Z" transform="translate(-3.83 -81.51)" style="fill:#ff8983"/><path d="M608.3,272.92c-9.1-10.88-33.29-25.26-37-25.63-11.28-9.93-25.08-25-38.17-38.87-14-14.88-26.43-41.48-30.2-43.15s-12.07-21.78-22.26-27.84-69.88-30.32-88.54-32.7l-125.74-16c-10.81-1.38-80,.54-85.06,1.09s-40.66,12.7-45.88,14.41c-4.93,1.62-32.91,36.29-53.74,47-50,22.71-71.14,23.54-77.9,35.07,40.38-2.75,113.14,62.62,242.32,60.15,55.71,5.69,50.63,53.1,106.23,59.62,62,7.27,124.41,9.38,186.8,9.36q24.06-.18,48.12-.63c.1-1.35,9.75,1.13,21,4.32V272.92Z" transform="translate(-3.83 -81.51)" style="fill:#e04f44"/><path d="M584.21,258.11c-3.7-3.07-7.39-6.15-10.56-8.81-11.68-9.82-26.5-26-40.5-40.88s-26.43-41.48-30.2-43.15-12.07-21.78-22.26-27.84l-1.27-.71a40.68,40.68,0,0,0-6.19,0s-63.76,30.92-47.56,49.71c0,0,34.12,7.13,42.45,23.52s20.77,45.85,26.15,49.32a112.79,112.79,0,0,0,16.3,8c30.38,2.45,55.16,4.41,71.58,5.69C582.77,268,583.47,263.06,584.21,258.11Z" transform="translate(-3.83 -81.51)" style="fill:#f7a6e4;opacity:0.1599999964237213;isolation:isolate"/><path d="M584.21,258.11c-.73,4.95-1.44,9.88-2,14.81l22.07,1.71S594.18,266.38,584.21,258.11Z" transform="translate(-3.83 -81.51)" style="fill:#f7a6e4;opacity:0.1599999964237213;isolation:isolate"/><path d="M573.65,249.3c-11.68-9.82-26.5-26-40.5-40.88s-26.43-41.48-30.2-43.15c-3.57-1.58-11.2-19.67-20.63-26.74-.06,11.41-.09,29.9.32,32.81,0,0,34.46,30.87,47,50.59,10.47,16.43,42.32,30.74,54.44,36.9,0-.24.07-.47.1-.71C580.5,255,576.81,252,573.65,249.3Z" transform="translate(-3.83 -81.51)" style="fill:#fc7065"/><path d="M584.21,258.11c0,.24-.07.47-.1.71,1,.52,1.91,1,2.63,1.38C585.89,259.51,585.05,258.81,584.21,258.11Z" transform="translate(-3.83 -81.51)" style="fill:#d1618f;opacity:0.75;isolation:isolate"/><path d="M62.37,159.58C44.16,167,31,171.22,21.58,174.82c.08,5.17,4,12.43,19.64,20.34,5.33,2.11,11,4.49,17,7.06,7.33,2.57,16.07,5.15,26.47,7.72,4.87,1.2,107.1,29.67,174.52,35.82a244.48,244.48,0,0,0,13.55-25.84c8.31-18.46,36.48-45.54,36.48-45.54,16.81-5.9-38-53.54-74.76-86-4.72.06-9.6.14-14.41.24h-.17l-1.58,0h-.36l-6.28.14-.79,0-1.07,0-.86,0-.93,0-1,0-.93,0-.68,0-1.77,0-1,0-.71,0-1.11,0-.64,0-1.12,0-.59,0-1.29,0h-.35l-1.59,0h-.34l-1.18,0-.44,0-1.1,0h-.36l-1.19,0h-.17l-2.56.1h-.27l-.85,0h-.32l-.72,0h-.33l-.72,0h-.16l-.82,0h-.13l-.57,0h-.19l-.41,0h-.18l-.32,0h-.13l-.33,0c-5.07.55-40.66,12.7-45.88,14.41-4.93,1.62-32.91,36.29-53.74,47C78.38,152.13,77.75,153.47,62.37,159.58Z" transform="translate(-3.83 -81.51)" style="fill:#490125;opacity:0.17000000178813934;isolation:isolate"/><path d="M227.63,111c-7.28-4-41.75-16.38-66.45-15.31-7.52,2.43-15.42,5.08-20.58,6.81h0s-20.33,15.75-24.87,23.54-15.94,23.06-15.94,23.06,26.62,2,43.69,5.56,20.38,13.74,30,28.91,28.95,37.13,28.95,37.13,9.41-26.68,6.82-42.34,12-37.5,12.57-41.61S237.43,116.45,227.63,111Z" transform="translate(-3.83 -81.51)" style="fill:#490125;opacity:0.17000000178813934;isolation:isolate"/><path d="M237.43,151.06c19.71,8.5,73.52,30.77,80.81,30s47.58,4.33,62.76,3.7,45,7.44,63.83,6.4,43.44-18.47,45.19-20.82c1.05-1.41,3.37-10.38,3.37-18.64-3.65-5.62-8-11.45-12.69-14.26-10.18-6.06-69.88-30.32-88.54-32.7l-125.74-16c-10.81-1.38-80,.54-85.06,1.09-4.19.45-29.26,8.84-40.76,12.7-5.7,2.82-9.46,5.39-8.3,6.89C136,114.16,217.72,142.56,237.43,151.06Z" transform="translate(-3.83 -81.51)" style="fill:#fc7065"/><path d="M325.24,106.9s-48.53-7.1-65.73-12.05-84.92,3-82.82,7.91,59.2,35.19,97.06,50.15,124,13,144.77,12,49.55-5.68,56.35-10.35-45.36-20.52-68.4-28.06S325.24,106.9,325.24,106.9Z" transform="translate(-3.83 -81.51)" style="fill:#490125;opacity:0.23000000417232513;isolation:isolate"/><path d="M406.46,126.45c-23-7.54-81.22-19.55-81.22-19.55s-11.31-1.65-24.94-3.92c11.71,5.9,25.09,13,30.32,17,10.09,7.82,18.84,25.75,18.79,31.35,0,3.09-.56,8.41-1.14,13.32,30.47,1.53,59.36.73,70.25.18,20.75-1.05,49.55-5.68,56.35-10.35S429.5,134,406.46,126.45Z" transform="translate(-3.83 -81.51)" style="fill:#490125;opacity:0.23000000417232513;isolation:isolate"/></g></svg>