<svg xmlns="http://www.w3.org/2000/svg" xmlns:xlink="http://www.w3.org/1999/xlink" viewBox="0 0 170.5 46.55"><defs><linearGradient id="_ÂÁ_Ï_ÌÌ_È_ËÂÌÚ_113" x1="85.25" y1="33.03" x2="85.25" y2="42.55" gradientUnits="userSpaceOnUse"><stop offset="0" stop-color="#5b5ca9"/><stop offset="0.71" stop-color="#5b53a3"/><stop offset="1" stop-color="#596bb2"/></linearGradient><linearGradient id="_ÂÁ_Ï_ÌÌ_È_ËÂÌÚ_116" x1="85.25" y1="40.22" x2="85.25" y2="1.07" gradientUnits="userSpaceOnUse"><stop offset="0" stop-color="#6fa8db"/><stop offset="0.06" stop-color="#6c9cd3"/><stop offset="0.17" stop-color="#637bbd"/><stop offset="0.22" stop-color="#5e69b1"/><stop offset="0.56" stop-color="#798ac5"/><stop offset="1" stop-color="#a7c8ea"/></linearGradient><linearGradient id="_ÂÁ_Ï_ÌÌ_È_ËÂÌÚ_78" x1="2091.65" y1="3705.1" x2="2262.15" y2="3705.1" gradientTransform="translate(2480.89 3780.45) rotate(180)" gradientUnits="userSpaceOnUse"><stop offset="0" stop-color="#86a6d7"/><stop offset="0.24" stop-color="#6d91cb"/><stop offset="0.85" stop-color="#595aa7"/><stop offset="1" stop-color="#5f72b7"/></linearGradient><linearGradient id="linear-gradient" x1="85.25" y1="6.01" x2="85.25" y2="33.46" gradientUnits="userSpaceOnUse"><stop offset="0.2" stop-color="#98ca3c"/><stop offset="0.81" stop-color="#118341"/><stop offset="1" stop-color="#0d9747"/></linearGradient></defs><g style="isolation:isolate"><g id="Layer_1" data-name="Layer 1"><rect y="6.89" width="170.5" height="39.66" rx="8.66" style="fill:#9b99cb;opacity:0.6000000000000001;mix-blend-mode:multiply"/><rect y="2.6" width="170.5" height="39.66" rx="7.77" style="fill:url(#_ÂÁ_Ï_ÌÌ_È_ËÂÌÚ_113)"/><rect width="170.5" height="39.66" rx="7.56" style="fill:url(#_ÂÁ_Ï_ÌÌ_È_ËÂÌÚ_116)"/><path d="M389.24,47.77v2.16c0-4-2.63-8.3-7.33-8.3l-155.5,0c-5.26,0-7.67,4.22-7.67,8.27V47.77a7.33,7.33,0,0,1,7.33-7.33H381.91A7.33,7.33,0,0,1,389.24,47.77Z" transform="translate(-218.74 -40.44)" style="fill:#fff;opacity:0.30000000000000004;mix-blend-mode:screen"/><path d="M218.74,72.76V70.6c0,4.06,2.63,8.3,7.33,8.3l155.5,0c5.26,0,7.67-4.21,7.67-8.27v2.16a7.34,7.34,0,0,1-7.34,7.34H226.07A7.34,7.34,0,0,1,218.74,72.76Z" transform="translate(-218.74 -40.44)" style="opacity:0.30000000000000004;mix-blend-mode:screen;fill:url(#_ÂÁ_Ï_ÌÌ_È_ËÂÌÚ_78)"/><rect x="5.17" y="6.01" width="160.15" height="27.46" rx="4.23" style="fill:url(#linear-gradient)"/></g></g></svg>