<svg id="Layer_1" data-name="Layer 1" xmlns="http://www.w3.org/2000/svg" xmlns:xlink="http://www.w3.org/1999/xlink" viewBox="0 0 588.09 675.73"><defs><clipPath id="clip-path" transform="translate(0 -82.51)"><path d="M-51.76,51.66S142.1,125.44,145,127.86s39.71,10,53.83,9.73,49.2,9.11,80.62,8.49,65.57-3,95.8-13.69c21.86-7.71,37-16.22,37.1-22.26,0-2.31,172.71-68.35,167.85-69.75-17.56-5.09,128,689.87,112.85,691S75.17,970,58.61,970.8-36.83,54.34-51.76,51.66Z" style="fill:none"/></clipPath></defs><g style="clip-path:url(#clip-path)"><rect x="140.53" y="30.84" width="275.51" height="644.89" style="fill:#ed5946"/><path d="M536.24,160.73l-.11,0-1.68-.63-.67-.24-1.36-.51c-.38-.14-.76-.29-1.14-.42l-1-.44-1.18-.44-1-.38-1.58-.59-.85-.31-1.57-.57-.69-.25-1.24-.45-.71-.26-1.1-.39-.68-.24-1.07-.38L518,154l-1.5-.53c-17.37-6-40.05-43.39-67.11-53.45-2.74-4.49-35.6-15.2-72-17.28S291.21,95.16,257.13,92s-83.3,6.67-118.54,12.06c0,0-28.89,3.1-35.83,7.4h-.06a6.74,6.74,0,0,0-1-.08h-1.29a4.89,4.89,0,0,0-.76.16h-.18a6,6,0,0,0-.93.32l-.25.1c-.23.1-.47.21-.7.33l-.3.16c-.24.13-.48.28-.72.43l-.22.13-1,.68-.1.07c-.29.22-.58.46-.87.71l-.22.19c-.27.24-.55.48-.82.74l-.16.15c-5.49,5.2-11.6,14.39-20.69,23.59a96.55,96.55,0,0,1-15.25,12.92L55,153.55l-1.31.82-.89.55-1.91,1.17-.24.14-2.21,1.31A274,274,0,0,1,0,179.27V249.9l.87.16c17.52,1.62,35.14,1.89,52.74,1.88q32.4,0,64.78.46c21.77.3,43.57.5,65.33-.6,17.37-.87,34.69-2.59,52-4.7,37.45-5.16,74.75-11.33,112.25-16.21l-21,2.76c46.54-6.2,92-18,136.23-33.39,21.8-7.57,43.33-15.86,64.68-24.57,9.11-3.72,22.77,3.5,31.93,1.75C553.24,175,542.08,162.91,536.24,160.73Z" transform="translate(0 -82.51)" style="fill:#ff8983"/><path d="M366.24,235.52c16.46-5.71,92.4-13.32,108.85-18.55,29.59-9.42,81.63-20.24,113-22.69-1.85-6.18-25.46-9.81-27.57-15.54-.26-.58-.52-1.18-.77-1.78-17.25-6.51-34-12.86-42.92-16-17.36-6-40-43.39-67.1-53.45S114.51,120.78,103,119.05s-19.73,23.53-45.47,40.56C43.12,169.16,23.28,179,0,186.93V307.49c91.57-11.93,183.56-21.08,274.55-36.89,13.3-2.44,26.59-5,39.83-7.79C332.62,259,350.69,254.39,369,251L358.24,253C381.24,248.81,344,243.23,366.24,235.52Z" transform="translate(0 -82.51)" style="fill:#e04f44"/><path d="M527.06,171.26c-26.35-19-63.38-54.34-67.61-54.15s-42.37.28-42.37.28l-53.84,26.05s38.63,10,52.14,26.23,39.44,26.81,46.57,28.17,33.83-1.57,39.47-1.83,36.16-11.77,36.16-11.77S565.16,187.74,527.06,171.26Z" transform="translate(0 -82.51)" style="fill:#f7a6e4;opacity:0.1599999964237213;isolation:isolate"/><path d="M280.72,217a269,269,0,0,0,4.77-27c.46-2.93,8.22-18.5,11.65-23s20.54-9.91,21.31-11.86c1.79-4.53-36.54-24-79.3-43.19C169.32,115.86,108,119.85,103,119.1c-11.47-1.73-19.73,23.53-45.47,40.56-2.74,1.81-5.69,3.63-8.8,5.45,10.62,2.86-.17,27-6,35.38-6.25,9-3.56,27-23.66,38.79-5,2.94-10.5,6.57-15.94,10.38C49,249.31,27,284,66.05,283.76c44-.22,130.83-10.64,202-41.37C275.6,234,279.07,223.76,280.72,217Z" transform="translate(0 -82.51)" style="fill:#490125;opacity:0.17000000178813934;isolation:isolate"/><path d="M103,119.05c-8.8-1.33-15.8,13.31-30.2,27.89-.08,1.88-.08,3.56,0,5,.55,11.48-3.89,39.31-14.67,55.92C50.84,219.17,34,238.38,24.06,249.49c-.37,8.25,3.26,26,91.06-.6,24.94-18.49,30.89-31.38,37.66-47.95,8.63-21.12,28-51.68,28-51.68l-40.67-31.63C119.16,118.76,105.3,119.44,103,119.05Z" transform="translate(0 -82.51)" style="fill:#490125;opacity:0.17000000178813934;isolation:isolate"/><path d="M559.74,177c-17.25-6.51-34-12.86-42.92-16-17.36-6-40-43.39-67.1-53.45-3.69-1.38-12.63-2.13-25.31-2.41l1,12.3c3.75-.18,19.52-4.26,27.4,3.21s14.93,17.23,21.81,23.63,12.57,7.27,27,14.44,25,12.28,42.38,21.56c6,3.21,35,8.61,42.55,11.73C585.05,188.18,560,177.56,559.74,177Z" transform="translate(0 -82.51)" style="fill:#fc7065"/><path d="M138.92,111.65s-46.3,5-35.75,11.06,18.14,16.09,39.53,17.93,125.64,20.53,172,17.45,70.21-16.42,97.44-24.26,40.28-21.78,37.54-26.27-35.61-15.2-72-17.28-86.18,12.44-120.25,9.31S174.16,106.26,138.92,111.65Z" transform="translate(0 -82.51)" style="fill:#fc7065"/><path d="M224,115.79S142.1,125.44,145,127.86s39.71,10,53.83,9.73,49.2,9.11,80.62,8.49,65.57-3,95.8-13.69,47.65-22.84,30.09-27.95-38.42-5.39-53.56-4.26S324,109,307.41,109.81,238.93,118.44,224,115.79Z" transform="translate(0 -82.51)" style="fill:#490125;opacity:0.23000000417232513;isolation:isolate"/><path d="M405.38,104.44c-17.56-5.08-38.42-5.39-53.56-4.26S324,109,307.41,109.81s-68.48,8.64-83.45,6l-1.24.15A72.08,72.08,0,0,1,240,121.83c14.63,7.34,65.83,7,77.06,13.46a22.5,22.5,0,0,1,8,8.07c17.22-2,34.32-5.3,50.32-11C405.51,121.73,422.94,109.55,405.38,104.44Z" transform="translate(0 -82.51)" style="fill:#490125;opacity:0.23000000417232513;isolation:isolate"/></g></svg>