<svg id="Layer_1" data-name="Layer 1" xmlns="http://www.w3.org/2000/svg" xmlns:xlink="http://www.w3.org/1999/xlink" viewBox="0 0 595.55 643.46"><defs><clipPath id="clip-path" transform="translate(4.94 -82.17)"><path d="M-57.41,50.87S139,125.62,141.93,128s40.2,10.08,54.51,9.85,49.83,9.22,81.65,8.6,66.4-3.07,97-13.86c22.13-7.81,37.5-16.43,37.57-22.55,0-2.34,174.9-69.22,170-70.63-17.78-5.16,8.39-77.27-6.95-76.14s-296.5-75.44-313.28-74.66S-42.25,53.58-57.41,50.87Z" style="fill:none"/></clipPath></defs><g style="clip-path:url(#clip-path)"><rect x="142.31" y="31.2" width="279.01" height="612.26" style="fill:#ed5946"/><path d="M538.12,161.33l-.11-.05-1.7-.63-.68-.26-1.38-.51-1.15-.43-1.08-.4-1.19-.45-1.05-.39-1.6-.59c-.3-.1-.58-.21-.86-.32l-1.59-.57-.7-.26-1.26-.45-.71-.25-1.11-.4-.69-.24-1.08-.39-.57-.2-1.52-.53c-17.59-6.06-40.56-43.95-68-54.14-2.78-4.54-36.06-15.39-72.92-17.5S289.94,95,255.42,91.81s-84.36,6.76-120,12.22c0,0-29.26,3.14-36.29,7.49H99a7.93,7.93,0,0,0-1-.08h-.3c-.23,0-.46,0-.68,0l-.32,0a7,7,0,0,0-.77.16l-.18,0a8.77,8.77,0,0,0-.94.33l-.25.11a7.7,7.7,0,0,0-.71.33,2.85,2.85,0,0,0-.3.16l-.73.44-.22.14c-.32.21-.64.44-1,.68l-.1.08c-.3.22-.59.47-.88.71l-.23.19-.83.75-.16.15c-5.56,5.27-11.75,14.59-20.95,23.89A97.32,97.32,0,0,1,53,152.6c-.74.49-1.51,1-2.28,1.47l-1.32.83-.9.56-1.94,1.19-.24.14-2.24,1.33a277.67,277.67,0,0,1-49,22v71.53l.88.16c17.74,1.64,35.58,1.91,53.41,1.9q32.81,0,65.6.47c22,.29,44.12.5,66.16-.61,17.6-.88,35.14-2.62,52.62-4.76,37.94-5.22,75.7-11.47,113.68-16.41l-21.29,2.79c47.13-6.28,93.19-18.26,138-33.8,22.08-7.67,43.88-16.07,65.49-24.89,9.23-3.77,23.06,3.54,32.34,1.77C555.27,175.74,544,163.53,538.12,161.33Z" transform="translate(4.94 -82.17)" style="fill:#ff8983"/><path d="M365.91,237.07c16.67-5.8,93.57-13.49,110.23-18.8,30-9.54,82.67-20.5,114.47-23-1.88-6.26-25.78-9.92-27.93-15.74-.26-.58-.53-1.19-.78-1.8-17.47-6.59-34.38-13-43.46-16.15-17.59-6.07-40.56-43.95-68-54.14S111,120.85,99.4,119.1s-20,23.82-46.05,41.07c-14.64,9.68-34.72,19.61-58.29,27.67V309.93c92.73-12.08,185.88-21.34,278-37.36,13.48-2.47,26.94-5.06,40.34-7.89,18.48-3.89,36.77-8.52,55.35-11.93l-10.9,1.95C381.16,250.52,343.46,244.87,365.91,237.07Z" transform="translate(4.94 -82.17)" style="fill:#e04f44"/><path d="M528.8,172c-26.68-19.23-64.19-55-68.48-54.83s-42.9.27-42.9.27l-54.52,26.4S402,154,415.69,170.39s40,27.15,47.18,28.53,34.26-1.58,40-1.85,36.62-11.93,36.62-11.93S567.39,188.68,528.8,172Z" transform="translate(4.94 -82.17)" style="fill:#f7a6e4;opacity:0.1599999964237213;isolation:isolate"/><path d="M279.33,218.31a268.61,268.61,0,0,0,4.83-27.38c.48-3,8.33-18.74,11.8-23.31s20.8-10,21.58-12c1.82-4.58-37-24.28-80.3-43.74-70.72,4-132.79,8-137.84,7.25-11.62-1.76-20,23.82-46.05,41.07-2.78,1.83-5.76,3.68-8.91,5.52,10.75,2.9-.17,27.38-6,35.84-6.33,9.1-3.61,27.32-24,39.28-5.06,3-10.63,6.66-16.14,10.51C44.71,251,22.45,286.08,62,285.88c44.61-.22,132.49-10.78,204.61-41.9C274.15,235.56,277.66,225.16,279.33,218.31Z" transform="translate(4.94 -82.17)" style="fill:#490125;opacity:0.17000000178813934;isolation:isolate"/><path d="M99.4,119.12c-8.94-1.35-16,13.47-30.59,28.24-.07,1.9-.08,3.61,0,5C69.37,164,64.87,192.19,54,209c-7.44,11.46-24.45,30.91-34.55,42.16-.38,8.36,3.3,26.31,92.21-.6,25.26-18.73,31.28-31.78,38.14-48.56,8.74-21.38,28.39-52.34,28.39-52.34l-41.18-32C115.72,118.82,101.68,119.46,99.4,119.12Z" transform="translate(4.94 -82.17)" style="fill:#490125;opacity:0.17000000178813934;isolation:isolate"/><path d="M561.9,177.76c-17.47-6.59-34.38-13-43.46-16.15-17.59-6.07-40.56-44-68-54.14-3.74-1.39-12.78-2.15-25.63-2.43l1,12.45c3.8-.18,19.77-4.32,27.75,3.25s15.12,17.44,22.09,23.93S488.41,152,503,159.28s25.34,12.45,42.92,21.83C552,184.36,581.37,189.83,589,193,587.53,189.12,562.15,178.37,561.9,177.76Z" transform="translate(4.94 -82.17)" style="fill:#fc7065"/><path d="M135.73,111.62s-46.9,5-36.2,11.2,18.37,16.3,40,18.16,127.25,20.79,174.23,17.67,71.1-16.62,98.67-24.57,40.8-22.05,38-26.6S414.43,92.09,377.57,90s-87.28,12.6-121.78,9.44S171.42,106.16,135.73,111.62Z" transform="translate(4.94 -82.17)" style="fill:#fc7065"/><path d="M221.85,115.81S139,125.62,141.93,128s40.2,10.08,54.51,9.85,49.83,9.22,81.65,8.6,66.4-3.07,97-13.86,48.25-23.14,30.47-28.29-38.91-5.46-54.24-4.32-28.2,9-45,9.75S237,118.53,221.85,115.81Z" transform="translate(4.94 -82.17)" style="fill:#490125;opacity:0.23000000417232513;isolation:isolate"/><path d="M405.58,104.34c-17.79-5.15-38.91-5.46-54.24-4.32s-28.2,9-45,9.75-69.35,8.75-84.51,6l-1.25.15a73.34,73.34,0,0,1,17.46,5.94c14.81,7.42,66.66,7.06,78,13.63a23.06,23.06,0,0,1,8.06,8.17c17.43-2,34.75-5.36,51-11.09C405.71,121.83,423.36,109.49,405.58,104.34Z" transform="translate(4.94 -82.17)" style="fill:#490125;opacity:0.23000000417232513;isolation:isolate"/></g></svg>