<svg xmlns="http://www.w3.org/2000/svg" viewBox="0 0 179.75 180.25"><path d="M108.47,148.26c-1.78,1-3,4.84-3,4.84s-6,2.84-7.35,4.51-1.66,5.26-1.66,5.26-5.35-.25-7,1.08a19.75,19.75,0,0,0-3.16,3.46s-8.86-1.46-9.86,4.22,4.34,7.68,4.34,7.68l5,.81s3,4.19,6.37,4.86,8.06-1,8.06-1,3.79,3.3,6.54,3.13a13.27,13.27,0,0,0,5.62-2.15s9.15,4.32,12.15-1.69,1.68-9,1.68-9,8.34-5.33,7.67-10.34a43.73,43.73,0,0,0-1.75-8s4.09-5,.42-7.31a7.44,7.44,0,0,0-7-.67l-1.76,2.34-8.59.66S112.14,146.26,108.47,148.26Z" transform="translate(-7.08 -8.65)" style="fill:#fff"/><path d="M76.93,43.7s-6.84,1.09-7.85,4.76,2.51,7.34,6.1,7,6.22-5.2,6.22-5.2,11.38,0,11-6.57-10-7.26-10-7.26l-4.34,2Z" transform="translate(-7.08 -8.65)" style="fill:#fff"/><path d="M32.7,34.11s-6.34-1-9.68,7.34,5.41,16.32,5.41,16.32,2.6,9.38,9.61,8,6.13-10.25,6.13-10.25L47.82,45.1,52.39,39s9.68.5,10.69-3.84-3-8.35-6.18-7.68-6.51,4.67-6.51,4.67a33.45,33.45,0,0,0-6,0,6.56,6.56,0,0,0-3.88,2.62Z" transform="translate(-7.08 -8.65)" style="fill:#fff"/><path d="M22,88.85c-7.64,1.64-6.72,11.77-6.72,11.77S8,107.21,9,113.22a15.21,15.21,0,0,0,5.41,9.2s-1.07,8.49,3.27,11.49a14.93,14.93,0,0,0,9.15,2.5s-.64,8.85,5.29,7.68,5.75-5.51,5.75-5.51L34,132.91s3-7.68,2-9.68a40.46,40.46,0,0,0-3.7-5.31s2-7.37,1-10a12.29,12.29,0,0,0-2-3.8s4.39-6.88,2.38-9.88S26.69,87.85,22,88.85Z" transform="translate(-7.08 -8.65)" style="fill:#fff"/><path d="M57,153.51s.53-7.92-4.39-6.92-4.26,7.68-4.26,7.68l4.26,2.34s-4.59,6,.41,11,12.69,2,14.36-2.67S65,155,65,155s3.75-3.72,1.41-5.39-6.67-.67-6.67-.67Z" transform="translate(-7.08 -8.65)" style="fill:#fdfeff"/><path d="M131.5,63.48s-3-6.68-6.34-3.34,0,6.68,0,6.68l3.89.35L128,71s-3.51,3.17-3.17,6.84,5.67,3.68,5.67,3.68l3.13-3.25s8.56-.76,9.22-6.1-7.34-8.68-7.34-8.68Z" transform="translate(-7.08 -8.65)" style="fill:#fff"/><path d="M157.54,65.23s-5-.08-6.68,3.26,3,10.35,3,10.35-5.71,8.34-5,13,5.08,10.38,5.08,10.38a8.32,8.32,0,0,0-3.08,9.32c1.67,6.34,6.68,5.25,6.68,5.25s-3,11.77,5.34,14.77,14-6,14.19-9a8,8,0,0,0-1.24-4.88s9.08-5.8,9.08-11.14a20.56,20.56,0,0,0-2.63-9.65s2.3-9.71-1-14.72a20.65,20.65,0,0,0-8.05-7s1-5.65-2.3-6.65a12.26,12.26,0,0,0-6.89.32Z" transform="translate(-7.08 -8.65)" style="fill:#fff"/><path d="M125.16,14.08a9.94,9.94,0,0,0-11.68-3.34c-7.68,2.67-8.3,9.25-8.3,9.25s-7.72.1-8.22,6.94,9.18,6.84,9.18,6.84l3.55-2.25A43.61,43.61,0,0,0,117,33.94a7.29,7.29,0,0,0,5-1s-.5,12.18,12.18,13.85,19-8.68,17-15.69-10-11.68-10-11.68l-5.7-.45s-1.81-5.89-5.23-6.06A7.85,7.85,0,0,0,125.16,14.08Z" transform="translate(-7.08 -8.65)" style="fill:#fff"/><path d="M62.46,84.3s12,12,8.26,23.28S55,127.11,55,127.11s12.77-6.76,15.77,0,1.5,21.78,1.5,21.78S89.5,121.1,103.77,122.6s31.54,9,31.54,9-17.27-12.76-18-21,11.27-13.52,11.27-13.52S115,100.82,109,91.81,106.77,58,106.77,58s-9,26.28-19.53,23.28A35.33,35.33,0,0,1,70.72,70.78s6,11.27,3,15S62.46,84.3,62.46,84.3Z" transform="translate(-7.08 -8.65)" style="fill:#c7c6c5"/><path d="M65.45,86.27s10.78,10.78,7.41,20.89-14.15,17.51-14.15,17.51,11.46-6.06,14.15,0,1.35,19.54,1.35,19.54,15.49-24.93,28.29-23.58,28.29,8.08,28.29,8.08-15.49-11.45-16.16-18.86,10.1-12.12,10.1-12.12-12.12,3.36-17.51-4.72-2-30.31-2-30.31S97.11,86.27,87.68,83.58a31.62,31.62,0,0,1-14.82-9.43s5.39,10.1,2.7,13.47S65.45,86.27,65.45,86.27Z" transform="translate(-7.08 -8.65)" style="fill:#5e5f5f"/><path d="M77.76,80.84s5.93,6.76,12.69,6S101.51,76,101.51,76s-1.5,14.27,3.76,19.53a14.55,14.55,0,0,0,11.26,4.5s-8.22,4.22-6.72,9.47,9.73,12.31,9.73,12.31-14.74-6.63-21.75-4.3c-9,3-20.31,18.57-20.31,18.57s2.87-13.47.62-17.23S70,118.1,70,118.1s7.46-7,7.46-15.23S73,90.31,73,90.31,80.8,92.23,77.76,80.84Z" transform="translate(-7.08 -8.65)" style="fill:#fff"/><path d="M136.76,48.71c-8.28,0-15.16-5.85-16.34-13.44a14.14,14.14,0,0,1-10.55-1.52,9.14,9.14,0,0,1-5.65,1.94,8.91,8.91,0,0,1-9-8.76,8.88,8.88,0,0,1,8.63-8.75,13.88,13.88,0,0,1,22.6-5.84,6.84,6.84,0,0,1,3.82-1.18,7.1,7.1,0,0,1,6.91,6c8.93.2,16.12,7.2,16.12,15.77S145.87,48.71,136.76,48.71Zm-13-18.55v2.71c0,6.83,5.83,12.34,13,12.34s13-5.51,13-12.27-5.84-12.27-13-12.27c-.38,0-.76,0-1.14,0l-2.09.17.21-2.09c0-.12,0-.25,0-.38a3.65,3.65,0,0,0-3.51-3.76,3.34,3.34,0,0,0-2.59,1.24l-1.35,1.6L125,15.89a10.32,10.32,0,0,0-8-3.73,10.2,10.2,0,0,0-10.08,8.16l-.31,1.62L105,21.73a5.83,5.83,0,0,0-.73-.06,5.27,5.27,0,1,0,0,10.52,5.6,5.6,0,0,0,4.17-1.84l1.07-1.19,1.28,1a10.54,10.54,0,0,0,10.53,1.15Z" transform="translate(-7.08 -8.65)" style="fill:#5e5f5f"/><path d="M166.8,134.58a12,12,0,0,1-11.25-16.24,9.48,9.48,0,0,1-7.27-9.3,9.62,9.62,0,0,1,3.07-7.07,18.11,18.11,0,0,1-.06-22.83,8.89,8.89,0,0,1-3-6.65,9.14,9.14,0,0,1,9.26-9,9.41,9.41,0,0,1,7,3.09,8,8,0,0,1,3-.59,7.53,7.53,0,0,1,7.76,7.26,7.26,7.26,0,0,1-.06.93,18.45,18.45,0,0,1,10.08,16.35,18,18,0,0,1-1.07,6.12,14.78,14.78,0,0,1,2.57,8.4,15,15,0,0,1-8.66,13.61,12,12,0,0,1-11.37,15.93Zm-4.86-20-2.16,3.15a8.51,8.51,0,1,0,14.51.77l-1-1.87,2-.64a11.52,11.52,0,0,0,5.6-18l-.64-.81.41-1a14.65,14.65,0,0,0,1.15-5.69,15,15,0,0,0-9.31-13.77l-1.58-.67.63-1.59a3.24,3.24,0,0,0,.25-1.25,4,4,0,0,0-4.26-3.75,4.62,4.62,0,0,0-2.57.77l-1.52,1-1-1.57a5.84,5.84,0,0,0-5-2.73,5.64,5.64,0,0,0-5.76,5.5,5.49,5.49,0,0,0,2.95,4.81l2.08,1.11-1.67,1.67a14.67,14.67,0,0,0,0,20.91l1.64,1.63-2,1.13a6.08,6.08,0,0,0-3,5.29,5.89,5.89,0,0,0,5.76,6,6.08,6.08,0,0,0,.61,0Z" transform="translate(-7.08 -8.65)" style="fill:#5e5f5f"/><path d="M106.72,188.9a10,10,0,0,1-7-2.79,13.21,13.21,0,0,1-14.63-3.94,8.1,8.1,0,0,1-1.9.23,8.77,8.77,0,0,1,0-17.53,8.41,8.41,0,0,1,2.62.43,13,13,0,0,1,9-3.93,10.82,10.82,0,0,1,8.92-8.8,6.62,6.62,0,0,1,6.48-6.23,6.46,6.46,0,0,1,5.61,3.33,13.63,13.63,0,0,1,6.83-1.29,7,7,0,1,1,11.6,7.81,14.53,14.53,0,0,1,1.5,6.43,14.22,14.22,0,0,1-7.38,12.57,9.83,9.83,0,0,1,.37,2.7,10.78,10.78,0,0,1-11,10.51,11.32,11.32,0,0,1-5.26-1.28A10.16,10.16,0,0,1,106.72,188.9Zm-6-7.07.87,1.1a6.56,6.56,0,0,0,5.17,2.47,6.63,6.63,0,0,0,4.45-1.7l1-.92,1.13.77a7.86,7.86,0,0,0,4.42,1.35,7.28,7.28,0,0,0,7.5-7,6.49,6.49,0,0,0-.65-2.85l-.81-1.69,1.75-.69a10.7,10.7,0,0,0,6.72-10,10.9,10.9,0,0,0-1.64-5.79l-.81-1.3,1.18-1a3.5,3.5,0,1,0-5.57-3.76l-.46,1.45-1.5-.25a10.27,10.27,0,0,0-7.55,1.67l-2.27,1.55-.45-2.7a3.08,3.08,0,0,0-3-2.67,3.14,3.14,0,0,0-3,3.25,3.11,3.11,0,0,0,.07.69l.39,2-2.05.08c-4.16.16-7.42,3.23-7.42,7l.07,2.28-2-.22a9.67,9.67,0,0,0-8.62,3.56l-.91,1.15L85.46,169a4.82,4.82,0,0,0-2.27-.58,5.27,5.27,0,0,0,0,10.52,4.85,4.85,0,0,0,1.87-.38l1.34-.57.81,1.21a9.53,9.53,0,0,0,8,4.24,9.72,9.72,0,0,0,4.22-.95Z" transform="translate(-7.08 -8.65)" style="fill:#5e5f5f"/><path d="M32.12,145.85a7.4,7.4,0,0,1-7.51-7.27v-.25a12.65,12.65,0,0,1-12.52-12.51,12.39,12.39,0,0,1,.3-2.72,14.67,14.67,0,0,1,.9-23.28,10.77,10.77,0,0,1-.2-2,11.27,11.27,0,0,1,22.53,0,10.82,10.82,0,0,1-2.11,6.41,14.77,14.77,0,0,1,.94,13.37,12.34,12.34,0,0,1,1.35,14.71,7.24,7.24,0,0,1,3.83,6.31A7.4,7.4,0,0,1,32.12,145.85Zm-2.49-11.39-1.2,2.67a3.48,3.48,0,0,0-.32,1.45,4,4,0,0,0,8,0,3.86,3.86,0,0,0-3.43-3.71ZM24.36,90.27a7.65,7.65,0,0,0-7.76,7.51,7.22,7.22,0,0,0,.37,2.29l.45,1.37-1.26.71A11.15,11.15,0,0,0,15.39,121l1.1.75L16.06,123a8.86,8.86,0,0,0-.47,2.84,9.18,9.18,0,0,0,10.94,8.86l3-.53,2.11-2.22a8.83,8.83,0,0,0-.5-12.71l-1-.92.64-1.21a11.16,11.16,0,0,0,1.33-5.29,11,11,0,0,0-2.21-6.68L29,103.93l1-1.07a7.35,7.35,0,0,0,2.07-5.08A7.65,7.65,0,0,0,24.36,90.27Z" transform="translate(-7.08 -8.65)" style="fill:#5e5f5f"/><path d="M36.62,68.24a9.78,9.78,0,0,1-10-9.52v0a14.77,14.77,0,0,1,8.26-27,14.64,14.64,0,0,1,5.26,1A8.93,8.93,0,0,1,49,31.33a8.21,8.21,0,0,1,7.95-5.65,8,8,0,0,1,8.26,7.76A8,8,0,0,1,56.9,41.2,8.49,8.49,0,0,1,54,40.69a8.29,8.29,0,0,1-4.32,5.54v.23a14.67,14.67,0,0,1-3.44,9.48,9,9,0,0,1,.44,2.78A9.79,9.79,0,0,1,36.62,68.24Zm-1.75-33A11.27,11.27,0,0,0,29.3,56.25l1,.58L30.17,58a5.83,5.83,0,0,0-.06.72,6.28,6.28,0,0,0,6.51,6,6.28,6.28,0,0,0,6.51-6,5.47,5.47,0,0,0-.55-2.4l-.52-1.11.85-.87a11.2,11.2,0,0,0,3.23-7.88,11.51,11.51,0,0,0-.06-1.18l-.15-1.4,1.34-.44A4.78,4.78,0,0,0,50.64,39a4.23,4.23,0,0,0-.1-.94l-.28-1.34-1-1a5.07,5.07,0,0,0-3.61-1.47,5.14,5.14,0,0,0-3.83,1.69l-.88,1-1.19-.57A11,11,0,0,0,34.87,35.19Zm17.57.23,1,.95a5,5,0,0,0,3.44,1.32,4.53,4.53,0,0,0,4.76-4.25,4.79,4.79,0,0,0-9.52,0,3.71,3.71,0,0,0,.07.67Z" transform="translate(-7.08 -8.65)" style="fill:#5e5f5f"/><path d="M75.18,57.22a7.78,7.78,0,0,1-8-7.51,7.79,7.79,0,0,1,8.14-7.51,9.39,9.39,0,0,1,9.38-7.51,9.28,9.28,0,0,1,9.51,9,9.29,9.29,0,0,1-9.51,9,10.25,10.25,0,0,1-2.07-.22A8,8,0,0,1,75.18,57.22Zm0-11.51a4.28,4.28,0,0,0-4.51,4,4.29,4.29,0,0,0,4.51,4,4.37,4.37,0,0,0,4.48-3.63l.25-2.38,2.2,1a6.38,6.38,0,0,0,2.58.54,5.78,5.78,0,0,0,6-5.51,6,6,0,0,0-12,0,2.45,2.45,0,0,0,0,.27l.18,2.47-2.39-.56A5.29,5.29,0,0,0,75.18,45.71Z" transform="translate(-7.08 -8.65)" style="fill:#5e5f5f"/><path d="M59.66,172.88a10.66,10.66,0,0,1-10.52-10.76,11,11,0,0,1,.89-4.34,6.76,6.76,0,0,1-3.89-6.18,6.65,6.65,0,0,1,6.5-6.76,6.48,6.48,0,0,1,5.59,3.29,6.3,6.3,0,0,1,4.43-1.79,5.79,5.79,0,0,1,6,5.51,5.25,5.25,0,0,1-1.1,3.19,10.8,10.8,0,0,1,2.6,7.08A10.65,10.65,0,0,1,59.66,172.88Zm-4.23-17-1.3,1.79a7.35,7.35,0,0,0-1.48,4.46,7,7,0,1,0,14,0,7.3,7.3,0,0,0-2.75-5.76l-2-1.6,2.22-1.29a1.92,1.92,0,0,0,1-1.62,2.56,2.56,0,0,0-5,0,1.58,1.58,0,0,0,.13.63l.91,2.16-2.32.26a7.48,7.48,0,0,0-1.3.28Zm-2.79-7.52a3.27,3.27,0,0,0,0,6.51h2l.78-2a3.41,3.41,0,0,0,.24-1.27A3.14,3.14,0,0,0,52.64,148.35Z" transform="translate(-7.08 -8.65)" style="fill:#5e5f5f"/><path d="M129.25,82.76a6.4,6.4,0,0,1-6.51-6.26A6.21,6.21,0,0,1,126.25,71a9.11,9.11,0,0,1,.18-1.81,5.76,5.76,0,1,1,6.65-7.09,9.37,9.37,0,0,1,2.43-.32,9.26,9.26,0,1,1-1,18.47A6.59,6.59,0,0,1,129.25,82.76Zm2-15.81-.66,1.12a5.71,5.71,0,0,0-.81,2.92,5.14,5.14,0,0,0,.08.88l.24,1.59-1.57.38a2.8,2.8,0,0,0-2.25,2.66,2.88,2.88,0,0,0,3,2.75A3,3,0,0,0,132,77.54l.61-1.35,1.43.37a5.76,5.76,0,1,0-1.8-10.33Zm-3.72-5.72a2.25,2.25,0,1,0,0,4.5,2.36,2.36,0,0,0,.87-.17l.93-.39.33-1a2.28,2.28,0,0,0,.12-.73A2.25,2.25,0,0,0,127.5,61.23Z" transform="translate(-7.08 -8.65)" style="fill:#5e5f5f"/><path d="M122.49,108s20.53-4,21.53-.5S122.49,108,122.49,108Z" transform="translate(-7.08 -8.65)" style="fill:#c7c6c5"/><path d="M128.5,111.55s21.53,2.5,22,8.51S128.5,111.55,128.5,111.55Z" transform="translate(-7.08 -8.65)" style="fill:#c7c6c5"/><path d="M100,126.57s11.52,13,6,16S100,126.57,100,126.57Z" transform="translate(-7.08 -8.65)" style="fill:#c7c6c5"/><path d="M95.45,128.57s7.51,21,1.51,23S95.45,128.57,95.45,128.57Z" transform="translate(-7.08 -8.65)" style="fill:#c7c6c5"/><path d="M105,127.57s9.51,16.52,14.52,14.52S105,127.57,105,127.57Z" transform="translate(-7.08 -8.65)" style="fill:#c7c6c5"/><path d="M67.42,105.86s-28-4-27.54,3.5S67.42,105.86,67.42,105.86Z" transform="translate(-7.08 -8.65)" style="fill:#c7c6c5"/><path d="M59.91,110s-18.53,5-16,9.52S59.91,110,59.91,110Z" transform="translate(-7.08 -8.65)" style="fill:#c7c6c5"/><path d="M69.42,82.32s-12.52-23.53-17-20S69.42,82.32,69.42,82.32Z" transform="translate(-7.08 -8.65)" style="fill:#c7c6c5"/><path d="M64.41,82.82s-9-11-11.51-7S64.41,82.82,64.41,82.82Z" transform="translate(-7.08 -8.65)" style="fill:#c7c6c5"/><path d="M96.46,70.81s-2.51-29.54,3-29.54S96.46,70.81,96.46,70.81Z" transform="translate(-7.08 -8.65)" style="fill:#c7c6c5"/><path d="M93.45,78.82s.5-21.53-4.5-21S93.45,78.82,93.45,78.82Z" transform="translate(-7.08 -8.65)" style="fill:#c7c6c5"/><path d="M109.47,69.81s7-22.54,11-21.53S109.47,69.81,109.47,69.81Z" transform="translate(-7.08 -8.65)" style="fill:#c7c6c5"/><path d="M107,55.29s10-13,5-15S107,55.29,107,55.29Z" transform="translate(-7.08 -8.65)" style="fill:#c7c6c5"/><path d="M112.48,92.84s5.51-11.52,9-9S112.48,92.84,112.48,92.84Z" transform="translate(-7.08 -8.65)" style="fill:#c7c6c5"/><path d="M114.48,95.34s22.53-13,26-9S114.48,95.34,114.48,95.34Z" transform="translate(-7.08 -8.65)" style="fill:#c7c6c5"/><path d="M67.92,128.07s-15,8.51-12.52,12.52S67.92,128.07,67.92,128.07Z" transform="translate(-7.08 -8.65)" style="fill:#c7c6c5"/><path d="M67.42,133.08s-6.51,7-3.51,8.51S67.42,133.08,67.42,133.08Z" transform="translate(-7.08 -8.65)" style="fill:#c7c6c5"/><path d="M100.21,25.93s-1.25,2.5,2.25,4,6.51-3,6.51-3,3.76,4,8.76,3.76A9.87,9.87,0,0,0,125,27.43s-1.5,11.35,7,14.85,13.27-3.08,13.27-3.08-7.92,2.25-13.43-2.26-4.34-14.52-4.34-14.52-5,4.93-11,4.34C111,26.23,109,23.43,109,23.43S103,31.19,100.21,25.93Z" transform="translate(-7.08 -8.65)" style="fill:#c2c1c1"/><path d="M155.54,68.65S154,69,153.2,71.83s6.18,6.5,6.18,6.5-7.18,4.51-7.18,12.35S159.71,103,159.71,103s-5.34,1.51-6,4.84,1.67,5.51,5,5.85a11.5,11.5,0,0,0,5.51-.67s-4.68,5.34-4.34,10.35a6.36,6.36,0,0,0,4.5,6s-2.67-2.83-1.67-8,5.84-9.84,5.84-9.84-6.34,2-8.17-1.67,2.83-6.34,2.83-6.34A14.71,14.71,0,0,1,156.54,92c-.5-8,5.84-14,5.84-14s-5-2-6.68-5S155.54,68.65,155.54,68.65Z" transform="translate(-7.08 -8.65)" style="fill:#c2c1c1"/><path d="M79.1,173.63s.17-3.34,2.84-4.17,5.17,2.17,5.17,2.17a8.29,8.29,0,0,1,5-5,11.51,11.51,0,0,1,8,.34,7.31,7.31,0,0,1,1.33-7.35c3-3.34,8.18-2,8.18-2s-2-4-.67-5.51,2.84-.16,3.34,1.84a29,29,0,0,1,.67,3.67s1.33-2.34,5.84-3.84a10,10,0,0,1,7.84.5,3.31,3.31,0,0,1,.34-3.34c1.17-2,3.5-1,3.5-1a2,2,0,0,0-2.17,1.67,28.12,28.12,0,0,0,.17,5.84s-1.84-2.83-7.68-1.33S113,161,113,161s-1.34-4.51-1.67-3.84a7.63,7.63,0,0,0-.33,2.34s-4.68-1.34-7.18,1.5-1.17,8-1.17,8-6.17-1.84-9.85.17c-3,1.61-4,6-4,6S81.1,167.62,79.1,173.63Z" transform="translate(-7.08 -8.65)" style="fill:#c2c1c1"/><path d="M25.86,91.85s4.5,1.67,4.67,5.84-4,6.18-4,6.18a9.33,9.33,0,0,1,3.83,7.34c.17,5-2.83,7-2.83,7s4.67,2,4.84,6.85S28,132.91,28,132.91a6.87,6.87,0,0,0,2.33-7.51c-1.33-5-6.5-6.84-6.5-6.84a8.56,8.56,0,0,0,3.67-7.68c-.5-5-5.18-7.34-5.18-7.34a6.61,6.61,0,0,0,5.51-5A6.45,6.45,0,0,0,25.86,91.85Z" transform="translate(-7.08 -8.65)" style="fill:#c2c1c1"/><path d="M48.22,37.11a3,3,0,0,1-.16,4,5.6,5.6,0,0,1-4.84,1.67s2,2.16.33,6.67S39.21,54,39.21,54s2.5,3.5,1.17,6.51A3.9,3.9,0,0,1,36,62.81s2.17.17,3-3.34S36,53,36,53a6.87,6.87,0,0,0,5.34-4.34c1.33-3.84-.67-7.85-.67-7.85S47.72,42.28,48.22,37.11Z" transform="translate(-7.08 -8.65)" style="fill:#c2c1c1"/><path d="M30.87,135.91a3.09,3.09,0,0,1,3.33,1.67,2.66,2.66,0,0,1-.83,3.51S34.54,137.92,30.87,135.91Z" transform="translate(-7.08 -8.65)" style="fill:#c2c1c1"/><path d="M53.4,34.94s2,2.84,4.84,1.17a3.15,3.15,0,0,0,1.33-4.34S58.24,37.11,53.4,34.94Z" transform="translate(-7.08 -8.65)" style="fill:#c2c1c1"/></svg>