<svg id="Layer_1" data-name="Layer 1" xmlns="http://www.w3.org/2000/svg" xmlns:xlink="http://www.w3.org/1999/xlink" viewBox="0 0 539.18 153.63"><defs><filter id="luminosity-noclip" x="13.65" y="-8260.57" width="331.63" height="32766" filterUnits="userSpaceOnUse" color-interpolation-filters="sRGB"><feFlood flood-color="#fff" result="bg"/><feBlend in="SourceGraphic" in2="bg"/></filter><mask id="mask" x="13.65" y="-8260.57" width="331.63" height="32766" maskUnits="userSpaceOnUse"><g style="filter:url(#luminosity-noclip)"/></mask><linearGradient id="_ÂÁ_Ï_ÌÌ_È_ËÂÌÚ_12" x1="-1822.63" y1="617.13" x2="-1967.3" y2="867.71" gradientTransform="translate(947.14 1969.63) rotate(89.29)" gradientUnits="userSpaceOnUse"><stop offset="0" stop-color="#fff"/><stop offset="0.19" stop-color="#ccc"/><stop offset="0.75" stop-color="#3b3b3b"/><stop offset="1"/></linearGradient><filter id="luminosity-noclip-2" x="13.65" y="64.13" width="331.63" height="40.92" filterUnits="userSpaceOnUse" color-interpolation-filters="sRGB"><feFlood flood-color="#fff" result="bg"/><feBlend in="SourceGraphic" in2="bg"/></filter><mask id="mask-2" x="0" y="57.35" width="331.63" height="40.92" maskUnits="userSpaceOnUse"><g style="filter:url(#luminosity-noclip-2)"><g transform="translate(-13.65 -6.78)"><g style="mask:url(#mask)"><path d="M345.29,87.38l-.11-8.68S261.29,40.86,13.65,87.16C262.37,127.29,345.29,87.38,345.29,87.38Z" style="mix-blend-mode:multiply;fill:url(#_ÂÁ_Ï_ÌÌ_È_ËÂÌÚ_12)"/></g></g></g></mask><linearGradient id="_ÂÁ_Ï_ÌÌ_È_ËÂÌÚ_956" x1="-1822.63" y1="617.13" x2="-1967.3" y2="867.71" gradientTransform="translate(947.14 1969.63) rotate(89.29)" gradientUnits="userSpaceOnUse"><stop offset="0" stop-color="#d44f62"/><stop offset="0.56" stop-color="#835188"/><stop offset="1" stop-color="#4952a3"/></linearGradient><linearGradient id="_ÂÁ_Ï_ÌÌ_È_ËÂÌÚ_440" x1="-1816.67" y1="570.44" x2="-1893.83" y2="570.44" gradientTransform="translate(947.14 1969.63) rotate(89.29)" gradientUnits="userSpaceOnUse"><stop offset="0" stop-color="#e87c49"/><stop offset="1" stop-color="#e8385c"/></linearGradient><linearGradient id="_ÂÁ_Ï_ÌÌ_È_ËÂÌÚ_440-2" x1="1750.52" y1="571.2" x2="1673.35" y2="571.2" gradientTransform="matrix(-0.01, -1, -1, 0.01, 945.17, 1749.85)" xlink:href="#_ÂÁ_Ï_ÌÌ_È_ËÂÌÚ_440"/><linearGradient id="_ÂÁ_Ï_ÌÌ_È_ËÂÌÚ_440-3" x1="-1944.67" y1="396.71" x2="-1842.89" y2="396.71" xlink:href="#_ÂÁ_Ï_ÌÌ_È_ËÂÌÚ_440"/><linearGradient id="_ÂÁ_Ï_ÌÌ_È_ËÂÌÚ_1014" x1="-1950.51" y1="397.32" x2="-1830.5" y2="397.32" gradientTransform="translate(947.14 1969.63) rotate(89.29)" gradientUnits="userSpaceOnUse"><stop offset="0" stop-color="#e87c49"/><stop offset="0.28" stop-color="#e8794a"/><stop offset="0.5" stop-color="#e86f4d"/><stop offset="0.71" stop-color="#e85d52"/><stop offset="0.91" stop-color="#e84558"/><stop offset="1" stop-color="#e8385c"/></linearGradient><linearGradient id="_ÂÁ_Ï_ÌÌ_È_ËÂÌÚ_512" x1="-1950.67" y1="428.35" x2="-1837.04" y2="428.35" gradientTransform="translate(947.14 1969.63) rotate(89.29)" gradientUnits="userSpaceOnUse"><stop offset="0" stop-color="#86d5f7"/><stop offset="0.31" stop-color="#9ddcf7"/><stop offset="0.74" stop-color="#b8e5f6"/><stop offset="1" stop-color="#c2e8f6"/></linearGradient><linearGradient id="_ÂÁ_Ï_ÌÌ_È_ËÂÌÚ_995" x1="-1955.74" y1="517.03" x2="-1831.99" y2="517.03" gradientTransform="translate(947.14 1969.63) rotate(89.29)" gradientUnits="userSpaceOnUse"><stop offset="0" stop-color="#7187c4"/><stop offset="1" stop-color="#a76cae"/></linearGradient><linearGradient id="_ÂÁ_Ï_ÌÌ_È_ËÂÌÚ_962" x1="-1955.74" y1="511.57" x2="-1831.99" y2="511.57" gradientTransform="translate(947.14 1969.63) rotate(89.29)" gradientUnits="userSpaceOnUse"><stop offset="0" stop-color="#74a7da"/><stop offset="1" stop-color="#a76cae"/></linearGradient><linearGradient id="_ÂÁ_Ï_ÌÌ_È_ËÂÌÚ_1013" x1="-1914.65" y1="506.59" x2="-1843.19" y2="506.59" gradientTransform="translate(947.14 1969.63) rotate(89.29)" gradientUnits="userSpaceOnUse"><stop offset="0" stop-color="#a18bc1"/><stop offset="1" stop-color="#b081b9"/></linearGradient><linearGradient id="_ÂÁ_Ï_ÌÌ_È_ËÂÌÚ_512-2" x1="-1931.9" y1="479.4" x2="-1856.29" y2="479.4" gradientTransform="matrix(-0.7, 0.72, -0.72, -0.7, -535.17, 1772.19)" xlink:href="#_ÂÁ_Ï_ÌÌ_È_ËÂÌÚ_512"/><linearGradient id="_ÂÁ_Ï_ÌÌ_È_ËÂÌÚ_439" x1="-1920.18" y1="479.4" x2="-1861.19" y2="479.4" gradientTransform="translate(947.14 1969.63) rotate(89.29)" gradientUnits="userSpaceOnUse"><stop offset="0" stop-color="#4a2e77"/><stop offset="0.9" stop-color="#5e469c"/></linearGradient><linearGradient id="_ÂÁ_Ï_ÌÌ_È_ËÂÌÚ_969" x1="-1920.18" y1="482.48" x2="-1861.19" y2="482.48" gradientTransform="translate(947.14 1969.63) rotate(89.29)" gradientUnits="userSpaceOnUse"><stop offset="0" stop-color="#4a2e77"/><stop offset="0.33" stop-color="#55448f"/><stop offset="0.66" stop-color="#5c54a1"/><stop offset="0.9" stop-color="#5f5aa7"/></linearGradient><linearGradient id="_ÂÁ_Ï_ÌÌ_È_ËÂÌÚ_990" x1="-1888.7" y1="483.42" x2="-1870.71" y2="483.42" gradientTransform="translate(947.14 1969.63) rotate(89.29)" gradientUnits="userSpaceOnUse"><stop offset="0.01" stop-color="#6467af"/><stop offset="0.9" stop-color="#6064ad"/></linearGradient></defs><g style="mask:url(#mask-2)"><path d="M345.29,87.38l-.11-8.68S261.29,40.86,13.65,87.16C262.37,127.29,345.29,87.38,345.29,87.38Z" transform="translate(-13.65 -6.78)" style="fill:url(#_ÂÁ_Ï_ÌÌ_È_ËÂÌÚ_956)"/></g><path d="M318,103.93s-1.67-6.59-1.84-20.74c-.21-16.34,1.33-20.54,1.33-20.54l14.42-2.38.57,45.45Z" transform="translate(-13.65 -6.78)" style="fill:#6259a6"/><path d="M336.19,92.13c0,1.37-8.62,17.24-8.62,17.24s-1.34,25.27-.13,45.9a5.48,5.48,0,0,0,8.63,4.14c12.92-9.12,38-27,44.8-33.4Z" transform="translate(-13.65 -6.78)" style="fill:url(#_ÂÁ_Ï_ÌÌ_È_ËÂÌÚ_440)"/><path d="M336,75c-.08-1.38-9.05-17-9.05-17s-2-25.22-1.27-45.88a5.48,5.48,0,0,1,8.53-4.34C347.33,16.5,372.83,33.77,379.8,40Z" transform="translate(-13.65 -6.78)" style="fill:url(#_ÂÁ_Ï_ÌÌ_È_ËÂÌÚ_440-2)"/><path d="M552.83,80.46s-16.46-32.55-52.28-50.14a276,276,0,0,1,3.34,32.58A128.74,128.74,0,0,1,552,82.07C552.55,81,552.83,80.46,552.83,80.46Z" transform="translate(-13.65 -6.78)" style="fill:url(#_ÂÁ_Ï_ÌÌ_È_ËÂÌÚ_440-3)"/><path d="M518.25,121.39A128.12,128.12,0,0,0,552,82.07,128.74,128.74,0,0,0,503.89,62.9c.41,8.48.56,18.15.28,29-.3,12-1.13,25.37-2.72,40.2A112.89,112.89,0,0,0,518.25,121.39Z" transform="translate(-13.65 -6.78)" style="fill:url(#_ÂÁ_Ï_ÌÌ_È_ËÂÌÚ_1014)"/><path d="M501.45,132.11c5.45-50.84,1.95-85-.9-101.79-1.21-.59-2.44-1.17-3.69-1.72a92.48,92.48,0,0,0-11.11-4.09c2.93,14.15,8.57,52.37,1.36,113.62a92.85,92.85,0,0,0,11.06-4.39C499.28,133.21,500.38,132.67,501.45,132.11Z" transform="translate(-13.65 -6.78)" style="fill:url(#_ÂÁ_Ï_ÌÌ_È_ËÂÌÚ_512)"/><path d="M373.55,64.11c30.75-24.56,70.68-35.69,113.26-33.93-.37-2.18-.73-4.09-1.06-5.67C418.7,4.42,329.32,56.07,326.92,57.2c0,0-1.18.79-1,22.82v.14c0,1,0,2,0,3.12v0c0,1.1,0,2.12.05,3.12a2.62,2.62,0,0,0,0,.28v-.14c.38,22,1.58,22.78,1.58,22.78.36.16,2.64,1.37,6.45,3.24A152.14,152.14,0,0,1,373.55,64.11Z" transform="translate(-13.65 -6.78)" style="fill:url(#_ÂÁ_Ï_ÌÌ_È_ËÂÌÚ_995)"/><path d="M487.11,138.13c6.4-54.39,2.67-90.61-.3-107.95-42.58-1.76-82.51,9.37-113.26,33.93A152.14,152.14,0,0,0,334,112.61C356.15,123.44,430.37,156.63,487.11,138.13Z" transform="translate(-13.65 -6.78)" style="fill:url(#_ÂÁ_Ï_ÌÌ_È_ËÂÌÚ_962)"/><path d="M349,108.28a303.69,303.69,0,0,0,75.24,22.4c10.74,1.73,21.81,2.87,32.43.48s20.81-8.84,25.27-18.76a45.71,45.71,0,0,0,3.11-11.82c.9-5.77,1.43-11.77-.25-17.36-1.88-6.23-6.43-11.43-11.91-14.94a48.57,48.57,0,0,0-18.25-6.49,41.83,41.83,0,0,0-13.25-.41c-9.45,1.47-17.54,7.58-24.28,14.37S404.48,90.22,397,96.18a59.29,59.29,0,0,1-48.19,11.55Z" transform="translate(-13.65 -6.78)" style="fill:url(#_ÂÁ_Ï_ÌÌ_È_ËÂÌÚ_1013)"/><circle cx="444.32" cy="81.6" r="37.8" transform="translate(58.78 331.3) rotate(-45)" style="fill:url(#_ÂÁ_Ï_ÌÌ_È_ËÂÌÚ_512-2)"/><path d="M441.09,69.66a20.36,20.36,0,0,1,13.31,36,26.11,26.11,0,1,0-33-11.72,19.9,19.9,0,0,1-.38-3.65A20.36,20.36,0,0,1,441.09,69.66Z" transform="translate(-13.65 -6.78)" style="fill:url(#_ÂÁ_Ï_ÌÌ_È_ËÂÌÚ_439)"/><path d="M444.65,107.68a25.9,25.9,0,0,0,9.75-2A20.36,20.36,0,1,0,421,90.28a19.9,19.9,0,0,0,.38,3.65c.13.23.24.47.37.69A26,26,0,0,0,444.65,107.68Z" transform="translate(-13.65 -6.78)" style="fill:url(#_ÂÁ_Ï_ÌÌ_È_ËÂÌÚ_969)"/><g style="opacity:0.79"><path d="M444.61,105a23.11,23.11,0,0,0,6.24-.94,7.87,7.87,0,0,0,3.69-2.28l.33-.39a7.76,7.76,0,0,0,1.85-6v0c-.6-4.37-4.4-8.24-8.8-8.42a17.16,17.16,0,0,0-6,1.2c-2.44.8-4.89,1.6-7.28,2.54-2.79,1.09-5.56,2.38-8.54,2.68a12,12,0,0,1-2,0A23.43,23.43,0,0,0,444.61,105Z" transform="translate(-13.65 -6.78)" style="fill:url(#_ÂÁ_Ï_ÌÌ_È_ËÂÌÚ_990)"/></g><path d="M446.84,101.64a3.71,3.71,0,0,1-3.29-3.43,4.16,4.16,0,0,1,3.12-3.95,7.41,7.41,0,0,1,2.2-.26,4.92,4.92,0,0,1,2.23.54,3,3,0,0,1,1.5,1.95,4,4,0,0,1,.18,2.23,3.67,3.67,0,0,1-1.71,2.3A6.39,6.39,0,0,1,446.84,101.64Zm-6.32-3c0-2.6-4.08-2.55-4,.05S440.55,101.24,440.52,98.63Z" transform="translate(-13.65 -6.78)" style="fill:#63c9da"/></svg>