<svg id="Layer_1" data-name="Layer 1" xmlns="http://www.w3.org/2000/svg" xmlns:xlink="http://www.w3.org/1999/xlink" viewBox="0 0 625.8 213.17"><defs><clipPath id="clip-path" transform="translate(-0.39 -13.35)"><path d="M343.74-295.83S72.7-184,54.75-185.52s95.6,241,98.55,244.87,65,20.92,105.21,27.81,125.37-8.43,145.77-12.62,48.15-12.73,54.08-17.82S566.31-240,542.11-242.87,343.74-295.83,343.74-295.83Z" style="fill:none"/></clipPath></defs><g style="clip-path:url(#clip-path)"><path d="M99.4,157.41c42.7-6.74,85.58-6.67,128.7-7.39,36.06-.6,72.11-1.76,108.15-3.05s72-2.68,108-3.73c27.77-.8,55.58-.8,83.35-1.65,18.1-1.14,36.17-3.21,53.76-7.45,2.54-1,.33-4.39-5.57-11l-.36-.23c-1.19-.71-2.41-1.47-3.64-2.26l-1.12-.71c-.49-.31-1-.65-1.48-1l-1.25-.82-1.49-1-1.31-.88-1.52-1-1.33-.91c-.52-.35-1-.72-1.55-1.08l-1.36-.94-1.56-1.11c-.47-.32-.92-.65-1.39-1l-1.59-1.14c-.46-.33-.93-.66-1.38-1l-1.62-1.16-1.39-1-1.63-1.18-1.38-1-1.7-1.25c-.44-.31-.86-.63-1.3-1-.59-.44-1.2-.89-1.8-1.32-.36-.27-.71-.53-1.08-.79l-7.73-5.71-.05,0-3.14-2.32c-16.67-12.27-33.94-36.41-38-37.4a2.66,2.66,0,0,1-.39-.14l-.13-.07-.31-.16-.17-.11c-.1-.07-.2-.13-.3-.21l-.18-.14a2.78,2.78,0,0,1-.34-.26l-.19-.16c-.12-.1-.24-.2-.36-.32l-.2-.18c-.13-.12-.27-.24-.4-.38l-.18-.18-.47-.45-.15-.15c-.18-.18-.36-.36-.55-.57l-.1-.09c-2.13-2.21-4.72-5.17-7.58-8.19l-.06-.06q-1.6-1.7-3.31-3.36l-.28-.26-.57-.55-.4-.38-.53-.5-.46-.41-.51-.45-.49-.42-.5-.43-.51-.42c-.16-.13-.32-.26-.5-.39l-.52-.41-.48-.37-.54-.39c-.16-.11-.32-.23-.48-.33l-.55-.37-.46-.3-.57-.35-.45-.27c-.2-.12-.4-.23-.62-.34l-.41-.22c-.22-.12-.46-.22-.68-.33l-.34-.16-1-.42c-11.24-4.22-75.11-17.79-94.12-16.87l-128,6.15c-4.7.23-19.89,2.9-36.12,6l-.23,0L205,26l-.29.06-6.42,1.25-.09,0-2.07.4-.11,0-1.93.38-.29.06-6.21,1.24-.17,0-1.71.34-.45.09-1.78.37h-.06l-3.81.77-.39.08-1.33.27-.58.12-1.18.25-.5.11-1.2.26-.49.1-1.5.31-.55.11-.91.19-.7.15-.71.15-.69.14-.71.15-.64.14-.57.12-1.16.26-.59.13-.55.12-.55.12-.49.11-.56.12-.4.09-.62.14-.26.06-.76.17-.27.06-.44.1-.23.06-.36.08-.2.05-.3.07-.13,0-.33.09a4.52,4.52,0,0,0-.5.18l-.19.07c-.15,0-.29.11-.45.18l-.25.1-.54.23-.27.12-.72.32-.19.09c-.67.31-1.42.66-2.21,1.06l-.2.09-1.07.52-.24.12-1.21.6-.11,0C143.17,43,132.44,48.8,124.75,53l-.35.19-.87.47-2.92,1.59h0l-4.78,2.59c-4.61,2.47-29.51,43.71-101,92.77.93,16,94.5-62.31,95.4-46.33C118.81,102.8,90.84,158.76,99.4,157.41Z" transform="translate(-0.39 -13.35)" style="fill:#ff8983"/><path d="M617.65,148.83c-11.06-9.17-37.76-19.17-41.51-18.89-13-7.85-29.56-20.32-45.13-31.79-16.67-12.28-33.95-36.41-38-37.41S477,41.3,465.72,37.08,390.61,19.3,371.61,20.21l-128,6.17c-11,.53-79.47,14.51-84.41,15.94S121.06,62,116.19,64.6c-4.6,2.46-26,41.65-44.78,55.89C25.83,151.71,5,156.21.39,168.8,40.06,159,124.49,211,252.54,186c56.47-4.11,60.17,43.68,116.68,40.41,63-3.65,125.48-12.47,187.54-23.4q23.91-4.38,47.76-9c-.15-1.35,9.91-.59,21.67.6Z" transform="translate(-0.39 -13.35)" style="fill:#e04f44"/><path d="M591,138.4c-4.24-2.4-8.49-4.79-12.13-6.87-13.42-7.67-31.15-21.09-47.82-33.37s-33.95-36.41-38-37.41-16-19.44-27.28-23.66c-.39-.15-.87-.31-1.39-.48a39.93,39.93,0,0,0-6.17,1.06S400.43,79.4,420,95.15c0,0,35.26,1.09,46.57,15.85s29.13,41.73,35.12,44.23a117.06,117.06,0,0,0,17.69,5.05c30.67-2.88,55.68-5.28,72.25-6.88C591.35,148.42,591.14,143.41,591,138.4Z" transform="translate(-0.39 -13.35)" style="fill:#f7a6e4;opacity:0.1599999964237213;isolation:isolate"/><path d="M591,138.4c.19,5,.4,10,.7,15l22.27-2.16S602.41,144.84,591,138.4Z" transform="translate(-0.39 -13.35)" style="fill:#f7a6e4;opacity:0.1599999964237213;isolation:isolate"/><path d="M578.83,131.53c-13.42-7.67-31.15-21.09-47.82-33.37s-33.95-36.41-38-37.41c-3.85-1-14.77-17.5-25.46-22.85,2,11.3,5.43,29.59,6.37,32.4,0,0,40,24.51,56.12,41.83,13.44,14.42,47.77,23,61,27l0-.72C586.71,136,582.46,133.6,578.83,131.53Z" transform="translate(-0.39 -13.35)" style="fill:#fc7065"/><path d="M591,138.4c0,.24,0,.47,0,.72,1.12.33,2.08.64,2.87.91C592.9,139.48,591.93,138.94,591,138.4Z" transform="translate(-0.39 -13.35)" style="fill:#d1618f;opacity:0.75;isolation:isolate"/><path d="M53.68,132.13c-16.74,10.53-29.11,17-37.77,22.21,1,5.1,6.22,11.61,23.28,16.69,5.69,1.16,11.75,2.53,18.19,4,7.76,1.26,16.93,2.3,27.75,3,5.07.34,112,10.63,180.21,4.94a245.42,245.42,0,0,0,8.72-27.93c4.86-19.72,27.88-51.44,27.88-51.44,15.63-8.78-47.71-46.32-90.25-72-4.68.89-9.52,1.82-14.29,2.76l-.16,0-1.57.31-.36.07L189.08,36l-.78.16-1.06.21-.85.17-.92.18-1,.2-.92.18-.67.14-1.75.36-1,.21-.69.14-1.11.23-.63.13-1.12.23-.58.12-1.28.26-.35.07-1.57.32-.34.08-1.17.24-.44.09-1.08.23-.36.08-1.18.25-.17,0-2.53.54-.27.06-.84.18-.31.07-.71.17-.32.07-.72.16-.16,0-.81.18-.13,0-.56.13-.18,0-.4.1-.18,0-.31.08-.12,0-.32.09c-4.95,1.43-38.11,19.67-43,22.28-4.6,2.46-26,41.65-44.78,55.89C68.22,122,67.85,123.41,53.68,132.13Z" transform="translate(-0.39 -13.35)" style="fill:#490125;opacity:0.17000000178813934;isolation:isolate"/><path d="M209.11,55.21c-8-2.71-44.56-8.91-68.93-3.53C133.15,55.4,125.79,59.4,121,62h0s-17.31,19.14-20.4,27.64S89,115.25,89,115.25s26.85-2.68,44.48-2.14,22.81,10,35.22,23.36,35.64,31.68,35.64,31.68,4.44-28-1-43.08,5-39.21,4.83-43.37S219.86,58.87,209.11,55.21Z" transform="translate(-0.39 -13.35)" style="fill:#490125;opacity:0.17000000178813934;isolation:isolate"/><path d="M226.24,93.11c21.18,5,78.81,17.6,85.92,15.55s48.13-4,63.11-7.31,46.15-.51,64.68-4.83S479.75,70.66,481.07,68c.79-1.58,1.43-10.86-.09-19-4.67-4.92-10-9.94-15.26-11.9-11.24-4.21-75.11-17.78-94.11-16.87l-128,6.17c-11,.53-79.47,14.51-84.41,15.94C155.08,43.52,131.69,56.2,121,62c-5.14,3.79-8.41,7-7,8.26C118.52,74.34,205.06,88.15,226.24,93.11Z" transform="translate(-0.39 -13.35)" style="fill:#fc7065"/><path d="M301.44,39.41S252,41,234.09,39.44,150.36,55.49,153.3,59.35s65,20.92,105.21,27.81,125.37-8.43,145.77-12.62,48.15-12.73,54.08-17.82S409.71,46.23,385.5,43.39,301.44,39.41,301.44,39.41Z" transform="translate(-0.39 -13.35)" style="fill:#490125;opacity:0.23000000417232513;isolation:isolate"/><path d="M385.51,43.38c-24.2-2.85-84.06-4-84.06-4s-11.51.36-25.44.57c12.67,3.23,27.2,7.21,33.11,9.86,11.4,5.14,23.26,19.18,24.2,24a112.35,112.35,0,0,1,1.23,11.65c30.51-3.51,59-8.76,69.75-11,20.41-4.18,48.15-12.73,54.08-17.82S409.72,46.22,385.51,43.38Z" transform="translate(-0.39 -13.35)" style="fill:#490125;opacity:0.23000000417232513;isolation:isolate"/></g></svg>