<svg id="Layer_1" data-name="Layer 1" xmlns="http://www.w3.org/2000/svg" xmlns:xlink="http://www.w3.org/1999/xlink" viewBox="0 0 619.03 632"><defs><clipPath id="clip-path" transform="translate(-4.54 -12.64)"><path d="M540.4-242.21c23.94,2.83-77,292.91-82.84,298s-33.31,13.57-53.5,17.73S299.65,92.9,259.87,86.05,158.71,62.24,155.8,58.39,40.56-186.7,58.31-185.17L-234.27,115.09s22,584.61,29.93,584.61S809.25,673.76,815.23,663.79s47.89-782.14,45.89-796.1S540.4-242.21,540.4-242.21Z" style="fill:none"/></clipPath></defs><g style="clip-path:url(#clip-path)"><rect x="129.81" y="42.77" width="340.52" height="589.23" style="fill:#ed5946"/></g><g style="clip-path:url(#clip-path)"><path d="M102.48,155.93c42.24-6.7,84.65-6.63,127.31-7.35,35.67-.6,71.33-1.75,107-3s71.23-2.67,106.85-3.71c27.47-.8,55-.8,82.45-1.64,17.9-1.14,35.78-3.2,53.18-7.41,2.51-1,.33-4.37-5.51-10.95l-.36-.22c-1.17-.71-2.38-1.47-3.6-2.25l-1.11-.71-1.46-1-1.24-.82-1.47-1-1.3-.88-1.5-1-1.32-.91L558.85,112l-1.34-.94L556,110l-1.37-1L553,107.85l-1.37-1-1.6-1.16-1.38-1c-.54-.39-1.08-.78-1.61-1.18l-1.36-1L544,101.27l-1.28-1L541,99l-1.07-.79-7.65-5.68-.05,0-3.1-2.3C512.59,78,495.5,54,491.48,53a2.66,2.66,0,0,1-.39-.14l-.13-.07-.3-.16-.17-.11-.3-.21-.18-.14a3.75,3.75,0,0,1-.33-.26l-.19-.16-.36-.31-.19-.18c-.13-.12-.27-.24-.4-.38l-.18-.18-.46-.45-.15-.15-.55-.56-.09-.09c-2.11-2.2-4.67-5.15-7.5-8.15l-.06-.06c-1.06-1.12-2.15-2.24-3.28-3.34l-.27-.26-.57-.55-.39-.38c-.18-.16-.36-.32-.53-.49l-.45-.41-.51-.45-.48-.42-.5-.42-.5-.42-.49-.39-.52-.41-.47-.36-.54-.39c-.16-.11-.31-.23-.47-.33l-.55-.37-.45-.3L468,31.2l-.44-.26L467,30.6l-.41-.22c-.22-.12-.45-.22-.67-.33l-.34-.16c-.34-.15-.67-.29-1-.42-11.12-4.19-74.3-17.69-93.1-16.78L244.78,18.81c-4.65.23-19.67,2.89-35.73,6l-.22,0L207,25.2l-.29.06-6.35,1.24-.09,0-2.05.4-.11,0-1.9.38-.29.06-6.14,1.23-.17,0L187.9,29l-.45.09-1.76.36h-.06l-3.77.77-.38.08-1.32.27-.57.12-1.17.25-.5.11-1.18.25-.49.1-1.48.31-.54.11-.91.19-.69.15-.7.15-.68.14-.7.15-.64.14-.56.12-1.15.25-.58.13-.55.12-.54.12-.49.11-.55.12-.4.09-.61.14-.26.06-.75.17-.26.06-.44.1-.23.06-.35.08-.2.05-.3.07-.13,0-.32.09-.5.17-.19.07-.44.18-.25.1-.53.23-.27.12-.71.32-.19.09c-.66.31-1.4.66-2.19,1l-.19.09-1.06.52-.24.12-1.2.6-.1.05c-7.4,3.75-18,9.48-25.62,13.63l-.35.19-.86.47-2.89,1.58h0c-2.22,1.2-3.9,2.13-4.73,2.57-4.56,2.46-29.19,43.47-99.87,92.27.92,15.89,93.48-62,94.37-46.08C121.68,101.61,94,157.27,102.48,155.93Z" transform="translate(-4.54 -12.64)" style="fill:#ff8983"/><path d="M615.13,147.4c-10.94-9.12-37.36-19.07-41.06-18.79C561.16,120.8,544.83,108.4,529.42,97c-16.49-12.21-33.58-36.22-37.6-37.21s-15.86-19.34-27-23.53-74.3-17.69-93.09-16.78L245.1,25.6c-10.88.53-78.61,14.44-83.5,15.86S123.91,61,119.09,63.62c-4.55,2.45-25.76,41.43-44.3,55.59C29.7,150.26,9.08,154.74,4.54,167.26c39.24-9.72,122.76,42,249.42,17.06,55.86-4.09,59.52,43.44,115.42,40.19,62.33-3.63,124.13-12.4,185.52-23.27q23.64-4.37,47.24-9c-.15-1.34,9.8-.58,21.43.6Z" transform="translate(-4.54 -12.64)" style="fill:#e04f44"/><path d="M588.72,137c-4.2-2.38-8.4-4.76-12-6.83-13.28-7.63-30.82-21-47.31-33.19s-33.58-36.22-37.6-37.21-15.86-19.34-27-23.53c-.39-.15-.86-.31-1.38-.48a40.2,40.2,0,0,0-6.1,1S400.26,78.34,419.63,94c0,0,34.88,1.08,46.07,15.76s28.81,41.51,34.74,44a114.15,114.15,0,0,0,17.5,5c30.34-2.87,55.08-5.26,71.47-6.85C589.11,147,588.9,142,588.72,137Z" transform="translate(-4.54 -12.64)" style="fill:#f7a6e4;opacity:0.1599999964237213;isolation:isolate"/><path d="M588.72,137c.18,5,.39,10,.69,14.93l22-2.15S600.05,143.43,588.72,137Z" transform="translate(-4.54 -12.64)" style="fill:#f7a6e4;opacity:0.1599999964237213;isolation:isolate"/><path d="M576.73,130.19c-13.28-7.63-30.82-21-47.31-33.19s-33.58-36.22-37.6-37.21c-3.8-.94-14.61-17.41-25.18-22.73,2,11.24,5.37,29.43,6.3,32.23,0,0,39.54,24.38,55.51,41.6,13.3,14.35,47.26,22.89,60.3,26.84l0-.72C584.52,134.64,580.32,132.25,576.73,130.19Z" transform="translate(-4.54 -12.64)" style="fill:#fc7065"/><path d="M588.72,137l0,.72c1.11.33,2.06.64,2.84.9Z" transform="translate(-4.54 -12.64)" style="fill:#d1618f;opacity:0.75;isolation:isolate"/><path d="M57.25,130.79c-16.56,10.47-28.79,16.92-37.36,22.09,1,5.07,6.15,11.54,23,16.6,5.63,1.15,11.62,2.51,18,4,7.68,1.25,16.75,2.28,27.45,3,5,.34,110.8,10.57,178.27,4.91a244.92,244.92,0,0,0,8.62-27.78c4.81-19.61,27.58-51.16,27.58-51.16,15.46-8.73-47.19-46.07-89.27-71.64-4.63.88-9.42,1.81-14.14,2.74l-.16,0-1.55.31-.36.07-6.16,1.23-.77.16-1,.21-.84.17-.91.18-1,.2-.91.18-.66.14-1.73.35-1,.21-.69.14-1.09.23-.63.13-1.1.23-.58.12-1.26.26-.35.07-1.55.32-.34.07-1.16.24-.43.09-1.07.23-.36.08-1.16.25-.17,0-2.51.54-.26.06-.83.18-.31.07-.7.16-.32.07-.71.16-.16,0-.8.18-.13,0-.55.13-.18,0-.4.1-.17,0-.31.08-.12,0-.32.09C156.7,42.89,123.9,61,119.08,63.63c-4.55,2.45-25.76,41.43-44.3,55.59C71.64,120.68,71.27,122.11,57.25,130.79Z" transform="translate(-4.54 -12.64)" style="fill:#490125;opacity:0.17000000178813934;isolation:isolate"/><path d="M211,54.28c-7.9-2.7-44.07-8.86-68.18-3.51-7,3.7-14.24,7.68-19,10.28h0s-17.13,19-20.18,27.49S92.15,114,92.15,114s26.56-2.67,44-2.13,22.56,10,34.84,23.23,35.26,31.51,35.26,31.51,4.39-27.89-1-42.85,5-39,4.77-43.13S221.64,57.92,211,54.28Z" transform="translate(-4.54 -12.64)" style="fill:#490125;opacity:0.17000000178813934;isolation:isolate"/><path d="M228,92c21,4.94,78,17.5,85,15.46s47.61-4,62.43-7.27,45.65-.51,64-4.8S478.72,69.65,480,67c.78-1.57,1.42-10.8-.09-18.93-4.62-4.89-9.93-9.88-15.09-11.83-11.12-4.19-74.3-17.69-93.09-16.78L245.1,25.62c-10.88.53-78.61,14.44-83.5,15.86-4,1.17-27.18,13.78-37.79,19.58-5.09,3.77-8.32,7-6.91,8.22C121.39,73.31,207,87,228,92Z" transform="translate(-4.54 -12.64)" style="fill:#fc7065"/><path d="M302.34,38.56s-48.88,1.56-66.63,0-82.82,16-79.91,19.81,64.29,20.81,104.07,27.66,124-8.39,144.19-12.55,47.63-12.67,53.5-17.73-48.13-10.43-72.07-13.26S302.34,38.56,302.34,38.56Z" transform="translate(-4.54 -12.64)" style="fill:#490125;opacity:0.23000000417232513;isolation:isolate"/><path d="M385.5,42.51c-23.94-2.83-83.15-3.95-83.15-3.95s-11.39.36-25.17.57c12.53,3.21,26.91,7.17,32.75,9.81,11.28,5.11,23,19.08,23.94,23.89a114.45,114.45,0,0,1,1.22,11.59c30.18-3.49,58.39-8.72,69-10.91,20.19-4.16,47.63-12.67,53.5-17.73S409.44,45.34,385.5,42.51Z" transform="translate(-4.54 -12.64)" style="fill:#490125;opacity:0.23000000417232513;isolation:isolate"/></g></svg>