<svg xmlns="http://www.w3.org/2000/svg" xmlns:xlink="http://www.w3.org/1999/xlink" viewBox="0 0 1239.38 763.04"><defs><linearGradient id="linear-gradient" x1="-610.53" y1="1480.79" x2="-610.53" y2="1290" gradientTransform="translate(0 -2.19)" gradientUnits="userSpaceOnUse"><stop offset="0" stop-color="#a8d271" /><stop offset="1" stop-color="#55b948" /></linearGradient><linearGradient id="linear-gradient-2" x1="-454.04" y1="1480.79" x2="-454.04" y2="1290" gradientTransform="translate(805.58 -1047.35)" xlink:href="#linear-gradient" /><linearGradient id="linear-gradient-3" x1="-292.11" y1="1480.79" x2="-292.11" y2="1290" xlink:href="#linear-gradient" /><linearGradient id="linear-gradient-4" x1="-80.66" y1="1480.79" x2="-80.66" y2="1290" gradientTransform="translate(805.58 -1047.35)" xlink:href="#linear-gradient" /><linearGradient id="linear-gradient-5" x1="102.85" y1="1480.79" x2="102.85" y2="1290" gradientTransform="translate(805.58 -1047.35)" xlink:href="#linear-gradient" /><linearGradient id="linear-gradient-6" x1="292.42" y1="1480.79" x2="292.42" y2="1290" gradientTransform="translate(805.58 -1047.35)" xlink:href="#linear-gradient" /><linearGradient id="New_Gradient_Swatch_2" x1="-630.24" y1="1309.45" x2="-583.34" y2="1469.9" gradientUnits="userSpaceOnUse"><stop offset="0" stop-color="#cbe3aa" /><stop offset="0.27" stop-color="#a8d271" /><stop offset="1" stop-color="#54b848" /></linearGradient><linearGradient id="New_Gradient_Swatch_2-2" x1="-491.6" y1="1268.93" x2="-444.7" y2="1429.37" xlink:href="#New_Gradient_Swatch_2" /><linearGradient id="New_Gradient_Swatch_2-3" x1="-318.2" y1="1218.24" x2="-271.3" y2="1378.68" xlink:href="#New_Gradient_Swatch_2" /><linearGradient id="New_Gradient_Swatch_2-4" x1="-113.4" y1="1158.38" x2="-66.5" y2="1318.82" xlink:href="#New_Gradient_Swatch_2" /><linearGradient id="New_Gradient_Swatch_2-5" x1="64.9" y1="1106.26" x2="111.8" y2="1266.7" xlink:href="#New_Gradient_Swatch_2" /><linearGradient id="New_Gradient_Swatch_2-6" x1="270.27" y1="1046.23" x2="317.17" y2="1206.67" xlink:href="#New_Gradient_Swatch_2" /><linearGradient id="linear-gradient-7" x1="-587.02" y1="1447.58" x2="-636.98" y2="1278.25" gradientTransform="translate(0 4.39)" gradientUnits="userSpaceOnUse"><stop offset="0" stop-color="#52b848" /><stop offset="1" stop-color="#76c043" /></linearGradient><linearGradient id="linear-gradient-8" x1="-450.93" y1="1407.43" x2="-500.88" y2="1238.1" gradientTransform="translate(805.58 -1040.76)" xlink:href="#linear-gradient-7" /><linearGradient id="linear-gradient-9" x1="-275.07" y1="1355.54" x2="-325.02" y2="1186.22" xlink:href="#linear-gradient-7" /><linearGradient id="linear-gradient-10" x1="-73.09" y1="1295.96" x2="-123.05" y2="1126.63" gradientTransform="translate(805.58 -1040.76)" xlink:href="#linear-gradient-7" /><linearGradient id="linear-gradient-11" x1="105.02" y1="1243.41" x2="55.06" y2="1074.09" gradientTransform="translate(805.58 -1040.76)" xlink:href="#linear-gradient-7" /><linearGradient id="linear-gradient-12" x1="310.19" y1="1182.88" x2="260.24" y2="1013.56" gradientTransform="translate(805.58 -1040.76)" xlink:href="#linear-gradient-7" /><linearGradient id="linear-gradient-13" x1="-621.89" y1="1276.93" x2="-609.34" y2="1370.99" gradientUnits="userSpaceOnUse"><stop offset="0.36" stop-color="#cbe3aa" /><stop offset="0.59" stop-color="#a8d271" /><stop offset="1" stop-color="#76c043" /></linearGradient><linearGradient id="linear-gradient-14" x1="330.02" y1="212.27" x2="342.56" y2="306.33" xlink:href="#linear-gradient-13" /><linearGradient id="linear-gradient-15" x1="-298.77" y1="1233.85" x2="-286.23" y2="1327.91" xlink:href="#linear-gradient-13" /><linearGradient id="linear-gradient-16" x1="716.35" y1="160.76" x2="728.89" y2="254.82" xlink:href="#linear-gradient-13" /><linearGradient id="linear-gradient-17" x1="901.13" y1="136.12" x2="913.67" y2="230.19" xlink:href="#linear-gradient-13" /><linearGradient id="linear-gradient-18" x1="1106.75" y1="108.7" x2="1119.29" y2="202.77" xlink:href="#linear-gradient-13" /><linearGradient id="linear-gradient-19" x1="-665.12" y1="1745.64" x2="-665.12" y2="1555.68" gradientTransform="translate(805.58 -1047.35)" xlink:href="#linear-gradient" /><linearGradient id="linear-gradient-20" x1="-473.18" y1="1745.64" x2="-473.18" y2="1555.68" xlink:href="#linear-gradient" /><linearGradient id="linear-gradient-21" x1="-287.99" y1="1745.64" x2="-287.99" y2="1555.68" xlink:href="#linear-gradient" /><linearGradient id="linear-gradient-22" x1="-96" y1="1745.64" x2="-96" y2="1555.68" gradientTransform="translate(805.58 -1047.35)" xlink:href="#linear-gradient" /><linearGradient id="linear-gradient-23" x1="71.13" y1="1745.64" x2="71.13" y2="1555.68" gradientTransform="translate(805.58 -1047.35)" xlink:href="#linear-gradient" /><linearGradient id="linear-gradient-24" x1="278.88" y1="1745.64" x2="278.88" y2="1555.68" gradientTransform="translate(805.58 -1047.35)" xlink:href="#linear-gradient" /><linearGradient id="New_Gradient_Swatch_2-7" x1="-661.95" y1="1573.87" x2="-614.49" y2="1736.23" xlink:href="#New_Gradient_Swatch_2" /><linearGradient id="New_Gradient_Swatch_2-8" x1="-494.64" y1="1524.97" x2="-447.18" y2="1687.32" xlink:href="#New_Gradient_Swatch_2" /><linearGradient id="New_Gradient_Swatch_2-9" x1="-318.7" y1="1473.54" x2="-271.24" y2="1635.89" xlink:href="#New_Gradient_Swatch_2" /><linearGradient id="New_Gradient_Swatch_2-10" x1="-130.8" y1="1418.61" x2="-83.34" y2="1580.97" xlink:href="#New_Gradient_Swatch_2" /><linearGradient id="New_Gradient_Swatch_2-11" x1="32.23" y1="1370.96" x2="79.69" y2="1533.31" xlink:href="#New_Gradient_Swatch_2" /><linearGradient id="New_Gradient_Swatch_2-12" x1="238.61" y1="1310.63" x2="286.07" y2="1472.99" xlink:href="#New_Gradient_Swatch_2" /><linearGradient id="linear-gradient-25" x1="-620.67" y1="1714.33" x2="-671.27" y2="1542.8" gradientTransform="translate(805.58 -1040.76)" xlink:href="#linear-gradient-7" /><linearGradient id="linear-gradient-26" x1="-455.98" y1="1665.74" x2="-506.58" y2="1494.21" xlink:href="#linear-gradient-7" /><linearGradient id="linear-gradient-27" x1="-275.34" y1="1612.45" x2="-325.94" y2="1440.92" xlink:href="#linear-gradient-7" /><linearGradient id="linear-gradient-28" x1="-92.61" y1="1558.54" x2="-143.22" y2="1387.01" gradientTransform="translate(805.58 -1040.76)" xlink:href="#linear-gradient-7" /><linearGradient id="linear-gradient-29" x1="72.82" y1="1509.73" x2="22.22" y2="1338.21" gradientTransform="translate(805.58 -1040.76)" xlink:href="#linear-gradient-7" /><linearGradient id="linear-gradient-30" x1="275.88" y1="1449.83" x2="225.28" y2="1278.3" gradientTransform="translate(805.58 -1040.76)" xlink:href="#linear-gradient-7" /><linearGradient id="linear-gradient-31" x1="142.69" y1="500.81" x2="155.18" y2="594.51" xlink:href="#linear-gradient-13" /><linearGradient id="linear-gradient-32" x1="-485.31" y1="1522.28" x2="-472.82" y2="1615.98" xlink:href="#linear-gradient-13" /><linearGradient id="linear-gradient-33" x1="-296.86" y1="1497.16" x2="-284.37" y2="1590.86" xlink:href="#linear-gradient-13" /><linearGradient id="linear-gradient-34" x1="697.76" y1="426.8" x2="710.25" y2="520.5" xlink:href="#linear-gradient-13" /><linearGradient id="linear-gradient-35" x1="869.39" y1="403.91" x2="881.89" y2="497.62" xlink:href="#linear-gradient-13" /><linearGradient id="linear-gradient-36" x1="1080.06" y1="375.82" x2="1092.55" y2="469.53" xlink:href="#linear-gradient-13" /></defs><path d="M-697.72,1296.14l165.13-30.87q12.75-2.38,18.82,4.18t3.12,19.88l-20.46,98.09a44.08,44.08,0,0,1-12,23,41.41,41.41,0,0,1-22.39,11.89l-71.15,13.31-11.85,58.83-62.26,11.64,36.17-176.92Zm71.45,87.43,29.35-5.48q8.29-1.56,10.38-10.24l7.41-35.48q.89-4-.89-5.91t-5.64-1.17l-29.64,5.54Z" transform="translate(805.58 -1045.15)" style="fill:none;stroke:#75c043;stroke-linecap:round;stroke-linejoin:round;stroke-width:74.6210559288025px" /><path d="M-416.68,1243.6l-33.5,163.68,65.22-12.2-10.67,52.1L-523.11,1471l44.47-215.83Z" transform="translate(805.58 -1045.15)" style="fill:none;stroke:#75c043;stroke-linecap:round;stroke-linejoin:round;stroke-width:74.6210559288025px" /><path d="M-336,1436l-43,8,92.49-224.81,82.71-15.47-.89,207.69-62,11.58v-33.5l-54.54,10.2Zm32.61-79.91,37.06-6.93v-83.9Z" transform="translate(805.58 -1045.15)" style="fill:none;stroke:#75c043;stroke-linecap:round;stroke-linejoin:round;stroke-width:74.6210559288025px" /><path d="M-16.77,1376.35l-62,11.58L-119,1269.48l-26.68,131-42.69,8,44.17-214-.6-1.67,61.37-11.47,40.91,119.53,27.27-132.28,42.4-7.92Z" transform="translate(805.58 -1045.15)" style="fill:none;stroke:#75c043;stroke-linecap:round;stroke-linejoin:round;stroke-width:74.6210559288025px" /><path d="M10.21,1371.31l44.47-215.83,140.81-26.33-10.67,52.1L105.67,1196,100,1223.78l64.33-12-8.59,41.92-64.33,12-8.6,41.93,78.86-14.75L151,1345Z" transform="translate(805.58 -1045.15)" style="fill:none;stroke:#75c043;stroke-linecap:round;stroke-linejoin:round;stroke-width:74.6210559288025px" /><path d="M219.8,1174.71l-30.54-44.4,207.23-38.74-10.68,52.1-58.4,10.92-33.5,163.68-62,11.58,33.8-163.73Z" transform="translate(805.58 -1045.15)" style="fill:none;stroke:#75c043;stroke-linecap:round;stroke-linejoin:round;stroke-width:74.6210559288025px" /><path d="M-697.72,1284.83-532.59,1254q12.75-2.39,18.82,4.19t3.12,19.88l-20.46,98.09a44.12,44.12,0,0,1-12,23A41.54,41.54,0,0,1-565.5,1411l-71.15,13.3-11.85,58.84-62.26,11.64,36.17-176.93Zm71.45,87.44,29.35-5.49q8.29-1.54,10.38-10.24l7.41-35.47c.59-2.68.29-4.66-.89-5.92s-3.07-1.65-5.64-1.17l-29.64,5.55Z" transform="translate(805.58 -1045.15)" style="fill:none;stroke:#20255c;stroke-linecap:round;stroke-linejoin:round;stroke-width:70.2316199602127px" /><path d="M-416.68,1232.29-450.18,1396l65.22-12.19-10.67,52.09-127.48,23.84,44.47-215.83Z" transform="translate(805.58 -1045.15)" style="fill:none;stroke:#20255c;stroke-linecap:round;stroke-linejoin:round;stroke-width:70.2316199602127px" /><path d="M-336,1424.74l-43,8L-286.54,1208l82.71-15.46-.89,207.68-62,11.59v-33.5l-54.54,10.19Zm32.61-79.92,37.06-6.93V1254Z" transform="translate(805.58 -1045.15)" style="fill:none;stroke:#20255c;stroke-linecap:round;stroke-linejoin:round;stroke-width:70.2316199602127px" /><path d="M-16.77,1365l-62,11.59L-119,1258.17l-26.68,131-42.69,8,44.17-214-.6-1.67L-83.47,1170l40.91,119.53,27.27-132.28,42.4-7.93Z" transform="translate(805.58 -1045.15)" style="fill:none;stroke:#20255c;stroke-linecap:round;stroke-linejoin:round;stroke-width:70.2316199602127px" /><path d="M10.21,1360l44.47-215.83,140.81-26.32-10.67,52.09-79.15,14.8L100,1212.47l64.33-12-8.59,41.92-64.33,12-8.6,41.92,78.86-14.74L151,1333.68Z" transform="translate(805.58 -1045.15)" style="fill:none;stroke:#20255c;stroke-linecap:round;stroke-linejoin:round;stroke-width:70.2316199602127px" /><path d="M219.8,1163.4,189.26,1119l207.23-38.74-10.68,52.09-58.4,10.92L293.91,1307l-62,11.58,33.8-163.73Z" transform="translate(805.58 -1045.15)" style="fill:none;stroke:#20255c;stroke-linecap:round;stroke-linejoin:round;stroke-width:70.2316199602127px" /><g style="opacity:0.2"><path d="M-697.72,1289.07l165.13-30.87q12.75-2.39,18.82,4.19t3.12,19.87l-20.46,98.1a44.12,44.12,0,0,1-12,23,41.54,41.54,0,0,1-22.39,11.89l-71.15,13.3-11.85,58.84L-710.76,1499l36.17-176.93Zm71.45,87.44,29.35-5.49q8.29-1.55,10.38-10.24l7.41-35.48c.59-2.67.29-4.65-.89-5.91s-3.07-1.65-5.64-1.17l-29.64,5.55Z" transform="translate(805.58 -1045.15)" style="fill:none;stroke:#010101;stroke-linecap:round;stroke-linejoin:round;stroke-width:43.8946819172859px" /><path d="M-416.68,1236.53l-33.5,163.68L-385,1388l-10.67,52.09L-523.11,1464l44.47-215.83Z" transform="translate(805.58 -1045.15)" style="fill:none;stroke:#010101;stroke-linecap:round;stroke-linejoin:round;stroke-width:43.8946819172859px" /><path d="M-336,1429l-43,8,92.49-224.81,82.71-15.46-.89,207.68-62,11.58v-33.49l-54.54,10.19Zm32.61-79.91,37.06-6.93v-83.89Z" transform="translate(805.58 -1045.15)" style="fill:none;stroke:#010101;stroke-linecap:round;stroke-linejoin:round;stroke-width:43.8946819172859px" /><path d="M-16.77,1369.28l-62,11.59L-119,1262.41l-26.68,131-42.69,8,44.17-214-.6-1.67,61.37-11.47,40.91,119.53,27.27-132.28,42.4-7.93Z" transform="translate(805.58 -1045.15)" style="fill:none;stroke:#010101;stroke-linecap:round;stroke-linejoin:round;stroke-width:43.8946819172859px" /><path d="M10.21,1364.24l44.47-215.83,140.81-26.33-10.67,52.1L105.67,1189,100,1216.71l64.33-12-8.59,41.92-64.33,12-8.6,41.92,78.86-14.74L151,1337.91Z" transform="translate(805.58 -1045.15)" style="fill:none;stroke:#010101;stroke-linecap:round;stroke-linejoin:round;stroke-width:43.8946819172859px" /><path d="M219.8,1167.64l-30.54-44.39,207.23-38.74-10.68,52.09-58.4,10.92-33.5,163.68-62,11.58,33.8-163.73Z" transform="translate(805.58 -1045.15)" style="fill:none;stroke:#010101;stroke-linecap:round;stroke-linejoin:round;stroke-width:43.8946819172859px" /></g><path d="M-697.72,1289.07l165.13-30.87q12.75-2.39,18.82,4.19t3.12,19.87l-20.46,98.1a44.12,44.12,0,0,1-12,23,41.54,41.54,0,0,1-22.39,11.89l-71.15,13.3-11.85,58.84L-710.76,1499l36.17-176.93Zm71.45,87.44,29.35-5.49q8.29-1.55,10.38-10.24l7.41-35.48c.59-2.67.29-4.65-.89-5.91s-3.07-1.65-5.64-1.17l-29.64,5.55Z" transform="translate(805.58 -1045.15)" style="fill:none;stroke:#22245a;stroke-linecap:round;stroke-linejoin:round;stroke-width:35.1158099801064px" /><path d="M-416.68,1236.53l-33.5,163.68L-385,1388l-10.67,52.09L-523.11,1464l44.47-215.83Z" transform="translate(805.58 -1045.15)" style="fill:none;stroke:#22245a;stroke-linecap:round;stroke-linejoin:round;stroke-width:35.1158099801064px" /><path d="M-336,1429l-43,8,92.49-224.81,82.71-15.46-.89,207.68-62,11.58v-33.49l-54.54,10.19Zm32.61-79.91,37.06-6.93v-83.89Z" transform="translate(805.58 -1045.15)" style="fill:none;stroke:#22245a;stroke-linecap:round;stroke-linejoin:round;stroke-width:35.1158099801064px" /><path d="M-16.77,1369.28l-62,11.59L-119,1262.41l-26.68,131-42.69,8,44.17-214-.6-1.67,61.37-11.47,40.91,119.53,27.27-132.28,42.4-7.93Z" transform="translate(805.58 -1045.15)" style="fill:none;stroke:#22245a;stroke-linecap:round;stroke-linejoin:round;stroke-width:35.1158099801064px" /><path d="M10.21,1364.24l44.47-215.83,140.81-26.33-10.67,52.1L105.67,1189,100,1216.71l64.33-12-8.59,41.92-64.33,12-8.6,41.92,78.86-14.74L151,1337.91Z" transform="translate(805.58 -1045.15)" style="fill:none;stroke:#22245a;stroke-linecap:round;stroke-linejoin:round;stroke-width:35.1158099801064px" /><path d="M219.8,1167.64l-30.54-44.39,207.23-38.74-10.68,52.09-58.4,10.92-33.5,163.68-62,11.58,33.8-163.73Z" transform="translate(805.58 -1045.15)" style="fill:none;stroke:#22245a;stroke-linecap:round;stroke-linejoin:round;stroke-width:35.1158099801064px" /><path d="M-697.72,1280.59l165.13-30.87q12.75-2.37,18.82,4.19t3.12,19.88l-20.46,98.09a44.12,44.12,0,0,1-12,23,41.54,41.54,0,0,1-22.39,11.89l-71.15,13.3-11.85,58.84-62.26,11.64,36.17-176.93Zm71.45,87.44,29.35-5.49q8.29-1.55,10.38-10.24l7.41-35.47q.89-4-.89-5.92c-1.19-1.26-3.07-1.64-5.64-1.16l-29.64,5.54Z" transform="translate(805.58 -1045.15)" style="fill:none;stroke:#4a5aa8;stroke-linecap:round;stroke-linejoin:round;stroke-width:35.1158099801064px" /><path d="M-416.68,1228.05l-33.5,163.68,65.22-12.19-10.67,52.1-127.48,23.83,44.47-215.83Z" transform="translate(805.58 -1045.15)" style="fill:none;stroke:#4a5aa8;stroke-linecap:round;stroke-linejoin:round;stroke-width:35.1158099801064px" /><path d="M-336,1420.5l-43,8,92.49-224.81,82.71-15.46-.89,207.68-62,11.59V1374l-54.54,10.2Zm32.61-79.92,37.06-6.92v-83.9Z" transform="translate(805.58 -1045.15)" style="fill:none;stroke:#4a5aa8;stroke-linecap:round;stroke-linejoin:round;stroke-width:35.1158099801064px" /><path d="M-16.77,1360.81l-62,11.58L-119,1253.93l-26.68,131-42.69,8,44.17-214-.6-1.67,61.37-11.47,40.91,119.53L-15.29,1153l42.4-7.92Z" transform="translate(805.58 -1045.15)" style="fill:none;stroke:#4a5aa8;stroke-linecap:round;stroke-linejoin:round;stroke-width:35.1158099801064px" /><path d="M10.21,1355.76l44.47-215.83,140.81-26.32-10.67,52.09-79.15,14.8L100,1208.23l64.33-12-8.59,41.92-64.33,12-8.6,41.92,78.86-14.74L151,1329.44Z" transform="translate(805.58 -1045.15)" style="fill:none;stroke:#4a5aa8;stroke-linecap:round;stroke-linejoin:round;stroke-width:35.1158099801064px" /><path d="M219.8,1159.16l-30.54-44.39L396.49,1076l-10.68,52.09L327.41,1139l-33.5,163.68-62,11.59,33.8-163.74Z" transform="translate(805.58 -1045.15)" style="fill:none;stroke:#4a5aa8;stroke-linecap:round;stroke-linejoin:round;stroke-width:35.1158099801064px" /><path d="M-697.72,1282l165.13-30.87q12.75-2.39,18.82,4.18t3.12,19.88l-20.46,98.09a44.08,44.08,0,0,1-12,23,41.41,41.41,0,0,1-22.39,11.89l-71.15,13.31-11.85,58.83L-710.76,1492-674.59,1315Zm71.45,87.43,29.35-5.48q8.29-1.56,10.38-10.24l7.41-35.48q.89-4-.89-5.91t-5.64-1.17l-29.64,5.54Z" transform="translate(805.58 -1045.15)" style="fill:none;stroke:#3654a5;stroke-linecap:round;stroke-linejoin:round;stroke-width:30.7263740115166px" /><path d="M-416.68,1229.47l-33.5,163.68L-385,1381l-10.67,52.1-127.48,23.83,44.47-215.83Z" transform="translate(805.58 -1045.15)" style="fill:none;stroke:#3654a5;stroke-linecap:round;stroke-linejoin:round;stroke-width:30.7263740115166px" /><path d="M-336,1421.91l-43,8,92.49-224.81,82.71-15.47-.89,207.69-62,11.58v-33.5l-54.54,10.2Zm32.61-79.91,37.06-6.93v-83.9Z" transform="translate(805.58 -1045.15)" style="fill:none;stroke:#3654a5;stroke-linecap:round;stroke-linejoin:round;stroke-width:30.7263740115166px" /><path d="M-16.77,1362.22l-62,11.58L-119,1255.35l-26.68,131-42.69,8,44.17-214-.6-1.67,61.37-11.47,40.91,119.53,27.27-132.28,42.4-7.92Z" transform="translate(805.58 -1045.15)" style="fill:none;stroke:#3654a5;stroke-linecap:round;stroke-linejoin:round;stroke-width:30.7263740115166px" /><path d="M10.21,1357.18l44.47-215.83L195.49,1115l-10.67,52.1-79.15,14.79L100,1209.65l64.33-12-8.59,41.92-64.33,12-8.6,41.93,78.86-14.75L151,1330.85Z" transform="translate(805.58 -1045.15)" style="fill:none;stroke:#3654a5;stroke-linecap:round;stroke-linejoin:round;stroke-width:30.7263740115166px" /><path d="M219.8,1160.58l-30.54-44.4,207.23-38.74-10.68,52.1-58.4,10.92-33.5,163.68-62,11.58L265.75,1152Z" transform="translate(805.58 -1045.15)" style="fill:none;stroke:#3654a5;stroke-linecap:round;stroke-linejoin:round;stroke-width:30.7263740115166px" /><path d="M-676.93,1319.91l-24.54-35,168.48-31.5a36.37,36.37,0,0,1,6.71-.67c6,0,10.73,1.86,14.12,5.52,4.55,4.93,5.78,12.28,3.65,21.85L-529,1378.13a46.39,46.39,0,0,1-12.59,24.09,43.81,43.81,0,0,1-23.54,12.51l-69.7,13-11.85,58.84-66.92,12.51Zm53.48,51.16,26.13-4.88c4.7-.88,7.45-3.61,8.64-8.59l7.4-35.42c.3-1.34.47-3.09-.34-4a2.53,2.53,0,0,0-2.07-.68,9.27,9.27,0,0,0-1.56.16l-28.2,5.28Z" transform="translate(805.58 -1045.15)" style="fill:#44b872" /><polygon points="325.09 198.4 391.7 185.95 358.2 349.63 423.42 337.43 411.8 394.17 279.66 418.88 325.09 198.4" style="fill:#44b872" /><path d="M-288.12,1207.59l86.5-16.17-.91,212.15-66.34,12.4v-33.5l-50.78,9.5-14.82,36.27-48.13,9Zm-11.76,135.9,31.3-5.85v-70.89Z" transform="translate(805.58 -1045.15)" style="fill:#44b872" /><polygon points="659.06 139.71 657.82 136.2 723.57 123.9 762.49 237.62 788.44 111.78 835.49 102.98 790.67 323.34 725.39 335.55 687.07 222.96 661.71 347.45 614.35 356.3 659.06 139.71" style="fill:#44b872" /><polygon points="858.4 98.7 1003.88 71.5 992.25 128.24 913.1 143.04 908.41 166.13 972.75 154.1 963.2 200.67 898.87 212.69 891.23 249.98 970.08 235.23 958.46 291.97 812.98 319.17 858.4 98.7" style="fill:#44b872" /><polygon points="1068.52 113.98 1024.38 122.23 991.12 73.88 1204.87 33.92 1193.25 90.66 1134.85 101.58 1101.35 265.26 1034.72 277.71 1068.52 113.98" style="fill:#44b872" /><path d="M-676.93,1313.33l-24.54-35,168.48-31.5a37.26,37.26,0,0,1,6.71-.67c6,0,10.73,1.86,14.12,5.53,4.55,4.92,5.78,12.27,3.65,21.84L-529,1371.55a46.47,46.47,0,0,1-12.59,24.09,44,44,0,0,1-23.54,12.51l-69.7,13L-646.64,1480l-66.92,12.51Zm53.48,51.16,26.13-4.88c4.7-.88,7.45-3.62,8.64-8.6l7.4-35.41c.3-1.35.47-3.1-.34-4a2.53,2.53,0,0,0-2.07-.68,8.34,8.34,0,0,0-1.56.16l-28.2,5.27Z" transform="translate(805.58 -1045.15)" style="fill:url(#linear-gradient)" /><polygon points="325.09 191.82 391.7 179.36 358.2 343.04 423.42 330.85 411.8 387.59 279.66 412.29 325.09 191.82" style="fill:url(#linear-gradient-2)" /><path d="M-288.12,1201l86.5-16.17-.91,212.16-66.34,12.4v-33.5l-50.78,9.49-14.82,36.27-48.13,9Zm-11.76,135.9,31.3-5.85v-70.88Z" transform="translate(805.58 -1045.15)" style="fill:url(#linear-gradient-3)" /><polygon points="659.06 133.12 657.82 129.61 723.57 117.32 762.49 231.04 788.44 105.19 835.49 96.4 790.67 316.76 725.39 328.96 687.07 216.38 661.71 340.87 614.35 349.72 659.06 133.12" style="fill:url(#linear-gradient-4)" /><polygon points="858.4 92.11 1003.88 64.92 992.25 121.65 913.1 136.45 908.41 159.54 972.75 147.52 963.2 194.08 898.87 206.11 891.23 243.39 970.08 228.65 958.46 285.39 812.98 312.59 858.4 92.11" style="fill:url(#linear-gradient-5)" /><polygon points="1068.52 107.4 1024.38 115.65 991.12 67.3 1204.87 27.34 1193.25 84.08 1134.85 95 1101.35 258.67 1034.72 271.13 1068.52 107.4" style="fill:url(#linear-gradient-6)" /><path d="M-697.72,1282l165.13-30.87q12.75-2.39,18.82,4.18t3.12,19.88l-20.46,98.09a44.08,44.08,0,0,1-12,23,41.41,41.41,0,0,1-22.39,11.89l-71.15,13.31-11.85,58.83L-710.76,1492-674.59,1315Zm71.45,87.43,29.35-5.48q8.29-1.56,10.38-10.24l7.41-35.48q.89-4-.89-5.91t-5.64-1.17l-29.64,5.54Z" transform="translate(805.58 -1045.15)" style="fill:url(#New_Gradient_Swatch_2)" /><path d="M-416.68,1229.47l-33.5,163.68L-385,1381l-10.67,52.1-127.48,23.83,44.47-215.83Z" transform="translate(805.58 -1045.15)" style="fill:url(#New_Gradient_Swatch_2-2)" /><path d="M-336,1421.91l-43,8,92.49-224.81,82.71-15.47-.89,207.69-62,11.58v-33.5l-54.54,10.2Zm32.61-79.91,37.06-6.93v-83.9Z" transform="translate(805.58 -1045.15)" style="fill:url(#New_Gradient_Swatch_2-3)" /><path d="M-16.77,1362.22l-62,11.58L-119,1255.35l-26.68,131-42.69,8,44.17-214-.6-1.67,61.37-11.47,40.91,119.53,27.27-132.28,42.4-7.92Z" transform="translate(805.58 -1045.15)" style="fill:url(#New_Gradient_Swatch_2-4)" /><path d="M10.21,1357.18l44.47-215.83L195.49,1115l-10.67,52.1-79.15,14.79L100,1209.65l64.33-12-8.59,41.92-64.33,12-8.6,41.93,78.86-14.75L151,1330.85Z" transform="translate(805.58 -1045.15)" style="fill:url(#New_Gradient_Swatch_2-5)" /><path d="M219.8,1160.58l-30.54-44.4,207.23-38.74-10.68,52.1-58.4,10.92-33.5,163.68-62,11.58L265.75,1152Z" transform="translate(805.58 -1045.15)" style="fill:url(#New_Gradient_Swatch_2-6)" /><path d="M-665.23,1317.48l-17.48-25L-531,1264.15a26,26,0,0,1,4.7-.48c3.78,0,5.27,1.15,6.07,2,2.44,2.63,1.88,8,1,12l-20.48,98.21a35.22,35.22,0,0,1-9.66,18.62,32.55,32.55,0,0,1-17.75,9.43l-77,14.39-11.86,58.84-43.61,8.15Zm81.54-10.91a19.71,19.71,0,0,0-3.58.35l-35.43,6.62-14.83,71.33,42.22-7.89c9-1.68,15.11-7.66,17.3-16.83l.06-.25,7.4-35.43c1.54-7-.82-11.37-3.08-13.77A13.37,13.37,0,0,0-583.69,1306.57Z" transform="translate(805.58 -1045.15)" style="fill:url(#linear-gradient-7)" /><polygon points="334.35 207.83 377.68 199.73 344.18 363.41 409.4 351.22 402.53 384.74 293.71 405.09 334.35 207.83" style="fill:url(#linear-gradient-8)" /><path d="M-280.24,1217.28l67.59-12.64-.82,189.81-44.43,8.31v-33.5l-69.64,13-14.82,36.27-22.41,4.19ZM-317.65,1358l60-11.22v-91.19l-16.91-3.32Z" transform="translate(805.58 -1045.15)" style="fill:url(#linear-gradient-9)" /><polygon points="669.12 145.25 716.26 136.43 765.13 279.2 797.7 121.21 821.49 116.76 781.39 313.91 732.71 323.01 684.4 181.07 652.43 338.02 628.41 342.51 669.12 145.25" style="fill:url(#linear-gradient-10)" /><polygon points="867.66 108.13 989.85 85.28 982.98 118.81 903.82 133.61 894.42 179.91 958.72 167.89 953.93 191.24 889.6 203.26 877.2 263.76 956.06 249.02 949.19 282.54 827.02 305.38 867.66 108.13" style="fill:url(#linear-gradient-11)" /><polygon points="1082.57 100.19 1029.38 110.13 1009.73 81.57 1190.85 47.71 1183.98 81.23 1125.57 92.15 1092.08 255.83 1048.77 263.92 1082.57 100.19" style="fill:url(#linear-gradient-12)" /><path d="M-665.23,1310.9l-17.48-25L-531,1257.57a26,26,0,0,1,4.7-.48c3.78,0,5.27,1.14,6.07,2,2.44,2.64,1.88,8,1,12l-20.48,98.21a35.25,35.25,0,0,1-9.66,18.62,32.62,32.62,0,0,1-17.75,9.43l-77,14.39-11.86,58.84-43.61,8.15Zm81.54-10.91a19.67,19.67,0,0,0-3.58.34L-622.7,1307l-14.83,71.33,42.22-7.9c9-1.67,15.11-7.65,17.3-16.83l.06-.24,7.4-35.43c1.54-7-.82-11.37-3.08-13.77A13.33,13.33,0,0,0-583.69,1300Z" transform="translate(805.58 -1045.15)" style="fill:#fff" /><polygon points="334.35 201.25 377.68 193.15 344.18 356.83 409.4 344.63 402.53 378.16 293.71 398.5 334.35 201.25" style="fill:#fff" /><path d="M-280.24,1210.69l67.59-12.63-.82,189.81-44.43,8.3v-33.5l-69.64,13L-342.36,1412l-22.41,4.19Zm-37.41,140.7,60-11.23V1249l-16.91-3.32Z" transform="translate(805.58 -1045.15)" style="fill:#fff" /><polygon points="669.12 138.66 716.26 129.85 765.13 272.62 797.7 114.62 821.49 110.18 781.39 307.33 732.71 316.43 684.4 174.49 652.43 331.44 628.41 335.93 669.12 138.66" style="fill:#fff" /><polygon points="867.66 101.54 989.85 78.7 982.98 112.22 903.82 127.02 894.42 173.32 958.72 161.3 953.93 184.65 889.6 196.68 877.2 257.18 956.06 242.44 949.19 275.96 827.02 298.8 867.66 101.54" style="fill:#fff" /><polygon points="1082.57 93.61 1029.38 103.55 1009.73 74.98 1190.85 41.12 1183.98 74.65 1125.57 85.57 1092.08 249.24 1048.77 257.34 1082.57 93.61" style="fill:#fff" /><path d="M-665.23,1313.1l-17.48-25L-531,1259.77a25.21,25.21,0,0,1,4.7-.49c3.78,0,5.27,1.15,6.07,2,2.44,2.63,1.88,8,1,12l-20.48,98.21a35.18,35.18,0,0,1-9.66,18.62,32.55,32.55,0,0,1-17.75,9.43l-77,14.39-11.86,58.84-43.61,8.16Zm81.54-10.92a19.71,19.71,0,0,0-3.58.35l-35.43,6.62-14.83,71.33,42.22-7.89c9-1.68,15.11-7.66,17.3-16.83l.06-.25,7.4-35.43c1.54-7-.82-11.37-3.08-13.77A13.37,13.37,0,0,0-583.69,1302.18Z" transform="translate(805.58 -1045.15)" style="fill:url(#linear-gradient-13)" /><polygon points="334.35 203.44 377.68 195.34 344.18 359.02 409.4 346.83 402.53 380.35 293.71 400.7 334.35 203.44" style="fill:url(#linear-gradient-14)" /><path d="M-280.24,1212.89l67.59-12.64-.82,189.81-44.43,8.31v-33.5l-69.64,13-14.82,36.27-22.41,4.19Zm-37.41,140.69,60-11.22v-91.19l-16.91-3.31Z" transform="translate(805.58 -1045.15)" style="fill:url(#linear-gradient-15)" /><polygon points="669.12 140.86 716.26 132.04 765.13 274.81 797.7 116.82 821.49 112.37 781.39 309.52 732.71 318.62 684.4 176.68 652.43 333.63 628.41 338.12 669.12 140.86" style="fill:url(#linear-gradient-16)" /><polygon points="867.66 103.74 989.85 80.89 982.98 114.42 903.82 129.22 894.42 175.52 958.72 163.5 953.93 186.85 889.6 198.87 877.2 259.37 956.06 244.63 949.19 278.15 827.02 300.99 867.66 103.74" style="fill:url(#linear-gradient-17)" /><polygon points="1082.57 95.8 1029.38 105.74 1009.73 77.18 1190.85 43.32 1183.98 76.84 1125.57 87.76 1092.08 251.44 1048.77 259.53 1082.57 95.8" style="fill:url(#linear-gradient-18)" /><path d="M-737.73,1615.74l-30.54-44.39L-561,1532.61l-10.67,52.09-58.4,10.92-33.5,163.68-62,11.58,33.8-163.73Z" transform="translate(805.58 -1045.15)" style="fill:none;stroke:#75c043;stroke-linecap:round;stroke-linejoin:round;stroke-width:74.6210559288025px" /><path d="M-474.19,1516.37l-31.42,154.69q-.6,4,1,6c1.08,1.38,2.91,1.82,5.48,1.34l24.31-4.54a12.27,12.27,0,0,0,6.67-3.62,14.14,14.14,0,0,0,3.71-6.92L-433,1508.67l61.66-11.53-38.54,186.56a45.79,45.79,0,0,1-12.3,22.75,41,41,0,0,1-22.09,11.84l-108.5,20.28q-12.75,2.39-18.82-4.19t-3.11-19.87l30.23-147.65-23.12-33Z" transform="translate(805.58 -1045.15)" style="fill:none;stroke:#75c043;stroke-linecap:round;stroke-linejoin:round;stroke-width:74.6210559288025px" /><path d="M-326,1696.17l-62.26,11.64L-343.75,1492l133.7-25q12.75-2.38,18.83,4.18t3.11,19.88l-16.9,81.72a43.91,43.91,0,0,1-12,22.7,41,41,0,0,1-22.09,11.83l-.59.12,16.3,69.58-62.25,11.64-15.42-69.75-9.78,1.83Zm23.72-117.38,29.35-5.48q8.29-1.56,10.37-10.24l5.93-29c.59-2.68.3-4.65-.89-5.91s-3.07-1.65-5.63-1.17l-29.65,5.54Z" transform="translate(805.58 -1045.15)" style="fill:none;stroke:#75c043;stroke-linecap:round;stroke-linejoin:round;stroke-width:74.6210559288025px" /><path d="M-133.86,1660.26l-62.26,11.64,44.47-215.83L-90,1444.54l-16.89,82.31,48-88.13L2.8,1427.19l-66.4,122.4,32.31,91.5-62.25,11.63-24.31-71Z" transform="translate(805.58 -1045.15)" style="fill:none;stroke:#75c043;stroke-linecap:round;stroke-linejoin:round;stroke-width:74.6210559288025px" /><path d="M-21.51,1639.26,23,1423.43l140.82-26.33-10.68,52.1L74,1464l-5.63,27.74,64.33-12-8.6,41.93-64.33,12-8.6,41.93L130,1560.83l-10.67,52.1Z" transform="translate(805.58 -1045.15)" style="fill:none;stroke:#75c043;stroke-linecap:round;stroke-linejoin:round;stroke-width:74.6210559288025px" /><path d="M196.68,1598.46l12.16-56.52-23.42-148.89,62-11.58,16.31,84.11,63.74-99.07,43-8-97.23,159.29-14.53,69.12Z" transform="translate(805.58 -1045.15)" style="fill:none;stroke:#75c043;stroke-linecap:round;stroke-linejoin:round;stroke-width:74.6210559288025px" /><path d="M-737.73,1604.44l-30.54-44.39L-561,1521.3l-10.67,52.1-58.4,10.92L-663.62,1748l-62,11.58,33.8-163.73Z" transform="translate(805.58 -1045.15)" style="fill:none;stroke:#20255c;stroke-linecap:round;stroke-linejoin:round;stroke-width:70.2316199602127px" /><path d="M-474.19,1505.07l-31.42,154.69q-.6,4,1,6t5.48,1.35l24.31-4.55a12.21,12.21,0,0,0,6.67-3.62,14.11,14.11,0,0,0,3.71-6.91l31.42-154.7,61.66-11.53-38.54,186.56a45.82,45.82,0,0,1-12.3,22.76A40.94,40.94,0,0,1-444.25,1707l-108.5,20.29q-12.75,2.38-18.82-4.19t-3.11-19.87l30.23-147.66-23.12-33Z" transform="translate(805.58 -1045.15)" style="fill:none;stroke:#20255c;stroke-linecap:round;stroke-linejoin:round;stroke-width:70.2316199602127px" /><path d="M-326,1684.87l-62.26,11.64,44.47-215.83,133.7-25q12.75-2.37,18.83,4.19t3.11,19.87l-16.9,81.72a43.87,43.87,0,0,1-12,22.7A41,41,0,0,1-239.1,1596l-.59.11,16.3,69.58-62.25,11.64-15.42-69.75-9.78,1.83Zm23.72-117.38,29.35-5.49q8.29-1.55,10.37-10.24l5.93-29c.59-2.67.3-4.64-.89-5.91s-3.07-1.64-5.63-1.17l-29.65,5.55Z" transform="translate(805.58 -1045.15)" style="fill:none;stroke:#20255c;stroke-linecap:round;stroke-linejoin:round;stroke-width:70.2316199602127px" /><path d="M-133.86,1649l-62.26,11.64,44.47-215.83L-90,1433.24l-16.89,82.31,48-88.13L2.8,1415.89l-66.4,122.4,32.31,91.49-62.25,11.64-24.31-71.05Z" transform="translate(805.58 -1045.15)" style="fill:none;stroke:#20255c;stroke-linecap:round;stroke-linejoin:round;stroke-width:70.2316199602127px" /><path d="M-21.51,1628,23,1412.12l140.82-26.32-10.68,52.09L74,1452.69l-5.63,27.73,64.33-12-8.6,41.92-64.33,12-8.6,41.92L130,1549.53l-10.67,52.1Z" transform="translate(805.58 -1045.15)" style="fill:none;stroke:#20255c;stroke-linecap:round;stroke-linejoin:round;stroke-width:70.2316199602127px" /><path d="M196.68,1587.16l12.16-56.52-23.42-148.89,62-11.58,16.31,84.11,63.74-99.08,43-8-97.23,159.29-14.53,69.12Z" transform="translate(805.58 -1045.15)" style="fill:none;stroke:#20255c;stroke-linecap:round;stroke-linejoin:round;stroke-width:70.2316199602127px" /><g style="opacity:0.2"><path d="M-737.73,1608.68l-30.54-44.4L-561,1525.54l-10.67,52.1-58.4,10.92-33.5,163.68-62,11.58,33.8-163.73Z" transform="translate(805.58 -1045.15)" style="fill:none;stroke:#010101;stroke-linecap:round;stroke-linejoin:round;stroke-width:43.8946819172859px" /><path d="M-474.19,1509.31-505.61,1664q-.6,4,1,6t5.48,1.35l24.31-4.55a12.21,12.21,0,0,0,6.67-3.62,14.11,14.11,0,0,0,3.71-6.91L-433,1501.6l61.66-11.53-38.54,186.56a45.82,45.82,0,0,1-12.3,22.76,40.94,40.94,0,0,1-22.09,11.83l-108.5,20.29q-12.75,2.38-18.82-4.19t-3.11-19.87l30.23-147.66-23.12-33Z" transform="translate(805.58 -1045.15)" style="fill:none;stroke:#010101;stroke-linecap:round;stroke-linejoin:round;stroke-width:43.8946819172859px" /><path d="M-326,1689.11l-62.26,11.64,44.47-215.83,133.7-25q12.75-2.39,18.83,4.19t3.11,19.87L-205,1565.7a43.87,43.87,0,0,1-12,22.7,41,41,0,0,1-22.09,11.84l-.59.11,16.3,69.58-62.25,11.64-15.42-69.75-9.78,1.83Zm23.72-117.38,29.35-5.49q8.29-1.54,10.37-10.24l5.93-29c.59-2.67.3-4.65-.89-5.91s-3.07-1.65-5.63-1.17l-29.65,5.55Z" transform="translate(805.58 -1045.15)" style="fill:none;stroke:#010101;stroke-linecap:round;stroke-linejoin:round;stroke-width:43.8946819172859px" /><path d="M-133.86,1653.2l-62.26,11.63L-151.65,1449-90,1437.48l-16.89,82.31,48-88.13L2.8,1420.13l-66.4,122.4L-31.29,1634l-62.25,11.64-24.31-71.05Z" transform="translate(805.58 -1045.15)" style="fill:none;stroke:#010101;stroke-linecap:round;stroke-linejoin:round;stroke-width:43.8946819172859px" /><path d="M-21.51,1632.19,23,1416.36,163.78,1390l-10.68,52.1L74,1456.93l-5.63,27.73,64.33-12-8.6,41.92-64.33,12-8.6,41.92L130,1553.77l-10.67,52.09Z" transform="translate(805.58 -1045.15)" style="fill:none;stroke:#010101;stroke-linecap:round;stroke-linejoin:round;stroke-width:43.8946819172859px" /><path d="M196.68,1591.4l12.16-56.52L185.42,1386l62-11.58,16.31,84.1,63.74-99.07,43-8L273.17,1510.7l-14.53,69.12Z" transform="translate(805.58 -1045.15)" style="fill:none;stroke:#010101;stroke-linecap:round;stroke-linejoin:round;stroke-width:43.8946819172859px" /></g><path d="M-737.73,1608.68l-30.54-44.4L-561,1525.54l-10.67,52.1-58.4,10.92-33.5,163.68-62,11.58,33.8-163.73Z" transform="translate(805.58 -1045.15)" style="fill:none;stroke:#22245a;stroke-linecap:round;stroke-linejoin:round;stroke-width:35.1158099801064px" /><path d="M-474.19,1509.31-505.61,1664q-.6,4,1,6t5.48,1.35l24.31-4.55a12.21,12.21,0,0,0,6.67-3.62,14.11,14.11,0,0,0,3.71-6.91L-433,1501.6l61.66-11.53-38.54,186.56a45.82,45.82,0,0,1-12.3,22.76,40.94,40.94,0,0,1-22.09,11.83l-108.5,20.29q-12.75,2.38-18.82-4.19t-3.11-19.87l30.23-147.66-23.12-33Z" transform="translate(805.58 -1045.15)" style="fill:none;stroke:#22245a;stroke-linecap:round;stroke-linejoin:round;stroke-width:35.1158099801064px" /><path d="M-326,1689.11l-62.26,11.64,44.47-215.83,133.7-25q12.75-2.39,18.83,4.19t3.11,19.87L-205,1565.7a43.87,43.87,0,0,1-12,22.7,41,41,0,0,1-22.09,11.84l-.59.11,16.3,69.58-62.25,11.64-15.42-69.75-9.78,1.83Zm23.72-117.38,29.35-5.49q8.29-1.54,10.37-10.24l5.93-29c.59-2.67.3-4.65-.89-5.91s-3.07-1.65-5.63-1.17l-29.65,5.55Z" transform="translate(805.58 -1045.15)" style="fill:none;stroke:#22245a;stroke-linecap:round;stroke-linejoin:round;stroke-width:35.1158099801064px" /><path d="M-133.86,1653.2l-62.26,11.63L-151.65,1449-90,1437.48l-16.89,82.31,48-88.13L2.8,1420.13l-66.4,122.4L-31.29,1634l-62.25,11.64-24.31-71.05Z" transform="translate(805.58 -1045.15)" style="fill:none;stroke:#22245a;stroke-linecap:round;stroke-linejoin:round;stroke-width:35.1158099801064px" /><path d="M-21.51,1632.19,23,1416.36,163.78,1390l-10.68,52.1L74,1456.93l-5.63,27.73,64.33-12-8.6,41.92-64.33,12-8.6,41.92L130,1553.77l-10.67,52.09Z" transform="translate(805.58 -1045.15)" style="fill:none;stroke:#22245a;stroke-linecap:round;stroke-linejoin:round;stroke-width:35.1158099801064px" /><path d="M196.68,1591.4l12.16-56.52L185.42,1386l62-11.58,16.31,84.1,63.74-99.07,43-8L273.17,1510.7l-14.53,69.12Z" transform="translate(805.58 -1045.15)" style="fill:none;stroke:#22245a;stroke-linecap:round;stroke-linejoin:round;stroke-width:35.1158099801064px" /><path d="M-737.73,1600.2l-30.54-44.39L-561,1517.07l-10.67,52.09-58.4,10.92-33.5,163.68-62,11.58,33.8-163.73Z" transform="translate(805.58 -1045.15)" style="fill:none;stroke:#4a5aa8;stroke-linecap:round;stroke-linejoin:round;stroke-width:35.1158099801064px" /><path d="M-474.19,1500.83l-31.42,154.69q-.6,4,1,6t5.48,1.35l24.31-4.55a12.26,12.26,0,0,0,6.67-3.61,14.18,14.18,0,0,0,3.71-6.92l31.42-154.7,61.66-11.53-38.54,186.56a45.82,45.82,0,0,1-12.3,22.76,41,41,0,0,1-22.09,11.84L-552.75,1723q-12.75,2.38-18.82-4.19t-3.11-19.87l30.23-147.66-23.12-33Z" transform="translate(805.58 -1045.15)" style="fill:none;stroke:#4a5aa8;stroke-linecap:round;stroke-linejoin:round;stroke-width:35.1158099801064px" /><path d="M-326,1680.63l-62.26,11.64,44.47-215.83,133.7-25q12.75-2.37,18.83,4.19t3.11,19.88l-16.9,81.71a43.87,43.87,0,0,1-12,22.7,41,41,0,0,1-22.09,11.84l-.59.11,16.3,69.59-62.25,11.63-15.42-69.75-9.78,1.83Zm23.72-117.38,29.35-5.49q8.29-1.54,10.37-10.24l5.93-29c.59-2.68.3-4.65-.89-5.91s-3.07-1.65-5.63-1.17l-29.65,5.54Z" transform="translate(805.58 -1045.15)" style="fill:none;stroke:#4a5aa8;stroke-linecap:round;stroke-linejoin:round;stroke-width:35.1158099801064px" /><path d="M-133.86,1644.72l-62.26,11.64,44.47-215.83L-90,1429l-16.89,82.31,48-88.13L2.8,1411.65l-66.4,122.4,32.31,91.49-62.25,11.64-24.31-71Z" transform="translate(805.58 -1045.15)" style="fill:none;stroke:#4a5aa8;stroke-linecap:round;stroke-linejoin:round;stroke-width:35.1158099801064px" /><path d="M-21.51,1623.71,23,1407.88l140.82-26.32-10.68,52.09L74,1448.45l-5.63,27.73,64.33-12-8.6,41.92-64.33,12L51.12,1560,130,1545.29l-10.67,52.1Z" transform="translate(805.58 -1045.15)" style="fill:none;stroke:#4a5aa8;stroke-linecap:round;stroke-linejoin:round;stroke-width:35.1158099801064px" /><path d="M196.68,1582.92l12.16-56.52-23.42-148.89,62-11.58L263.68,1450,327.42,1351l43-8-97.23,159.29-14.53,69.12Z" transform="translate(805.58 -1045.15)" style="fill:none;stroke:#4a5aa8;stroke-linecap:round;stroke-linejoin:round;stroke-width:35.1158099801064px" /><path d="M-737.73,1601.61l-30.54-44.39L-561,1518.48l-10.67,52.09-58.4,10.92-33.5,163.68-62,11.58,33.8-163.73Z" transform="translate(805.58 -1045.15)" style="fill:none;stroke:#3654a5;stroke-linecap:round;stroke-linejoin:round;stroke-width:30.7263740115166px" /><path d="M-474.19,1502.24l-31.42,154.69q-.6,4,1,6c1.08,1.38,2.91,1.82,5.48,1.34l24.31-4.54a12.27,12.27,0,0,0,6.67-3.62,14.14,14.14,0,0,0,3.71-6.92L-433,1494.54l61.66-11.53-38.54,186.56a45.79,45.79,0,0,1-12.3,22.75,41,41,0,0,1-22.09,11.84l-108.5,20.28q-12.75,2.38-18.82-4.19t-3.11-19.87l30.23-147.65-23.12-33Z" transform="translate(805.58 -1045.15)" style="fill:none;stroke:#3654a5;stroke-linecap:round;stroke-linejoin:round;stroke-width:30.7263740115166px" /><path d="M-326,1682l-62.26,11.64,44.47-215.83,133.7-25q12.75-2.38,18.83,4.18t3.11,19.88l-16.9,81.72a43.91,43.91,0,0,1-12,22.7,41,41,0,0,1-22.09,11.83l-.59.12,16.3,69.58-62.25,11.64-15.42-69.75-9.78,1.83Zm23.72-117.38,29.35-5.48q8.29-1.56,10.37-10.24l5.93-29c.59-2.68.3-4.65-.89-5.91s-3.07-1.65-5.63-1.17l-29.65,5.54Z" transform="translate(805.58 -1045.15)" style="fill:none;stroke:#3654a5;stroke-linecap:round;stroke-linejoin:round;stroke-width:30.7263740115166px" /><path d="M-133.86,1646.13l-62.26,11.64,44.47-215.83L-90,1430.41l-16.89,82.31,48-88.13L2.8,1413.06l-66.4,122.4L-31.29,1627l-62.25,11.64-24.31-71Z" transform="translate(805.58 -1045.15)" style="fill:none;stroke:#3654a5;stroke-linecap:round;stroke-linejoin:round;stroke-width:30.7263740115166px" /><path d="M-21.51,1625.13,23,1409.3,163.78,1383l-10.68,52.1L74,1449.86l-5.63,27.74,64.33-12-8.6,41.92-64.33,12-8.6,41.93L130,1546.7l-10.67,52.1Z" transform="translate(805.58 -1045.15)" style="fill:none;stroke:#3654a5;stroke-linecap:round;stroke-linejoin:round;stroke-width:30.7263740115166px" /><path d="M196.68,1584.33l12.16-56.52-23.42-148.89,62-11.58,16.31,84.11,63.74-99.07,43-8-97.23,159.29-14.53,69.12Z" transform="translate(805.58 -1045.15)" style="fill:none;stroke:#3654a5;stroke-linecap:round;stroke-linejoin:round;stroke-width:30.7263740115166px" /><polygon points="110.98 555.01 66.85 563.27 33.59 514.92 247.34 474.96 235.71 531.7 177.31 542.62 143.81 706.29 77.19 718.75 110.98 555.01" style="fill:#44b872" /><path d="M-559.07,1731.66c-6,0-10.73-1.86-14.11-5.53-4.56-4.91-5.78-12.26-3.65-21.84l30-146.69-24.53-35,99.93-18.69-32.06,157.83c-.29,2-.09,3.43.6,4.29.15.2.55.7,1.91.7a7.93,7.93,0,0,0,1.45-.15l24.31-4.54a10.07,10.07,0,0,0,5.5-3,11.81,11.81,0,0,0,3.13-5.86L-434.84,1497l66.33-12.4-39.2,189.76a48.21,48.21,0,0,1-12.89,23.85,43.25,43.25,0,0,1-23.24,12.45L-552.34,1731A36.58,36.58,0,0,1-559.07,1731.66Z" transform="translate(805.58 -1045.15)" style="fill:#44b872" /><path d="M-345.6,1480.36l135.15-25.27a36.37,36.37,0,0,1,6.71-.67c6,0,10.74,1.86,14.13,5.52,4.55,4.93,5.77,12.28,3.64,21.84l-16.89,81.69a46.25,46.25,0,0,1-12.59,23.8A43.41,43.41,0,0,1-237,1599.38l16.31,69.61-66.6,12.45-15.41-69.75-6.24,1.17-15.12,75.46L-391,1700.83Zm46.16,85.93,26.14-4.88c4.71-.88,7.46-3.61,8.65-8.6l5.91-28.9c.3-1.35.48-3.1-.34-4a2.48,2.48,0,0,0-2.06-.68,8.43,8.43,0,0,0-1.57.17l-28.19,5.27Z" transform="translate(805.58 -1045.15)" style="fill:#44b872" /><polygon points="652.08 399.29 718.4 386.89 703.8 458 745.29 381.86 812.51 369.3 744.37 494.89 777.21 587.88 710.57 600.34 688.26 535.13 673.57 607.25 606.65 619.76 652.08 399.29" style="fill:#44b872" /><polygon points="826.69 366.65 972.16 339.45 960.54 396.19 881.39 410.99 876.7 434.08 941.03 422.05 931.48 468.62 867.15 480.64 859.51 517.93 938.37 503.18 926.74 559.92 781.26 587.12 826.69 366.65" style="fill:#44b872" /><polygon points="1012.18 486.99 988.5 336.4 1054.69 324.02 1070.37 404.9 1131.66 309.63 1180.42 300.51 1080.82 463.69 1066.07 533.88 999.42 546.34 1012.18 486.99" style="fill:#44b872" /><polygon points="110.98 548.43 66.85 556.68 33.59 508.33 247.34 468.37 235.71 525.11 177.31 536.03 143.81 699.71 77.19 712.16 110.98 548.43" style="fill:url(#linear-gradient-19)" /><path d="M-559.07,1725.08c-6,0-10.73-1.86-14.11-5.53-4.56-4.92-5.78-12.27-3.65-21.84l30-146.69-24.53-35,99.93-18.68-32.06,157.83c-.29,2-.09,3.42.6,4.29.15.19.55.7,1.91.7a7.93,7.93,0,0,0,1.45-.15l24.31-4.55a9.94,9.94,0,0,0,5.5-3,11.76,11.76,0,0,0,3.13-5.86l31.71-156.1,66.33-12.4-39.2,189.76a48.26,48.26,0,0,1-12.89,23.85,43.25,43.25,0,0,1-23.24,12.45l-108.5,20.29A37.47,37.47,0,0,1-559.07,1725.08Z" transform="translate(805.58 -1045.15)" style="fill:url(#linear-gradient-20)" /><path d="M-345.6,1473.77l135.15-25.26a36.43,36.43,0,0,1,6.71-.68c6,0,10.74,1.86,14.13,5.53,4.55,4.93,5.77,12.27,3.64,21.84l-16.89,81.69a46.33,46.33,0,0,1-12.59,23.8A43.41,43.41,0,0,1-237,1592.8l16.31,69.61-66.6,12.45-15.41-69.75-6.24,1.17-15.12,75.45L-391,1694.25Zm46.16,85.94,26.14-4.89c4.71-.88,7.46-3.61,8.65-8.59l5.91-28.91c.3-1.35.48-3.1-.34-4a2.48,2.48,0,0,0-2.06-.68,8.36,8.36,0,0,0-1.57.16l-28.19,5.27Z" transform="translate(805.58 -1045.15)" style="fill:url(#linear-gradient-21)" /><polygon points="652.08 392.7 718.4 380.31 703.8 451.42 745.29 375.28 812.51 362.71 744.37 488.31 777.21 581.29 710.57 593.75 688.26 528.55 673.57 600.67 606.65 613.18 652.08 392.7" style="fill:url(#linear-gradient-22)" /><polygon points="826.69 360.06 972.16 332.87 960.54 389.6 881.39 404.4 876.7 427.5 941.03 415.46 931.48 462.03 867.15 474.06 859.51 511.34 938.37 496.6 926.74 553.34 781.26 580.54 826.69 360.06" style="fill:url(#linear-gradient-23)" /><polygon points="1012.18 480.4 988.5 329.81 1054.69 317.44 1070.37 398.31 1131.66 303.05 1180.42 293.93 1080.82 457.11 1066.07 527.29 999.42 539.75 1012.18 480.4" style="fill:url(#linear-gradient-24)" /><path d="M-737.73,1601.61l-30.54-44.39L-561,1518.48l-10.67,52.09-58.4,10.92-33.5,163.68-62,11.58,33.8-163.73Z" transform="translate(805.58 -1045.15)" style="fill:url(#New_Gradient_Swatch_2-7)" /><path d="M-474.19,1502.24l-31.42,154.69q-.6,4,1,6c1.08,1.38,2.91,1.82,5.48,1.34l24.31-4.54a12.27,12.27,0,0,0,6.67-3.62,14.14,14.14,0,0,0,3.71-6.92L-433,1494.54l61.66-11.53-38.54,186.56a45.79,45.79,0,0,1-12.3,22.75,41,41,0,0,1-22.09,11.84l-108.5,20.28q-12.75,2.38-18.82-4.19t-3.11-19.87l30.23-147.65-23.12-33Z" transform="translate(805.58 -1045.15)" style="fill:url(#New_Gradient_Swatch_2-8)" /><path d="M-326,1682l-62.26,11.64,44.47-215.83,133.7-25q12.75-2.38,18.83,4.18t3.11,19.88l-16.9,81.72a43.91,43.91,0,0,1-12,22.7,41,41,0,0,1-22.09,11.83l-.59.12,16.3,69.58-62.25,11.64-15.42-69.75-9.78,1.83Zm23.72-117.38,29.35-5.48q8.29-1.56,10.37-10.24l5.93-29c.59-2.68.3-4.65-.89-5.91s-3.07-1.65-5.63-1.17l-29.65,5.54Z" transform="translate(805.58 -1045.15)" style="fill:url(#New_Gradient_Swatch_2-9)" /><path d="M-133.86,1646.13l-62.26,11.64,44.47-215.83L-90,1430.41l-16.89,82.31,48-88.13L2.8,1413.06l-66.4,122.4L-31.29,1627l-62.25,11.64-24.31-71Z" transform="translate(805.58 -1045.15)" style="fill:url(#New_Gradient_Swatch_2-10)" /><path d="M-21.51,1625.13,23,1409.3,163.78,1383l-10.68,52.1L74,1449.86l-5.63,27.74,64.33-12-8.6,41.92-64.33,12-8.6,41.93L130,1546.7l-10.67,52.1Z" transform="translate(805.58 -1045.15)" style="fill:url(#New_Gradient_Swatch_2-11)" /><path d="M196.68,1584.33l12.16-56.52-23.42-148.89,62-11.58,16.31,84.11,63.74-99.07,43-8-97.23,159.29-14.53,69.12Z" transform="translate(805.58 -1045.15)" style="fill:url(#New_Gradient_Swatch_2-12)" /><polygon points="125.04 541.23 71.84 551.17 52.2 522.61 233.31 488.74 226.44 522.27 168.04 533.19 134.54 696.86 91.24 704.96 125.04 541.23" style="fill:url(#linear-gradient-25)" /><path d="M-559.07,1720.69c-3.77,0-5.26-1.14-6-2-2.45-2.64-1.89-8-1-12l31-151.5-17.47-25,67.18-12.56-28.88,142.14,0,.23c-1,6.38,1,10.47,2.83,12.78a13,13,0,0,0,10.52,4.87,19.11,19.11,0,0,0,3.46-.34l24.31-4.55a20.88,20.88,0,0,0,11.36-6.13,22.79,22.79,0,0,0,6-11.13l30.28-149,43-8-35.88,173.68a36.93,36.93,0,0,1-10,18.43,32.2,32.2,0,0,1-17.46,9.38l-108.5,20.28A25.3,25.3,0,0,1-559.07,1720.69Z" transform="translate(805.58 -1045.15)" style="fill:url(#linear-gradient-26)" /><path d="M-336.34,1489.79l127.91-23.91a25.19,25.19,0,0,1,4.69-.49c3.78,0,5.28,1.15,6.08,2,2.43,2.63,1.88,8,1,12l-16.92,81.85a35.08,35.08,0,0,1-9.66,18.31,32.12,32.12,0,0,1-17.45,9.37l-9.62,1.8,16.3,69.59-44.87,8.39L-294.32,1599l-24,4.48-15.12,75.46L-377,1687Zm75.2,18.5a19.62,19.62,0,0,0-3.58.35l-35.45,6.63-13.3,64.81,42.19-7.89c9-1.67,15.11-7.65,17.3-16.82l.06-.29,5.92-28.91c1.53-7-.83-11.35-3.08-13.75A13.38,13.38,0,0,0-261.14,1508.29Z" transform="translate(805.58 -1045.15)" style="fill:url(#linear-gradient-27)" /><polygon points="661.34 408.72 704.37 400.68 690.1 470.19 706.4 476.16 752.43 391.69 791.88 384.32 732.4 493.94 762.6 579.45 717.88 587.81 685.57 493.37 664.29 597.83 620.7 605.98 661.34 408.72" style="fill:url(#linear-gradient-28)" /><polygon points="835.95 376.08 958.14 353.24 951.27 386.76 872.1 401.56 862.7 447.86 927 435.84 922.22 459.19 857.89 471.21 845.48 531.71 924.34 516.97 917.47 550.49 795.31 573.33 835.95 376.08" style="fill:url(#linear-gradient-29)" /><polygon points="1023.34 487.3 1000.99 345.22 1045.99 336.81 1064.81 433.84 1138.33 319.55 1158.22 315.83 1070.47 459.58 1056.84 524.44 1013.62 532.52 1023.34 487.3" style="fill:url(#linear-gradient-30)" /><polygon points="125.04 534.64 71.84 544.59 52.2 516.02 233.31 482.16 226.44 515.68 168.04 526.6 134.54 690.28 91.24 698.38 125.04 534.64" style="fill:#fff" /><path d="M-559.07,1714.1c-3.77,0-5.26-1.14-6-2-2.45-2.64-1.89-8-1-12l31-151.51-17.47-25,67.18-12.56-28.88,142.14,0,.22c-1,6.39,1,10.48,2.83,12.78a13,13,0,0,0,10.52,4.87,19.08,19.08,0,0,0,3.46-.33l24.31-4.55a21,21,0,0,0,11.36-6.13,22.82,22.82,0,0,0,6-11.14l30.28-149,43-8-35.88,173.67a37,37,0,0,1-10,18.44,32.18,32.18,0,0,1-17.46,9.37l-108.5,20.29A26.11,26.11,0,0,1-559.07,1714.1Z" transform="translate(805.58 -1045.15)" style="fill:#fff" /><path d="M-336.34,1483.2l127.91-23.91a26,26,0,0,1,4.69-.48c3.78,0,5.28,1.14,6.08,2,2.43,2.64,1.88,8,1,12l-16.92,81.85a35.05,35.05,0,0,1-9.66,18.3,32.07,32.07,0,0,1-17.45,9.38l-9.62,1.79,16.3,69.59-44.87,8.39-15.42-69.75-24,4.48-15.12,75.46-43.58,8.15Zm75.2,18.51a19.58,19.58,0,0,0-3.58.34l-35.45,6.63-13.3,64.82,42.19-7.89c9-1.68,15.11-7.65,17.3-16.83l.06-.28,5.92-28.91c1.53-7-.83-11.35-3.08-13.75A13.35,13.35,0,0,0-261.14,1501.71Z" transform="translate(805.58 -1045.15)" style="fill:#fff" /><polygon points="661.34 402.14 704.37 394.09 690.1 463.61 706.4 469.58 752.43 385.11 791.88 377.74 732.4 487.36 762.6 572.86 717.88 581.22 685.57 486.79 664.29 591.24 620.7 599.39 661.34 402.14" style="fill:#fff" /><polygon points="835.95 369.5 958.14 346.65 951.27 380.17 872.1 394.97 862.7 441.27 927 429.25 922.22 452.6 857.89 464.63 845.48 525.13 924.34 510.38 917.47 543.91 795.31 566.75 835.95 369.5" style="fill:#fff" /><polygon points="1023.34 480.71 1000.99 338.64 1045.99 330.23 1064.81 427.25 1138.33 312.96 1158.22 309.25 1070.47 453 1056.84 517.85 1013.62 525.93 1023.34 480.71" style="fill:#fff" /><polygon points="125.04 536.84 71.84 546.78 52.2 518.22 233.31 484.35 226.44 517.88 168.04 528.8 134.54 692.47 91.24 700.57 125.04 536.84" style="fill:url(#linear-gradient-31)" /><path d="M-559.07,1716.3c-3.77,0-5.26-1.14-6-2-2.45-2.64-1.89-8-1-12l31-151.5-17.47-25,67.18-12.56-28.88,142.15,0,.22c-1,6.38,1,10.47,2.83,12.78a13,13,0,0,0,10.52,4.87,19.11,19.11,0,0,0,3.46-.34l24.31-4.54a21,21,0,0,0,11.36-6.14,22.79,22.79,0,0,0,6-11.13l30.28-149.05,43-8-35.88,173.68a36.93,36.93,0,0,1-10,18.43,32.2,32.2,0,0,1-17.46,9.38l-108.5,20.28A25.3,25.3,0,0,1-559.07,1716.3Z" transform="translate(805.58 -1045.15)" style="fill:url(#linear-gradient-32)" /><path d="M-336.34,1485.4l127.91-23.91a25.19,25.19,0,0,1,4.69-.49c3.78,0,5.28,1.15,6.08,2,2.43,2.64,1.88,8,1,12l-16.92,81.85a35.08,35.08,0,0,1-9.66,18.31,32.12,32.12,0,0,1-17.45,9.37l-9.62,1.8,16.3,69.59-44.87,8.39-15.42-69.75-24,4.48-15.12,75.46-43.58,8.14Zm75.2,18.5a19.62,19.62,0,0,0-3.58.35l-35.45,6.63-13.3,64.81,42.19-7.88c9-1.68,15.11-7.66,17.3-16.83l.06-.28,5.92-28.92c1.53-7-.83-11.35-3.08-13.74A13.35,13.35,0,0,0-261.14,1503.9Z" transform="translate(805.58 -1045.15)" style="fill:url(#linear-gradient-33)" /><polygon points="661.34 404.33 704.37 396.29 690.1 465.81 706.4 471.77 752.43 387.3 791.88 379.93 732.4 489.55 762.6 575.06 717.88 583.42 685.57 488.98 664.29 593.43 620.7 601.59 661.34 404.33" style="fill:url(#linear-gradient-34)" /><polygon points="835.95 371.69 958.14 348.85 951.27 382.37 872.1 397.17 862.7 443.47 927 431.45 922.22 454.8 857.89 466.82 845.48 527.32 924.34 512.58 917.47 546.1 795.31 568.94 835.95 371.69" style="fill:url(#linear-gradient-35)" /><polygon points="1023.34 482.91 1000.99 340.83 1045.99 332.42 1064.81 429.45 1138.33 315.16 1158.22 311.44 1070.47 455.19 1056.84 520.05 1013.62 528.13 1023.34 482.91" style="fill:url(#linear-gradient-36)" /></svg>