<svg id="Layer_1" data-name="Layer 1" xmlns="http://www.w3.org/2000/svg" xmlns:xlink="http://www.w3.org/1999/xlink" viewBox="0 0 247.31 204.34"><defs><clipPath id="clip-path" transform="translate(-1.28 -2.31)"><path d="M374.58-5.36c-23-7.54-186.22-97.1-186.22-97.1l-65.18-14.63c-.92-.14-62.78-.5-75.82-2.67,0,0-181.59-186.14-70.5,57.2C-37.75-65-55.47-78.62-64.37-81.18c-17.2-4.95,34.59,177.06,36.69,181.93s59.2,35.19,97.06,50.15c32.88,13,102.19,13.23,133.44,12.38h.06l1.64,0h.1l1.52,0h.13l1.42,0h.13l1.3-.05h.17l1.2,0h.16l1.09,0h.18l1,0h.16l1.06,0c20.76-1.05,49.55-5.69,56.36-10.35S397.62,2.18,374.58-5.36Z" style="fill:none"/></clipPath></defs><g style="clip-path:url(#clip-path)"><path d="M116.85,120.49a129,129,0,0,0,36.08-67.66c1.73-9.08,2.35-19.06-2.14-27S135,13.53,128.1,19.44c.12-7-5-13.8-11.65-15.29s-14,2.44-16.7,8.9c-3.83-4.8-8.25-10-14.21-10.67-7.1-.86-14,6.42-13,13.77-3.88-5.91-11.46-8.07-18.34-7.61-3.93.26-8,1.33-10.91,4.1S39,20.2,41,23.75C34.81,20.26,27,18.86,20.86,22.28S11.58,35,16,40.69c-5.6-1.5-11.47,3.08-13.31,8.77s-.5,12,1.73,17.53A55.38,55.38,0,0,0,14.07,82.8c-2-3.21-7-3.12-9.65-.52S1,89.06,1.37,92.86C2.69,107.08,16,116.6,28.68,122.12c15.7,6.83,32.42,10.72,49.09,14.35,11.7,2.55,24.39,4.89,35.2-.41Z" transform="translate(-1.28 -2.31)" style="fill:#f06ea9"/><path d="M119.55,121.74A120.59,120.59,0,0,0,153,58.59c1.6-8.47,2.19-17.79-2-25.24s-14.68-11.44-21-5.92c.12-6.57-4.66-12.88-10.8-14.27s-13,2.28-15.5,8.3c-3.55-4.47-7.65-9.28-13.18-10-6.58-.8-13,6-12.09,12.85-3.59-5.52-10.63-7.53-17-7.1-3.65.24-7.42,1.24-10.12,3.82s-3.95,7.05-2.14,10.38c-5.69-3.27-12.91-4.57-18.64-1.38S21.91,42,26,47.27c-5.19-1.4-10.64,2.87-12.34,8.18s-.46,11.19,1.6,16.36a52.27,52.27,0,0,0,9,14.76c-1.83-3-6.45-2.92-9-.49S12.1,92.41,12.43,96c1.23,13.27,13.56,22.15,25.33,27.3,14.57,6.38,30.08,10,45.54,13.39,10.85,2.38,22.63,4.57,32.66-.38Z" transform="translate(-1.28 -2.31)" style="fill:#ed2471"/><path d="M37.76,123.26a70.57,70.57,0,0,1-6.84-3.44,18.18,18.18,0,0,1,.41-2.3c1-3.94,4-7.63,7.83-8.23-5.08-6-8.35-14.41-6.35-22.18S43.4,73.43,50.5,76.54C45.88,68.66,50,57.27,58,53.17s18-1.63,24.62,4.52C81.78,49,90.6,41.76,99,42.08s15.68,6.12,21,12.83c2.54-6,10-8.06,16.24-6.87a26,26,0,0,1,16.56,11.57,120.54,120.54,0,0,1-33.26,62.13L116,136.27c-10,4.95-21.81,2.76-32.66.38C67.84,133.26,52.33,129.64,37.76,123.26Z" transform="translate(-1.28 -2.31)" style="fill:#8e455e"/><path d="M151.57,157.89V188s21.51-5.8,24.28-2.18S155,190.5,155,190.5s21.16-.72,20.12,3.63-22.9-2.18-22.9-2.18,25,4.72,20.82,8.7-26.72-8-26.72-8-5.55,4.71-7.63,1.45,9.37-6.52,9.37-6.52L147.41,159Z" transform="translate(-1.28 -2.31)" style="fill:#fcbb7a"/><path d="M115.57,163.07v30.08s21.51-5.8,24.29-2.18S119,195.69,119,195.69s21.16-.73,20.12,3.62-22.89-2.17-22.89-2.17,25,4.71,20.81,8.69-26.71-8-26.71-8-5.55,4.71-7.63,1.45,9.36-6.52,9.36-6.52l-.69-28.64Z" transform="translate(-1.28 -2.31)" style="fill:#fcc191"/><path d="M78.89,148.35c0,10.05,7.37,18.27,16.37,18.27h78.09c9,0,16.37-8.22,16.37-18.27V98.63c0-10-7.37-18.27-16.37-18.27H95.26c-9,0-16.37,8.22-16.37,18.27Z" transform="translate(-1.28 -2.31)" style="fill:#cb6763"/><path d="M140.34,100.77a30.83,30.83,0,0,1,9.07,19.64,31.25,31.25,0,0,1-6.06,20.86c-5.09,6.76-12.82,11-20.84,12.89s-16.37,1.76-24.57,1c.56-3.18,1.13-6.36,1.69-9.55.75-4.21,1.59-8.63,4.25-11.88,2.41-2.95,6-4.51,9.24-6.33A57,57,0,0,0,130,113.1Z" transform="translate(-1.28 -2.31)" style="fill:#b45962"/><path d="M95.26,80.36h78.09c8.3,0,15.19,7,16.23,16a125.59,125.59,0,0,0-75.78-3c-8.29,2.3-16.47,5.52-23.34,10.88a38.79,38.79,0,0,0-11.57,14.57V98.63C78.89,88.58,86.26,80.36,95.26,80.36Z" transform="translate(-1.28 -2.31)" style="fill:#e47465"/><path d="M78.89,148.35V119.67c7.87,13.22,21.56,22.07,35.94,26.49,15.34,4.72,31.58,5,47.57,4.71,9.4-.14,19.61-.83,27.32-5.93v3.41c0,10.05-7.37,18.27-16.37,18.27H95.26C86.26,166.62,78.89,158.4,78.89,148.35Z" transform="translate(-1.28 -2.31)" style="fill:#b45962"/><path d="M185,42.33a119.51,119.51,0,0,0,3.19,47.51c3.23,11.71,8.31,23.6,6.21,35.58-.87,5-3.54,10.28-8.22,11.77-3.36,1.06-7.08-.09-9.93-2.22s-5-5.15-6.93-8.19c-1.19-1.84-1.4-3.78-1.79-6s.14-4.67,1.83-6a9.14,9.14,0,0,1,2.49-1.56c5.05-2.2,7.43-8.33,8.08-14a54.68,54.68,0,0,0-1.58-19.18c-1.63-6.66-4.09-13.07-5.82-19.7S169.77,46.72,171.16,40s5.49-13.1,11.59-15.68a67.74,67.74,0,0,0,6.4,18.75Z" transform="translate(-1.28 -2.31)" style="fill:#8e455e"/><path d="M189.26,46.89a54,54,0,0,0,.79,20c1,4.47,2.63,9.21,1.09,13.51l-3.66-1c-1,3.92,1.26,7.82,3.21,11.32,5.13,9.23,9,20,6.77,30.45-.59,2.78-2.36,6-5.07,5.7-3.13-.31-3.93-4.61-4.11-7.89a77.29,77.29,0,0,0-5.38-24.38c-2.18-5.43-5-11-4.48-16.82l3.73.62-6.06-14.5c-.8-1.92-1.62-4.1-.87-6s3.89-2.67,4.64-.73a30.85,30.85,0,0,1-4-20A5.32,5.32,0,0,1,177,34.28c1.69-1.86,4.86-.51,6.17,1.66s1.57,4.86,2.73,7.12Z" transform="translate(-1.28 -2.31)" style="fill:#ee468f"/><path d="M179.86,57.15a30.85,30.85,0,0,1-4-20A5.32,5.32,0,0,1,177,34.28c1.69-1.86,4.86-.51,6.17,1.66s1.57,4.86,2.73,7.12l3.4,3.83a54.19,54.19,0,0,0-.53,8.45,3.7,3.7,0,0,0-2,2,10,10,0,0,0-.32,4.7l1.17,12.53c-2.63,1.81-3.82,5.3-3.78,8.59s1.12,6.45,2.2,9.54c2.72,7.86,5.53,15.87,10.53,22.38.48.63,1,1.26,1.5,1.89a30.35,30.35,0,0,1-.58,4.22c-.59,2.78-2.36,6-5.07,5.7-3.13-.31-3.93-4.61-4.11-7.89a77.29,77.29,0,0,0-5.38-24.38c-2.18-5.43-5-11-4.48-16.82l3.73.62-6.06-14.5c-.8-1.92-1.62-4.1-.87-6S179.11,55.21,179.86,57.15Z" transform="translate(-1.28 -2.31)" style="fill:#ed2471"/><path d="M180.86,10.52S206.43,4.23,214,14.77s11.57,23.68,4.44,31.14-36,12.49-42.23,3.82S158.63,13.53,180.86,10.52Z" transform="translate(-1.28 -2.31)" style="fill:#cb6763"/><path d="M218.68,24s24,13.92,29.91,22.07l-37.8,1.12S206.75,28.13,218.68,24Z" transform="translate(-1.28 -2.31)" style="fill:#f9a567"/><path d="M211.37,33.2c-.06-.3-.11-.6-.16-.9,1.13-3.62,3.32-6.88,7.47-8.32,0,0,24,13.92,29.91,22.07l-.78,0A77.94,77.94,0,0,0,211.37,33.2Z" transform="translate(-1.28 -2.31)" style="fill:#ffdda8"/><path d="M218.68,24c-3.48,2.62-5.47,7-6.11,11.43a42,42,0,0,0,.72,13.48,124.31,124.31,0,0,0,3.18,13.44c1.54,5.25,3.45,10.52,3.45,16a10.25,10.25,0,0,1-1,5c-2.09,3.82-7.64,4.22-11.34,1.87s-5.85-6.57-7.45-10.73c-2.56-6.63-4.18-13.76-3.66-20.81.87-12,8.33-23.06,18.83-27.94Z" transform="translate(-1.28 -2.31)" style="fill:#ee468f"/><path d="M208.37,30.1a44.2,44.2,0,0,0-6.2,23.75c.17,6.18,1.71,12.5,5.28,17.55a19.79,19.79,0,0,0,12.42,8.2,8.92,8.92,0,0,1-1,3.65c-2.09,3.82-7.64,4.22-11.34,1.87s-5.85-6.57-7.45-10.73c-2.56-6.63-4.18-13.76-3.66-20.81A34.47,34.47,0,0,1,208.37,30.1Z" transform="translate(-1.28 -2.31)" style="fill:#ed2471"/><path d="M179.47,30.79A14.54,14.54,0,1,0,189.23,13,14.37,14.37,0,0,0,179.47,30.79Z" transform="translate(-1.28 -2.31)" style="fill:#8e455e"/><ellipse cx="194.89" cy="26.62" rx="13.11" ry="13.69" transform="translate(-0.57 55.73) rotate(-16.97)" style="fill:#f6dfec"/><path d="M189.73,26.88a4.7,4.7,0,1,0,9-2.74,4.7,4.7,0,1,0-9,2.74Z" transform="translate(-1.28 -2.31)" style="fill:#3a2559"/><path d="M191,20a3.78,3.78,0,1,0,2.46-4.88A3.87,3.87,0,0,0,191,20Z" transform="translate(-1.28 -2.31)" style="fill:#fff"/><path d="M196.73,33.06a15.83,15.83,0,0,0,11.26-5,13.12,13.12,0,0,1-9.11,11.61c-6.92,2.11-14.32-2-16.53-9.27a14.16,14.16,0,0,1-.31-6.82A17.09,17.09,0,0,0,196.73,33.06Z" transform="translate(-1.28 -2.31)" style="fill:#d9a4c0"/><path d="M139.89,101c6.79,5,8.42,15.4,5.4,23.48s-9.7,14.1-16.84,18.52c-18.39,11.38-42.44,13.8-61.25,3.21,3.66-5.58,4.3-12.69,6.89-18.89,2.78-6.62,7.76-12,13.35-16.3A60.78,60.78,0,0,1,137.89,100Z" transform="translate(-1.28 -2.31)" style="fill:#8e455e"/><path d="M131.63,140.83c-1,.74-2.1,1.46-3.18,2.12a67,67,0,0,1-26,9.38,70.38,70.38,0,0,1-29.18-22.77c.27-.77.55-1.54.86-2.29a35.94,35.94,0,0,1,6.8-10.34A42.91,42.91,0,0,0,95.6,132.77c8.28,5.31,18,7.83,27.71,8.35A44.58,44.58,0,0,0,131.63,140.83Z" transform="translate(-1.28 -2.31)" style="fill:#ee468f"/><path d="M212.77,76.36a2.59,2.59,0,1,0,1.58-3.59A2.79,2.79,0,0,0,212.77,76.36Z" transform="translate(-1.28 -2.31)" style="fill:#ea83b5"/></g></svg>