<svg id="Layer_1" data-name="Layer 1" xmlns="http://www.w3.org/2000/svg" xmlns:xlink="http://www.w3.org/1999/xlink" viewBox="0 0 264.64 218.25"><defs><clipPath id="clip-path" transform="translate(-1.09 -1.77)"><path d="M127.52-80.15S-34.3,11.83-52.06,10.3s31.08,117.52,34,121.36S46.22,152.47,86,159.32s124-8.39,144.19-12.56,47.64-12.67,53.5-17.73,2.1-206.35-21.84-209.18S127.52-80.15,127.52-80.15Z" style="fill:none"/></clipPath></defs><g style="clip-path:url(#clip-path)"><path d="M142.3,128a137.78,137.78,0,0,1-38.53-72.27c-1.85-9.7-2.52-20.36,2.28-28.89S123,13.75,130.28,20.06c-.13-7.51,5.37-14.73,12.45-16.32s15,2.6,17.84,9.5c4.08-5.13,8.81-10.63,15.17-11.4,7.58-.91,14.94,6.86,13.92,14.72,4.14-6.32,12.24-8.63,19.59-8.14,4.2.29,8.54,1.43,11.65,4.38s4.55,8.07,2.47,11.87c6.55-3.73,14.86-5.22,21.45-1.57s9.91,13.61,5.25,19.67c6-1.6,12.25,3.28,14.21,9.36s.53,12.8-1.85,18.72a59.52,59.52,0,0,1-10.35,16.9c2.11-3.44,7.44-3.34,10.31-.56s3.64,7.24,3.26,11.3c-1.42,15.19-15.62,25.35-29.17,31.25-16.78,7.29-34.64,11.45-52.43,15.33-12.5,2.72-26.06,5.22-37.61-.44Z" transform="translate(-1.09 -1.77)" style="fill:#f06ea9"/><path d="M139.42,129.33a128.73,128.73,0,0,1-35.75-67.44c-1.72-9-2.34-19,2.12-27s15.68-12.22,22.47-6.32c-.12-7,5-13.75,11.55-15.24s13.87,2.43,16.54,8.87c3.79-4.79,8.18-9.92,14.08-10.64,7-.85,13.86,6.41,12.92,13.74,3.83-5.9,11.35-8,18.16-7.6,3.9.27,7.93,1.33,10.81,4.09s4.23,7.53,2.29,11.08c6.08-3.48,13.79-4.88,19.91-1.46s9.19,12.69,4.86,18.35c5.54-1.5,11.36,3.06,13.18,8.74s.49,12-1.71,17.47a55.52,55.52,0,0,1-9.61,15.77c2-3.21,6.9-3.12,9.57-.52s3.37,6.76,3,10.54C252.52,116,239.34,125.45,226.77,131c-15.56,6.81-32.13,10.68-48.64,14.3-11.59,2.55-24.16,4.88-34.88-.4Z" transform="translate(-1.09 -1.77)" style="fill:#ed2471"/><path d="M226.77,131a76.81,76.81,0,0,0,7.31-3.67,20.41,20.41,0,0,0-.43-2.46c-1.12-4.21-4.23-8.15-8.37-8.79,5.43-6.45,8.91-15.4,6.79-23.69s-11.32-14.61-18.9-11.3c4.93-8.41.49-20.58-8-25S186,54.36,178.9,60.92c.85-9.3-8.57-17-17.5-16.68S144.65,50.78,138.92,58c-2.71-6.44-10.72-8.61-17.34-7.33A27.77,27.77,0,0,0,103.89,63a128.69,128.69,0,0,0,35.53,66.36l3.83,15.53c10.72,5.27,23.29,2.95,34.88.4C194.64,141.64,211.21,137.77,226.77,131Z" transform="translate(-1.09 -1.77)" style="fill:#8e455e"/><path d="M105.22,167.94v32.13s-23-6.19-25.94-2.32,22.23,5,22.23,5S78.91,202,80,206.65s24.46-2.32,24.46-2.32-26.68,5-22.24,9.29,28.54-8.52,28.54-8.52,5.92,5,8.15,1.55-10-7-10-7l.74-30.58Z" transform="translate(-1.09 -1.77)" style="fill:#fcbb7a"/><path d="M143.67,173.47v32.14s-23-6.2-25.94-2.33,22.23,5,22.23,5-22.6-.78-21.49,3.87,24.45-2.33,24.45-2.33-26.68,5-22.23,9.29,28.53-8.51,28.53-8.51,5.93,5,8.16,1.55-10-7-10-7l.74-30.58Z" transform="translate(-1.09 -1.77)" style="fill:#fcc191"/><path d="M182.85,157.75c0,10.74-7.87,19.52-17.49,19.52H82c-9.62,0-17.49-8.78-17.49-19.52v-53.1c0-10.73,7.87-19.51,17.49-19.51h83.41c9.62,0,17.49,8.78,17.49,19.51Z" transform="translate(-1.09 -1.77)" style="fill:#cb6763"/><path d="M117.21,106.94a33,33,0,0,0-9.69,21A33.33,33.33,0,0,0,114,150.19c5.43,7.22,13.69,11.71,22.26,13.77s17.48,1.89,26.24,1.11c-.6-3.4-1.21-6.8-1.81-10.2-.8-4.5-1.69-9.22-4.54-12.7-2.57-3.15-6.37-4.82-9.86-6.76a60.81,60.81,0,0,1-18-15.3Z" transform="translate(-1.09 -1.77)" style="fill:#b45962"/><path d="M165.36,85.14H82c-8.87,0-16.24,7.46-17.34,17A134.09,134.09,0,0,1,145.56,99c8.85,2.45,17.59,5.9,24.93,11.62a41.42,41.42,0,0,1,12.36,15.56V104.65C182.85,93.92,175,85.14,165.36,85.14Z" transform="translate(-1.09 -1.77)" style="fill:#e47465"/><path d="M182.85,157.75V127.12c-8.41,14.13-23,23.58-38.39,28.3-16.39,5-33.73,5.3-50.81,5-10-.16-21-.89-29.19-6.33v3.63c0,10.74,7.87,19.52,17.5,19.52h83.4C175,177.27,182.85,168.49,182.85,157.75Z" transform="translate(-1.09 -1.77)" style="fill:#b45962"/><path d="M69.55,44.52a127.4,127.4,0,0,1-3.41,50.75c-3.44,12.5-8.87,25.19-6.63,38,.94,5.38,3.78,11,8.78,12.57,3.58,1.14,7.56-.09,10.61-2.37s5.31-5.5,7.4-8.75c1.27-2,1.49-4,1.91-6.35s-.14-5-2-6.41a9.53,9.53,0,0,0-2.65-1.66c-5.4-2.35-7.93-8.9-8.63-15a58.48,58.48,0,0,1,1.68-20.48c1.74-7.12,4.37-14,6.22-21.05S85.77,49.21,84.29,42,78.43,28,71.91,25.28a72.44,72.44,0,0,1-6.83,20Z" transform="translate(-1.09 -1.77)" style="fill:#8e455e"/><path d="M65,49.39a57.71,57.71,0,0,1-.85,21.36C63,75.52,61.3,80.58,63,85.18l3.91-1c1,4.19-1.35,8.36-3.43,12.09-5.48,9.86-9.62,21.41-7.23,32.53.63,3,2.52,6.38,5.41,6.09,3.34-.33,4.2-4.93,4.39-8.44a82.35,82.35,0,0,1,5.76-26c2.32-5.8,5.38-11.7,4.77-18l-4,.67L79,67.59c.86-2.06,1.72-4.39.93-6.47s-4.16-2.85-5-.77A32.91,32.91,0,0,0,79.25,39a5.77,5.77,0,0,0-1.15-3.11c-1.8-2-5.19-.54-6.59,1.78s-1.68,5.19-2.92,7.6Z" transform="translate(-1.09 -1.77)" style="fill:#ee468f"/><path d="M75,60.35A32.91,32.91,0,0,0,79.25,39a5.77,5.77,0,0,0-1.15-3.11c-1.8-2-5.19-.54-6.59,1.78s-1.68,5.19-2.92,7.6L65,49.39a57.82,57.82,0,0,1,.56,9,4,4,0,0,1,2.13,2.14,10.61,10.61,0,0,1,.34,5q-.63,6.71-1.25,13.4c2.81,1.92,4.09,5.66,4,9.17S69.58,95,68.43,98.33c-2.9,8.39-5.9,17-11.24,23.91-.52.67-1.06,1.33-1.6,2a30.33,30.33,0,0,0,.61,4.51c.63,3,2.52,6.38,5.41,6.09,3.34-.33,4.2-4.93,4.39-8.44a82.35,82.35,0,0,1,5.76-26c2.32-5.8,5.38-11.7,4.77-18l-4,.67L79,67.59c.86-2.06,1.72-4.39.93-6.47S75.8,58.27,75,60.35Z" transform="translate(-1.09 -1.77)" style="fill:#ed2471"/><path d="M59.21,12S31.13,13.53,26.7,26.65s-4.44,27.79,5.17,33.19,40.64,1.55,44.34-9.26S82.86,8.12,59.21,12Z" transform="translate(-1.09 -1.77)" style="fill:#cb6763"/><path d="M24.76,37.52S4.64,59.21,1.09,69.39l39-10.64S38.25,38,24.76,37.52Z" transform="translate(-1.09 -1.77)" style="fill:#f9a567"/><path d="M35.12,44.66l-.12-1c-2.28-3.35-5.54-6-10.24-6.17,0,0-20.12,21.69-23.67,31.87l.8-.22A83.11,83.11,0,0,1,35.12,44.66Z" transform="translate(-1.09 -1.77)" style="fill:#ffdda8"/><path d="M24.76,37.52c4.38,1.59,7.77,5.42,9.82,9.77s2.89,9.19,3.46,14A136.56,136.56,0,0,1,39,76c0,5.85-.25,11.83,1.45,17.4A10.84,10.84,0,0,0,43,98.13c3.33,3.25,9.13,1.93,12.17-1.61S59.12,88,59.46,83.23c.54-7.58,0-15.36-2.75-22.4-4.63-12-15.7-21-27.95-22.68Z" transform="translate(-1.09 -1.77)" style="fill:#ee468f"/><path d="M37.21,40.56A47.14,47.14,0,0,1,51,62.88c1.75,6.37,2.15,13.31.08,19.58A21.13,21.13,0,0,1,40.89,94.71,9.51,9.51,0,0,0,43,98.13c3.33,3.25,9.13,1.93,12.17-1.61S59.12,88,59.46,83.23c.54-7.58,0-15.36-2.75-22.4A36.8,36.8,0,0,0,37.21,40.56Z" transform="translate(-1.09 -1.77)" style="fill:#ed2471"/><path d="M66.94,32.25a15.52,15.52,0,0,1-31,0,15.52,15.52,0,0,1,31,0Z" transform="translate(-1.09 -1.77)" style="fill:#8e455e"/><ellipse cx="48.81" cy="31.03" rx="14" ry="14.62" style="fill:#f6dfec"/><path d="M55.25,31.45a5.26,5.26,0,0,1-5,5.49,5.26,5.26,0,0,1-5-5.49,5,5,0,1,1,10,0Z" transform="translate(-1.09 -1.77)" style="fill:#3a2559"/><path d="M51.86,24.84a4,4,0,1,1-4-4.21A4.13,4.13,0,0,1,51.86,24.84Z" transform="translate(-1.09 -1.77)" style="fill:#fff"/><path d="M50,40a16.91,16.91,0,0,1-13-1.54,14,14,0,0,0,12.92,9c7.73,0,14-6.55,14-14.62a15,15,0,0,0-1.81-7.07C61,32.29,56.16,38.06,50,40Z" transform="translate(-1.09 -1.77)" style="fill:#d9a4c0"/><path d="M117.69,107.13c-7.26,5.33-9,16.44-5.77,25.08s10.36,15.06,18,19.78c19.65,12.16,45.33,14.74,65.42,3.42-3.91-5.95-4.59-13.55-7.36-20.17-3-7.07-8.29-12.84-14.26-17.41a64.94,64.94,0,0,0-53.89-11.69Z" transform="translate(-1.09 -1.77)" style="fill:#8e455e"/><path d="M126.51,149.72c1.12.79,2.25,1.56,3.4,2.27a71.58,71.58,0,0,0,27.81,10,75.2,75.2,0,0,0,31.17-24.33c-.28-.82-.59-1.64-.92-2.44a38.44,38.44,0,0,0-7.26-11A45.81,45.81,0,0,1,165,141.12c-8.84,5.66-19.23,8.36-29.59,8.91A47.32,47.32,0,0,1,126.51,149.72Z" transform="translate(-1.09 -1.77)" style="fill:#ee468f"/><path d="M47.14,89.18a3,3,0,0,1-2.73,3.17,3.21,3.21,0,0,1,0-6.34A3,3,0,0,1,47.14,89.18Z" transform="translate(-1.09 -1.77)" style="fill:#ea83b5"/></g></svg>