<svg id="Layer_1" data-name="Layer 1" xmlns="http://www.w3.org/2000/svg" xmlns:xlink="http://www.w3.org/1999/xlink" viewBox="0 0 247.77 204.34"><defs><clipPath id="clip-path" transform="translate(-0.64 -1.38)"><path d="M325.68,95C303,91.31,306.43,13.2,306.43,13.2s-76.94-32.48-77-32.48-14.28-18-14.43-18l-26.47-1.21c-2.35,0-9-9.29-20.45-9.62L117.57-78.22C103.5-78.63-27.7-43.4-36.41-44.54c-16.84-2.2,1,147.83,3.59,151.61s60.3,22.5,97.88,30.69c32.65,7.11,98-.24,127.26-4.34h0l1.58-.22H194l1.42-.2.15,0,1.33-.19H197l1.25-.19.12,0,1.11-.16.18,0,.92-.14.28-.05.73-.11.36-.06,1-.15c19.41-3.12,45.91-10.07,51.72-14.64S348.35,98.7,325.68,95Z" style="fill:none"/></clipPath></defs><g style="clip-path:url(#clip-path)"><path d="M116.21,119.56A129,129,0,0,0,152.29,51.9c1.73-9.08,2.36-19.06-2.14-27s-15.83-12.25-22.69-6.34c.12-7-5-13.8-11.65-15.29s-14,2.44-16.7,8.9C95.28,7.32,90.86,2.17,84.9,1.45c-7.1-.86-14,6.42-13,13.78C68,9.31,60.41,7.15,53.53,7.61c-3.93.26-8,1.33-10.91,4.1s-4.26,7.56-2.31,11.11c-6.14-3.49-13.91-4.89-20.09-1.46S11,34.09,15.32,39.77C9.72,38.27,3.85,42.84,2,48.53s-.5,12,1.73,17.53a55.38,55.38,0,0,0,9.69,15.81c-2-3.21-7-3.12-9.65-.52S.37,88.14.73,91.93C2.05,106.15,15.35,115.67,28,121.19c15.7,6.83,32.42,10.72,49.09,14.35,11.7,2.55,24.39,4.89,35.2-.41Z" transform="translate(-0.64 -1.38)" style="fill:#f06ea9"/><path d="M118.91,120.81a120.6,120.6,0,0,0,33.47-63.14c1.61-8.48,2.19-17.79-2-25.25S135.71,21,129.35,26.5c.12-6.57-4.66-12.88-10.8-14.27s-13,2.28-15.5,8.31c-3.55-4.48-7.65-9.29-13.18-10-6.58-.8-13,6-12.09,12.85-3.59-5.52-10.63-7.53-17-7.1-3.65.24-7.42,1.24-10.11,3.82s-4,7.06-2.15,10.38C42.82,27.26,35.6,26,29.87,29.16S21.27,41,25.32,46.34c-5.19-1.4-10.64,2.87-12.34,8.18s-.46,11.19,1.61,16.36a51.68,51.68,0,0,0,9,14.76c-1.84-3-6.46-2.92-9-.49S11.46,91.48,11.79,95c1.23,13.27,13.56,22.15,25.33,27.3,14.57,6.38,30.08,10,45.54,13.4,10.86,2.38,22.63,4.56,32.66-.39Z" transform="translate(-0.64 -1.38)" style="fill:#ed2471"/><path d="M37.12,122.33a71.73,71.73,0,0,1-6.84-3.44,17.71,17.71,0,0,1,.41-2.29c1-3.95,4-7.64,7.83-8.24-5.08-6-8.35-14.41-6.35-22.18S42.76,72.51,49.86,75.61c-4.62-7.88-.46-19.27,7.46-23.37s18-1.62,24.62,4.52c-.8-8.71,8-15.93,16.39-15.61S114,47.27,119.37,54c2.54-6,10-8.06,16.24-6.87a26,26,0,0,1,16.56,11.57,120.54,120.54,0,0,1-33.26,62.13l-3.59,14.53c-10,4.95-21.8,2.77-32.66.39C67.2,132.34,51.69,128.71,37.12,122.33Z" transform="translate(-0.64 -1.38)" style="fill:#8e455e"/><path d="M150.93,157V187s21.51-5.8,24.28-2.18-20.81,4.72-20.81,4.72,21.16-.73,20.12,3.62-22.9-2.17-22.9-2.17,25,4.71,20.82,8.69-26.72-8-26.72-8-5.55,4.71-7.63,1.45,9.37-6.52,9.37-6.52L146.77,158Z" transform="translate(-0.64 -1.38)" style="fill:#fcbb7a"/><path d="M114.93,162.14v30.08s21.51-5.8,24.29-2.17-20.82,4.71-20.82,4.71,21.16-.73,20.12,3.62-22.89-2.17-22.89-2.17,25,4.71,20.81,8.7-26.71-8-26.71-8-5.55,4.71-7.63,1.45,9.36-6.52,9.36-6.52l-.69-28.64Z" transform="translate(-0.64 -1.38)" style="fill:#fcc191"/><path d="M78.25,147.42c0,10.05,7.37,18.27,16.37,18.27h78.09c9,0,16.37-8.22,16.37-18.27V97.7c0-10-7.37-18.27-16.37-18.27H94.62c-9,0-16.37,8.22-16.37,18.27Z" transform="translate(-0.64 -1.38)" style="fill:#cb6763"/><path d="M139.7,99.85a30.81,30.81,0,0,1,9.07,19.63,31.25,31.25,0,0,1-6.06,20.86c-5.09,6.76-12.82,11-20.84,12.89s-16.37,1.76-24.57,1c.56-3.19,1.13-6.37,1.69-9.55.75-4.21,1.59-8.64,4.25-11.89,2.41-3,6-4.51,9.24-6.33a57,57,0,0,0,16.85-14.33Z" transform="translate(-0.64 -1.38)" style="fill:#b45962"/><path d="M94.62,79.43h78.09c8.3,0,15.19,7,16.23,16a125.52,125.52,0,0,0-75.78-3c-8.29,2.3-16.47,5.52-23.34,10.88a38.79,38.79,0,0,0-11.57,14.57V97.7C78.25,87.65,85.62,79.43,94.62,79.43Z" transform="translate(-0.64 -1.38)" style="fill:#e47465"/><path d="M78.25,147.42V118.74c7.87,13.22,21.56,22.07,35.94,26.49,15.34,4.72,31.58,5,47.57,4.71,9.4-.14,19.62-.83,27.32-5.93v3.41c0,10.05-7.37,18.27-16.37,18.27H94.62C85.62,165.69,78.25,157.47,78.25,147.42Z" transform="translate(-0.64 -1.38)" style="fill:#b45962"/><path d="M184.32,41.41a119.54,119.54,0,0,0,3.19,47.51c3.23,11.7,8.31,23.59,6.22,35.57-.88,5-3.55,10.28-8.23,11.77-3.35,1.06-7.08-.09-9.93-2.22s-5-5.15-6.93-8.19c-1.18-1.84-1.4-3.78-1.79-5.95s.14-4.68,1.83-6a9.11,9.11,0,0,1,2.49-1.55c5.05-2.21,7.43-8.34,8.08-14a54.68,54.68,0,0,0-1.58-19.18c-1.62-6.66-4.09-13.07-5.82-19.7s-2.72-13.66-1.33-20.38S176,26,182.11,23.39a67.91,67.91,0,0,0,6.4,18.76Z" transform="translate(-0.64 -1.38)" style="fill:#8e455e"/><path d="M188.62,46a54.25,54.25,0,0,0,.79,20c1,4.47,2.63,9.21,1.09,13.51l-3.66-1c-1,3.92,1.27,7.83,3.21,11.32,5.13,9.23,9,20,6.77,30.45-.59,2.78-2.36,6-5.07,5.7-3.12-.31-3.93-4.61-4.11-7.89a77,77,0,0,0-5.38-24.38c-2.18-5.43-5-11-4.48-16.82l3.73.62L175.45,63c-.8-1.92-1.62-4.1-.87-6s3.89-2.67,4.64-.73a30.85,30.85,0,0,1-4-20,5.35,5.35,0,0,1,1.08-2.91c1.69-1.86,4.86-.51,6.17,1.66s1.57,4.86,2.73,7.12Z" transform="translate(-0.64 -1.38)" style="fill:#ee468f"/><path d="M179.22,56.22a30.85,30.85,0,0,1-4-20,5.35,5.35,0,0,1,1.08-2.91c1.69-1.86,4.86-.51,6.17,1.66s1.57,4.86,2.73,7.12l3.4,3.83a54.26,54.26,0,0,0-.53,8.45,3.7,3.7,0,0,0-2,2,10,10,0,0,0-.32,4.7L187,73.65c-2.63,1.81-3.82,5.3-3.78,8.59s1.13,6.45,2.2,9.55c2.72,7.85,5.53,15.86,10.53,22.38.48.62,1,1.25,1.5,1.88a28.92,28.92,0,0,1-.58,4.22c-.59,2.78-2.36,6-5.07,5.7-3.12-.31-3.93-4.61-4.11-7.89a77,77,0,0,0-5.38-24.38c-2.18-5.43-5-11-4.48-16.82l3.73.62L175.45,63c-.8-1.92-1.62-4.1-.87-6S178.47,54.28,179.22,56.22Z" transform="translate(-0.64 -1.38)" style="fill:#ed2471"/><path d="M194,10.94s26.29,1.45,30.44,13.73,4.15,26-4.84,31.08-38,1.45-41.51-8.67S171.86,7.33,194,10.94Z" transform="translate(-0.64 -1.38)" style="fill:#cb6763"/><path d="M226.25,34.85s18.85,20.31,22.16,29.84l-36.48-10S213.63,35.33,226.25,34.85Z" transform="translate(-0.64 -1.38)" style="fill:#f9a567"/><path d="M216.56,41.53c0-.3.07-.6.11-.9,2.14-3.14,5.19-5.61,9.58-5.78,0,0,18.85,20.31,22.16,29.84l-.75-.21A78,78,0,0,0,216.56,41.53Z" transform="translate(-0.64 -1.38)" style="fill:#ffdda8"/><path d="M226.25,34.85c-4.1,1.49-7.27,5.08-9.19,9.14a42.4,42.4,0,0,0-3.24,13.11,126.81,126.81,0,0,0-.88,13.78c-.06,5.47.22,11.07-1.37,16.29a10.05,10.05,0,0,1-2.41,4.43c-3.12,3-8.55,1.81-11.39-1.51s-3.68-8-4-12.45c-.51-7.09,0-14.37,2.57-21,4.33-11.21,14.7-19.62,26.17-21.23Z" transform="translate(-0.64 -1.38)" style="fill:#ee468f"/><path d="M214.6,37.69a44.31,44.31,0,0,0-12.86,20.9c-1.64,6-2,12.47-.08,18.33a19.82,19.82,0,0,0,9.49,11.48,8.82,8.82,0,0,1-2,3.2c-3.12,3-8.55,1.81-11.39-1.51s-3.68-8-4-12.45c-.51-7.09,0-14.37,2.57-21A34.52,34.52,0,0,1,214.6,37.69Z" transform="translate(-0.64 -1.38)" style="fill:#ed2471"/><path d="M186.76,29.92a14.54,14.54,0,0,0,29.07,0,14.54,14.54,0,0,0-29.07,0Z" transform="translate(-0.64 -1.38)" style="fill:#8e455e"/><ellipse cx="202.08" cy="29.05" rx="13.11" ry="13.69" style="fill:#f6dfec"/><path d="M197.71,29.17a4.7,4.7,0,1,0,9.36,0,4.7,4.7,0,1,0-9.36,0Z" transform="translate(-0.64 -1.38)" style="fill:#3a2559"/><path d="M200.88,23A3.78,3.78,0,1,0,204.66,19,3.87,3.87,0,0,0,200.88,23Z" transform="translate(-0.64 -1.38)" style="fill:#fff"/><path d="M202.6,37.13a15.84,15.84,0,0,0,12.22-1.45,13.1,13.1,0,0,1-12.1,8.44c-7.24,0-13.11-6.13-13.11-13.69a14,14,0,0,1,1.7-6.61A17.09,17.09,0,0,0,202.6,37.13Z" transform="translate(-0.64 -1.38)" style="fill:#d9a4c0"/><path d="M139.25,100c6.79,5,8.42,15.4,5.4,23.48S135,137.6,127.81,142c-18.39,11.39-42.44,13.8-61.25,3.21,3.66-5.58,4.3-12.69,6.89-18.89,2.78-6.62,7.76-12,13.35-16.3A60.78,60.78,0,0,1,137.25,99.1Z" transform="translate(-0.64 -1.38)" style="fill:#8e455e"/><path d="M131,139.9c-1.05.74-2.11,1.46-3.19,2.12a66.87,66.87,0,0,1-26,9.38,70.38,70.38,0,0,1-29.18-22.77c.27-.77.55-1.54.86-2.29A35.94,35.94,0,0,1,80.25,116,42.91,42.91,0,0,0,95,131.84c8.28,5.31,18,7.83,27.71,8.35A44.72,44.72,0,0,0,131,139.9Z" transform="translate(-0.64 -1.38)" style="fill:#ee468f"/><path d="M205.31,83.22a2.58,2.58,0,1,0,2.55-3A2.78,2.78,0,0,0,205.31,83.22Z" transform="translate(-0.64 -1.38)" style="fill:#ea83b5"/></g></svg>