<svg id="Layer_1" data-name="Layer 1" xmlns="http://www.w3.org/2000/svg" xmlns:xlink="http://www.w3.org/1999/xlink" viewBox="0 0 307.37 257.08"><defs><clipPath id="clip-path" transform="translate(-1.18 -1.95)"><path d="M-48.29-53.16s20.94,183.44,28.75,190.22,19.09,30.49,41.65,39.81,73.77,19.47,98.07,22,64.22,6.77,104.14,7.62,53.81,7.62,68.56,5.92,33.85-11.85,33.85-11.85,39-195.2,12-204.52S191.37-114.46,181.82-117-21.39-49.77-48.29-53.16Z" style="fill:none"/></clipPath></defs><g style="clip-path:url(#clip-path)"><path d="M163.16,150.63a162.21,162.21,0,0,1-45.4-85.12c-2.17-11.42-3-24,2.69-34s19.92-15.42,28.55-8c-.16-8.86,6.32-17.35,14.65-19.23s17.62,3.07,21,11.19C189.48,9.42,195,2.94,202.54,2c8.93-1.08,17.59,8.08,16.4,17.33,4.87-7.45,14.41-10.16,23.07-9.58,5,.33,10.06,1.67,13.72,5.16s5.36,9.5,2.91,14c7.72-4.4,17.51-6.15,25.27-1.85s11.67,16,6.18,23.16c7-1.88,14.43,3.87,16.73,11s.63,15.08-2.17,22a69.87,69.87,0,0,1-12.19,19.9c2.49-4,8.76-3.93,12.14-.66s4.29,8.54,3.84,13.32c-1.67,17.88-18.4,29.86-34.36,36.8-19.76,8.6-40.8,13.49-61.76,18.06-14.72,3.21-30.69,6.15-44.29-.52Z" transform="translate(-1.18 -1.95)" style="fill:#f06ea9"/><path d="M159.75,152.21a151.81,151.81,0,0,1-42.11-79.45c-2-10.66-2.75-22.38,2.5-31.76s18.47-14.39,26.48-7.45c-.15-8.26,5.86-16.19,13.59-17.95s16.35,2.87,19.49,10.45c4.47-5.64,9.63-11.69,16.59-12.53,8.28-1,16.32,7.54,15.21,16.18,4.52-6.95,13.37-9.48,21.4-8.94,4.59.31,9.33,1.56,12.73,4.81s5,8.87,2.7,13c7.16-4.1,16.23-5.74,23.44-1.72s10.83,15,5.73,21.61c6.53-1.76,13.38,3.61,15.52,10.3s.58,14.07-2,20.58A65.06,65.06,0,0,1,279.69,108c2.32-3.78,8.13-3.67,11.27-.62s4,8,3.56,12.43c-1.55,16.69-17.06,27.87-31.87,34.35-18.33,8-37.84,12.59-57.29,16.85-13.66,3-28.47,5.74-41.09-.48Z" transform="translate(-1.18 -1.95)" style="fill:#ed2471"/><path d="M262.65,154.12a87.76,87.76,0,0,0,8.61-4.33,23.62,23.62,0,0,0-.51-2.89c-1.32-5-5-9.6-9.86-10.36,6.39-7.59,10.5-18.13,8-27.9s-13.32-17.21-22.26-13.3c5.82-9.91.59-24.25-9.38-29.41s-22.66-2-31,5.69c1-11-10.09-20-20.61-19.64s-19.73,7.7-26.48,16.15C156,60.54,146.54,58,138.74,59.49A32.73,32.73,0,0,0,117.91,74a151.7,151.7,0,0,0,41.84,78.17l4.52,18.28c12.62,6.22,27.43,3.48,41.09.48C224.81,166.71,244.32,162.14,262.65,154.12Z" transform="translate(-1.18 -1.95)" style="fill:#8e455e"/><path d="M119.47,197.68v37.85s-27.06-7.3-30.55-2.74,26.19,5.93,26.19,5.93-26.63-.91-25.32,4.56,28.81-2.73,28.81-2.73-31.43,5.92-26.19,10.94,33.61-10,33.61-10,7,5.93,9.6,1.82-11.79-8.21-11.79-8.21l.88-36Z" transform="translate(-1.18 -1.95)" style="fill:#fcbb7a"/><path d="M164.76,204.2v37.85s-27.06-7.3-30.56-2.74,26.19,5.93,26.19,5.93-26.62-.91-25.31,4.56,28.8-2.74,28.8-2.74S132.46,253,137.7,258s33.6-10,33.6-10,7,5.92,9.61,1.82-11.79-8.21-11.79-8.21l.88-36Z" transform="translate(-1.18 -1.95)" style="fill:#fcc191"/><path d="M210.91,185.68c0,12.65-9.27,23-20.6,23H92.07c-11.33,0-20.6-10.34-20.6-23V123.14c0-12.65,9.27-23,20.6-23h98.24c11.33,0,20.6,10.34,20.6,23Z" transform="translate(-1.18 -1.95)" style="fill:#cb6763"/><path d="M133.59,125.83a38.84,38.84,0,0,0-11.41,24.7,39.34,39.34,0,0,0,7.63,26.25c6.4,8.5,16.13,13.79,26.22,16.22s20.59,2.21,30.91,1.3l-2.13-12c-.94-5.29-2-10.86-5.34-14.95-3-3.71-7.51-5.68-11.63-8a71.6,71.6,0,0,1-21.2-18Z" transform="translate(-1.18 -1.95)" style="fill:#b45962"/><path d="M190.31,100.15H92.07c-10.44,0-19.12,8.79-20.42,20.07A157.94,157.94,0,0,1,167,116.48c10.42,2.89,20.72,6.94,29.36,13.69a48.71,48.71,0,0,1,14.56,18.33V123.14C210.91,110.49,201.64,100.15,190.31,100.15Z" transform="translate(-1.18 -1.95)" style="fill:#e47465"/><path d="M210.91,185.68V149.6c-9.9,16.64-27.12,27.77-45.22,33.33-19.3,5.94-39.73,6.24-59.85,5.93-11.82-.18-24.67-1.05-34.37-7.46v4.28c0,12.65,9.27,23,20.6,23h98.24C201.64,208.67,210.91,198.33,210.91,185.68Z" transform="translate(-1.18 -1.95)" style="fill:#b45962"/><path d="M77.46,52.31a150.27,150.27,0,0,1-4,59.77c-4,14.73-10.45,29.68-7.81,44.76,1.1,6.32,4.45,12.93,10.34,14.8,4.23,1.34,8.91-.11,12.5-2.79s6.26-6.48,8.72-10.3c1.49-2.31,1.75-4.76,2.25-7.49s-.17-5.88-2.31-7.55A11.28,11.28,0,0,0,94,141.56c-6.36-2.78-9.35-10.49-10.17-17.64a69,69,0,0,1,2-24.13C87.87,91.41,91,83.35,93.15,75s3.42-17.18,1.67-25.64S87.91,32.89,80.24,29.64a85.34,85.34,0,0,1-8,23.6Z" transform="translate(-1.18 -1.95)" style="fill:#8e455e"/><path d="M72.05,58a67.83,67.83,0,0,1-1,25.16c-1.3,5.62-3.31,11.59-1.36,17L74.28,99c1.21,4.93-1.58,9.84-4,14.24-6.46,11.61-11.33,25.21-8.52,38.31.75,3.49,3,7.51,6.38,7.17,3.93-.39,5-5.81,5.17-9.93a96.9,96.9,0,0,1,6.78-30.67c2.73-6.83,6.34-13.79,5.62-21.16L81,97.72l7.62-18.24c1-2.42,2-5.17,1.09-7.62S84.82,68.5,83.87,71a38.71,38.71,0,0,0,5-25.12,6.79,6.79,0,0,0-1.35-3.66c-2.13-2.34-6.12-.64-7.77,2.09s-2,6.11-3.43,9Z" transform="translate(-1.18 -1.95)" style="fill:#ee468f"/><path d="M83.87,71a38.71,38.71,0,0,0,5-25.12,6.79,6.79,0,0,0-1.35-3.66c-2.13-2.34-6.12-.64-7.77,2.09s-2,6.11-3.43,9L72.05,58a67.33,67.33,0,0,1,.66,10.62,4.68,4.68,0,0,1,2.51,2.53,12.52,12.52,0,0,1,.4,5.91L74.15,92.88c3.31,2.27,4.81,6.67,4.76,10.8s-1.42,8.12-2.77,12c-3.42,9.88-7,20-13.25,28.16-.6.79-1.24,1.57-1.88,2.37a35.65,35.65,0,0,0,.72,5.31c.75,3.49,3,7.51,6.38,7.17,3.93-.39,5-5.81,5.17-9.93a96.9,96.9,0,0,1,6.78-30.67c2.73-6.83,6.34-13.79,5.62-21.16L81,97.72l7.62-18.24c1-2.42,2-5.17,1.1-7.62S84.82,68.5,83.87,71Z" transform="translate(-1.18 -1.95)" style="fill:#ed2471"/><path d="M91.53,18s-30.85-12.08-42-.18S31.17,45.45,38.82,55.94s42.8,21.53,52,11.75S118.75,25.45,91.53,18Z" transform="translate(-1.18 -1.95)" style="fill:#cb6763"/><path d="M42.13,28.54S10,41.94,1.18,51.12l47,7.65S56.33,35.69,42.13,28.54Z" transform="translate(-1.18 -1.95)" style="fill:#f9a567"/><path d="M49.73,41.25l.34-1.09c-.8-4.7-3-9.13-7.94-11.62,0,0-32.18,13.4-40.95,22.58l1,.15A98.08,98.08,0,0,1,49.73,41.25Z" transform="translate(-1.18 -1.95)" style="fill:#ffdda8"/><path d="M42.13,28.54c3.91,3.84,5.67,9.61,5.74,15.27s-1.4,11.26-3.13,16.69a162.25,162.25,0,0,1-6.19,16.23c-2.8,6.3-6,12.56-6.95,19.36a12.88,12.88,0,0,0,.45,6.33c2,5.11,8.83,6.53,13.83,4.22S54.27,99.41,57,94.49c4.29-7.85,7.48-16.47,8-25.35.9-15.09-6.57-30.14-18.86-38Z" transform="translate(-1.18 -1.95)" style="fill:#ee468f"/><path d="M54,37.88a55.68,55.68,0,0,1,3.8,30.64c-1.24,7.69-4.2,15.32-9.49,21-4.42,4.76-10.61,7.95-16.85,8.17a11.12,11.12,0,0,0,.61,4.71c2,5.11,8.83,6.53,13.83,4.22S54.27,99.41,57,94.49c4.29-7.85,7.49-16.47,8-25.35A43.37,43.37,0,0,0,54,37.88Z" transform="translate(-1.18 -1.95)" style="fill:#ed2471"/><path d="M89.9,43.52a18.28,18.28,0,1,1-9.21-23.85A18.07,18.07,0,0,1,89.9,43.52Z" transform="translate(-1.18 -1.95)" style="fill:#8e455e"/><ellipse cx="71.37" cy="35.77" rx="17.23" ry="16.49" transform="translate(8.02 83.9) rotate(-65.47)" style="fill:#f6dfec"/><path d="M77.76,37A5.92,5.92,0,1,1,67,32.06c1.49-3.25,5.09-4.78,8-3.43A6.19,6.19,0,0,1,77.76,37Z" transform="translate(-1.18 -1.95)" style="fill:#3a2559"/><path d="M77.36,28.21a4.76,4.76,0,1,1-2.26-6.5A4.87,4.87,0,0,1,77.36,28.21Z" transform="translate(-1.18 -1.95)" style="fill:#fff"/><path d="M68,43.5a19.94,19.94,0,0,1-13.22-8,16.48,16.48,0,0,0,9.44,16c8.28,3.78,18.2-.17,22.15-8.82a17.66,17.66,0,0,0,1.51-8.46C83.46,40.63,75.5,44.47,68,43.5Z" transform="translate(-1.18 -1.95)" style="fill:#d9a4c0"/><path d="M134.16,126.05c-8.55,6.28-10.59,19.37-6.79,29.54s12.2,17.74,21.19,23.31c23.14,14.31,53.38,17.35,77.06,4-4.61-7-5.41-16-8.68-23.76-3.5-8.34-9.76-15.13-16.79-20.52a76.49,76.49,0,0,0-63.48-13.76Z" transform="translate(-1.18 -1.95)" style="fill:#8e455e"/><path d="M144.55,176.22c1.32.93,2.65,1.84,4,2.68a84.52,84.52,0,0,0,32.75,11.8A88.63,88.63,0,0,0,218,162c-.34-1-.69-1.93-1.09-2.87a45.09,45.09,0,0,0-8.55-13,54,54,0,0,1-18.51,19.93c-10.42,6.67-22.65,9.84-34.85,10.5A56.61,56.61,0,0,1,144.55,176.22Z" transform="translate(-1.18 -1.95)" style="fill:#ee468f"/><path d="M40.84,94.84a3.5,3.5,0,0,1-4.48,2.06,3.77,3.77,0,1,1,4.48-2.06Z" transform="translate(-1.18 -1.95)" style="fill:#ea83b5"/></g></svg>