<svg id="Layer_1" data-name="Layer 1" xmlns="http://www.w3.org/2000/svg" xmlns:xlink="http://www.w3.org/1999/xlink" viewBox="0 0 246.02 202.36"><defs><clipPath id="clip-path" transform="translate(-1.28 -2.72)"><path d="M-63.39-58.6S-14,128.65-11.08,131s39.7,10,53.82,9.74,49.2,9.1,80.62,8.49,65.58-3,95.8-13.7,47.65-22.84,30.09-27.92S334.63-12.07,319.49-10.94,197.29-97.82,180.72-97-48.42-55.92-63.39-58.6Z" style="fill:none"/></clipPath></defs><g style="clip-path:url(#clip-path)"><path d="M125.54,122.65A129,129,0,0,0,150.36,50.1c.26-9.24-.71-19.19-6.43-26.36s-17.58-9.57-23.41-2.64c-1-7-7.16-12.82-13.93-13.24S93.15,12.51,91.52,19.31c-4.55-4.12-9.74-8.5-15.73-8.26-7.15.29-12.78,8.57-10.67,15.68-4.77-5.23-12.6-6.15-19.32-4.6C42,23,38.12,24.72,35.69,27.92s-3,8.14-.51,11.34C28.56,36.79,20.66,36.65,15.11,41S8,55.07,13.21,60C7.44,59.39,2.38,64.84,1.47,70.75S2.89,82.66,6,87.78a55.14,55.14,0,0,0,12.09,14.06c-2.47-2.85-7.38-2-9.61,1s-2.29,7.24-1.33,10.93c3.58,13.83,18.22,21.1,31.63,24.52,16.59,4.24,33.72,5.41,50.75,6.34,12,.65,24.85.93,34.69-6Z" transform="translate(-1.28 -2.72)" style="fill:#f06ea9"/><path d="M128.41,123.45a120.51,120.51,0,0,0,23-67.67c.23-8.62-.68-17.91-6-24.61s-16.32-9-21.71-2.49c-.94-6.5-6.66-12-13-12.36S98.26,20.64,96.75,27c-4.22-3.85-9-7.95-14.6-7.73-6.63.27-11.85,8-9.88,14.63-4.43-4.88-11.7-5.75-17.93-4.31C50.78,30.41,47.21,32,45,35s-2.78,7.6-.46,10.59C38.36,43.25,31,43.11,25.89,47.18s-6.6,13.1-1.76,17.69c-5.35-.56-10,4.52-10.87,10S14.58,86,17.45,90.8a51.78,51.78,0,0,0,11.23,13.14c-2.29-2.67-6.84-1.85-8.92,1s-2.11,6.75-1.22,10.2C21.88,128,35.47,134.79,47.91,138c15.4,4,31.29,5.08,47.09,6,11.09.62,23.06.89,32.18-5.59Z" transform="translate(-1.28 -2.72)" style="fill:#ed2471"/><path d="M47.91,138a70.64,70.64,0,0,1-7.3-2.3,16.48,16.48,0,0,1,0-2.33c.4-4.07,2.69-8.17,6.42-9.38-6-5.15-10.54-12.9-9.81-20.88S45.53,87.92,53,89.85c-5.82-7-3.53-18.95,3.64-24.27s17.52-4.47,25,.54c-2.18-8.47,5.38-17,13.69-18s16.45,3.55,22.82,9.31c1.54-6.35,8.62-9.56,14.93-9.36a26,26,0,0,1,18.19,8.77,120.55,120.55,0,0,1-22.91,66.64l-1.23,14.92c-9.12,6.48-21.09,6.21-32.18,5.59C79.2,143.08,63.31,142,47.91,138Z" transform="translate(-1.28 -2.72)" style="fill:#8e455e"/><path d="M165.78,154l4.8,29.69s20.31-9.15,23.63-6-19.8,8-19.8,8,20.78-4.1,20.44.36-22.95,1.51-22.95,1.51,25.41.67,21.94,5.27-27.65-3.61-27.65-3.61-4.72,5.53-7.3,2.65,8.21-7.94,8.21-7.94l-5.26-28.16Z" transform="translate(-1.28 -2.72)" style="fill:#fcbb7a"/><path d="M131.07,164.88l4.8,29.7s20.31-9.15,23.63-6-19.8,8-19.8,8,20.78-4.09,20.44.37-22.95,1.51-22.95,1.51,25.41.66,21.94,5.26-27.64-3.61-27.64-3.61-4.73,5.54-7.31,2.65,8.21-7.93,8.21-7.93l-5.26-28.16Z" transform="translate(-1.28 -2.72)" style="fill:#fcc191"/><path d="M92.51,156.21c1.6,9.92,10.19,16.86,19.08,15.42l77.08-12.45c8.89-1.44,14.86-10.73,13.25-20.65L194,89.45c-1.6-9.93-10.19-16.87-19.08-15.43L97.83,86.48C88.94,87.92,83,97.21,84.58,107.13Z" transform="translate(-1.28 -2.72)" style="fill:#cb6763"/><path d="M145.59,99.44a30.83,30.83,0,0,1,12.08,17.94A31.25,31.25,0,0,1,155,138.94c-4,7.48-10.91,12.86-18.52,16.05s-15.88,4.35-24.09,4.94l.15-9.7c.06-4.28.19-8.77,2.29-12.41,1.91-3.29,5.17-5.41,8.11-7.72a56.91,56.91,0,0,0,14.35-16.83Z" transform="translate(-1.28 -2.72)" style="fill:#b45962"/><path d="M97.83,86.48,174.91,74c8.2-1.32,16.12,4.48,18.57,13.16a125.53,125.53,0,0,0-75.29,9.16c-7.81,3.59-15.37,8.07-21.3,14.46A38.72,38.72,0,0,0,87.79,127l-3.21-19.9C83,97.21,88.94,87.92,97.83,86.48Z" transform="translate(-1.28 -2.72)" style="fill:#e47465"/><path d="M92.51,156.21,87.93,127.9c9.88,11.8,24.81,18.35,39.71,20.42,15.9,2.2,32-.15,47.72-2.94,9.25-1.65,19.22-3.95,26-10.22l.54,3.37c1.61,9.92-4.36,19.21-13.25,20.65l-77.08,12.45C102.7,173.07,94.11,166.13,92.51,156.21Z" transform="translate(-1.28 -2.72)" style="fill:#b45962"/><path d="M180.31,34.63A119.4,119.4,0,0,0,191,81c5.05,11,12,22,11.81,34.13-.07,5.1-1.86,10.71-6.24,12.93-3.15,1.58-7,1-10.16-.61s-5.73-4.29-8.15-7c-1.46-1.62-2-3.51-2.72-5.59s-.61-4.63.86-6.21a9,9,0,0,1,2.2-1.93c4.64-3,6-9.41,5.75-15.13A54.85,54.85,0,0,0,179.77,73c-2.67-6.31-6.12-12.25-8.89-18.52s-4.87-13-4.57-19.9,3.33-13.81,8.94-17.33a68.19,68.19,0,0,0,9.31,17.49Z" transform="translate(-1.28 -2.72)" style="fill:#8e455e"/><path d="M185.28,38.44a54.05,54.05,0,0,0,4,19.62c1.74,4.25,4.07,8.67,3.23,13.16l-3.76-.37c-.33,4,2.49,7.52,5,10.66,6.54,8.29,12.09,18.34,11.54,29-.14,2.84-1.37,6.27-4.09,6.44-3.14.19-4.62-3.93-5.32-7.14a76.91,76.91,0,0,0-9.21-23.21c-3-5-6.72-10-7.09-15.88h3.77L175,57.36c-1.1-1.77-2.25-3.79-1.83-5.83s3.42-3.26,4.47-1.46A30.78,30.78,0,0,1,170.53,31a5.41,5.41,0,0,1,.59-3c1.37-2.1,4.72-1.27,6.36.66s2.33,4.54,3.83,6.59Z" transform="translate(-1.28 -2.72)" style="fill:#ee468f"/><path d="M177.64,50.07A30.78,30.78,0,0,1,170.53,31a5.41,5.41,0,0,1,.59-3c1.37-2.1,4.72-1.27,6.36.66s2.33,4.54,3.83,6.59l4,3.24a54,54,0,0,0,.83,8.42,3.76,3.76,0,0,0-1.65,2.3,9.9,9.9,0,0,0,.44,4.69l3.15,12.2c-2.31,2.2-2.93,5.84-2.36,9.08s2.14,6.19,3.69,9.07c3.94,7.32,8,14.78,14,20.41.57.54,1.17,1.08,1.78,1.62a28.8,28.8,0,0,1,.1,4.26c-.14,2.84-1.37,6.27-4.09,6.44-3.14.19-4.62-3.93-5.32-7.14a76.91,76.91,0,0,0-9.21-23.21c-3-5-6.72-10-7.09-15.88h3.77L175,57.36c-1.1-1.77-2.25-3.79-1.83-5.83S176.59,48.27,177.64,50.07Z" transform="translate(-1.28 -2.72)" style="fill:#ed2471"/><path d="M185,3s26.18-2.77,32.24,8.7,8.25,25,.17,31.45-37.33,7.5-42.36-1.94S162.57,3,185,3Z" transform="translate(-1.28 -2.72)" style="fill:#cb6763"/><path d="M220.66,21.47s21.84,17,26.64,25.92l-37.61-4S208.27,24,220.66,21.47Z" transform="translate(-1.28 -2.72)" style="fill:#f9a567"/><path d="M212.16,29.61c0-.3,0-.6,0-.91,1.61-3.43,4.23-6.36,8.54-7.23,0,0,21.84,17,26.64,25.92l-.78-.08A77.88,77.88,0,0,0,212.16,29.61Z" transform="translate(-1.28 -2.72)" style="fill:#ffdda8"/><path d="M220.66,21.47c-3.81,2.12-6.37,6.17-7.61,10.49a42.1,42.1,0,0,0-1.12,13.45,129.24,129.24,0,0,0,1.33,13.75c.82,5.41,2,10.9,1.25,16.3a10.26,10.26,0,0,1-1.67,4.76c-2.6,3.5-8.15,3.15-11.49.32s-4.91-7.31-5.93-11.64c-1.64-6.92-2.27-14.2-.81-21.12C197.1,36,206,26.07,217.06,22.65Z" transform="translate(-1.28 -2.72)" style="fill:#ee468f"/><path d="M209.61,26.13a44.31,44.31,0,0,0-9.37,22.69c-.66,6.15,0,12.62,2.86,18.11a19.78,19.78,0,0,0,11.19,9.81,8.89,8.89,0,0,1-1.45,3.48c-2.6,3.5-8.15,3.15-11.49.32s-4.91-7.31-5.93-11.64c-1.64-6.92-2.27-14.2-.81-21.12A34.53,34.53,0,0,1,209.61,26.13Z" transform="translate(-1.28 -2.72)" style="fill:#ed2471"/><path d="M180.89,22.9a14.54,14.54,0,0,0,28.69-4.64,14.53,14.53,0,0,0-28.69,4.64Z" transform="translate(-1.28 -2.72)" style="fill:#8e455e"/><ellipse cx="196.72" cy="20.86" rx="13.11" ry="13.69" transform="translate(-2.08 28.94) rotate(-9.18)" style="fill:#f6dfec"/><path d="M191.58,20.41a4.7,4.7,0,1,0,9.24-1.49,4.7,4.7,0,1,0-9.24,1.49Z" transform="translate(-1.28 -2.72)" style="fill:#3a2559"/><path d="M193.72,13.8a3.78,3.78,0,1,0,7.46-1.21,3.78,3.78,0,1,0-7.46,1.21Z" transform="translate(-1.28 -2.72)" style="fill:#fff"/><path d="M197.68,27.49a15.81,15.81,0,0,0,11.82-3.38,13.09,13.09,0,0,1-10.59,10.26c-7.15,1.16-13.92-4-15.13-11.42a14.08,14.08,0,0,1,.62-6.8A17.08,17.08,0,0,0,197.68,27.49Z" transform="translate(-1.28 -2.72)" style="fill:#d9a4c0"/><path d="M145.17,99.68c7.5,3.85,10.76,13.86,9.08,22.32s-7.33,15.47-13.68,21c-16.34,14.16-39.69,20.39-59.95,12.93,2.72-6.09,2.22-13.21,3.79-19.74,1.69-7,5.75-13.11,10.58-18.23a60.81,60.81,0,0,1,48.06-18.85Z" transform="translate(-1.28 -2.72)" style="fill:#8e455e"/><path d="M143.38,140.37c-.91.9-1.85,1.77-2.81,2.61a67.06,67.06,0,0,1-24.2,13.41,70.38,70.38,0,0,1-32.44-17.83c.13-.8.29-1.6.48-2.39a36.16,36.16,0,0,1,5.06-11.29,42.93,42.93,0,0,0,17.06,13.28c9,3.92,19,4.86,28.68,3.83A45.27,45.27,0,0,0,143.38,140.37Z" transform="translate(-1.28 -2.72)" style="fill:#ee468f"/><path d="M207.7,72.56a2.58,2.58,0,1,0,2.05-3.34A2.78,2.78,0,0,0,207.7,72.56Z" transform="translate(-1.28 -2.72)" style="fill:#ea83b5"/></g></svg>