<svg id="Layer_1" data-name="Layer 1" xmlns="http://www.w3.org/2000/svg" xmlns:xlink="http://www.w3.org/1999/xlink" viewBox="0 0 621.26 206.23"><defs><clipPath id="clip-path" transform="translate(-8.2 -44.81)"><path d="M349.06-254.3S80-146.1,62.16-147.59,157.07,85.58,160,89.31s64.53,20.24,104.45,26.91S388.91,108.05,409.16,104,457,91.68,462.85,86.76,570-200.32,546-203.07,349.06-254.3,349.06-254.3Z" style="fill:none"/></clipPath></defs><g style="clip-path:url(#clip-path)"><path d="M106.49,184.17c42.39-6.51,85-6.44,127.77-7.14,35.8-.59,71.59-1.71,107.37-2.95s71.48-2.6,107.23-3.61c27.57-.78,55.18-.78,82.75-1.6,18-1.1,35.91-3.11,53.37-7.2,2.52-1,.33-4.25-5.53-10.65l-.36-.22c-1.17-.69-2.39-1.43-3.61-2.19-.37-.23-.75-.45-1.12-.69L572.9,147l-1.25-.8-1.47-1-1.31-.86-1.5-1-1.33-.88-1.53-1-1.35-.92-1.55-1.07-1.38-1-1.57-1.1-1.38-1-1.6-1.13-1.39-1c-.54-.38-1.08-.76-1.61-1.15s-.92-.64-1.37-1-1.12-.81-1.7-1.21l-1.28-.92-1.79-1.28-1.07-.77-7.68-5.52,0,0-3.11-2.24C518.08,108.37,500.93,85,496.9,84.06a2.4,2.4,0,0,1-.4-.14l-.13-.07a2.79,2.79,0,0,1-.3-.15l-.17-.11c-.1-.07-.2-.12-.3-.2l-.18-.14a3.59,3.59,0,0,1-.33-.25l-.19-.16q-.18-.14-.36-.3l-.19-.17-.41-.37-.18-.18-.46-.44-.15-.14-.55-.55-.09-.08c-2.12-2.14-4.69-5-7.53-7.93l-.06-.06c-1.06-1.09-2.16-2.18-3.29-3.25l-.27-.25-.57-.54c-.13-.11-.26-.24-.39-.37s-.37-.31-.54-.47l-.45-.4-.51-.44-.48-.41-.5-.41-.5-.4-.5-.38-.52-.4-.47-.35-.54-.38c-.16-.11-.31-.23-.47-.32s-.38-.25-.56-.36l-.45-.29c-.19-.12-.38-.24-.57-.34l-.44-.26-.61-.33-.41-.21c-.23-.12-.46-.22-.68-.32l-.34-.16-1-.41C458.69,57.1,395.28,44,376.41,44.85L249.31,50.8c-4.67.23-19.75,2.82-35.86,5.83l-.22,0-1.86.35-.29.06-6.37,1.2-.09,0c-.69.14-1.37.27-2.06.39l-.11,0-1.91.37-.29.06-6.16,1.2-.17,0-1.7.34-.45.08-1.77.35h-.06l-3.78.75-.38.08-1.33.26-.57.12-1.17.24-.51.11c-.4.08-.79.15-1.18.24l-.49.1-1.49.3-.54.11-.91.18-.69.15-.71.14-.68.14-.7.15-.64.13-.57.12-1.15.24-.58.13-.55.12-.55.11-.49.11-.55.12-.4.08-.61.14-.26.06c-.27.06-.52.12-.76.16l-.26.06-.44.1-.23.06-.35.08-.2,0-.3.07-.13,0-.33.09-.5.16-.19.07-.44.18-.25.09-.53.23-.27.12-.72.31-.19.08-2.19,1-.2.08-1.06.51-.24.12-1.2.58-.1,0c-7.43,3.65-18.09,9.22-25.72,13.25l-.35.19-.86.46-2.9,1.53h0l-4.75,2.51c-4.58,2.39-29.29,42.28-100.23,89.75.92,15.46,93.82-60.29,94.71-44.82C125.76,131.34,98,185.48,106.49,184.17Z" transform="translate(-8.2 -44.81)" style="fill:#ff8983"/><path d="M621,175.88c-11-8.87-37.49-18.55-41.21-18.28C566.83,150,550.44,137.94,535,126.85c-16.55-11.88-33.7-35.23-37.73-36.2s-15.92-18.81-27.08-22.88-74.57-17.21-93.43-16.32l-127.1,6c-10.92.51-78.9,14-83.8,15.42s-37.83,19-42.67,21.56c-4.56,2.38-25.85,40.3-44.46,54.07C33.45,178.66,12.76,183,8.2,195.19c39.38-9.45,123.2,40.81,250.32,16.6,56.06-4,59.73,42.25,115.83,39.09,62.56-3.53,124.58-12.06,186.19-22.63Q584.27,224,608,219.51c-.15-1.3,9.84-.56,21.51.58Z" transform="translate(-8.2 -44.81)" style="fill:#e04f44"/><path d="M594.49,165.78c-4.22-2.31-8.43-4.63-12-6.64-13.33-7.42-30.93-20.41-47.48-32.28s-33.7-35.23-37.73-36.2-15.92-18.81-27.08-22.88c-.39-.15-.86-.3-1.39-.47a42.08,42.08,0,0,0-6.12,1S405.35,108.71,424.79,124c0,0,35,1,46.23,15.33s28.92,40.37,34.87,42.78a117.35,117.35,0,0,0,17.56,4.9c30.45-2.8,55.28-5.12,71.73-6.67C594.88,175.48,594.67,170.64,594.49,165.78Z" transform="translate(-8.2 -44.81)" style="fill:#f7a6e4;opacity:0.1599999964237213;isolation:isolate"/><path d="M594.49,165.78c.18,4.86.39,9.71.69,14.52l22.11-2.09S605.86,172,594.49,165.78Z" transform="translate(-8.2 -44.81)" style="fill:#f7a6e4;opacity:0.1599999964237213;isolation:isolate"/><path d="M582.45,159.14c-13.33-7.42-30.93-20.41-47.48-32.28s-33.7-35.23-37.73-36.2c-3.82-.91-14.67-16.93-25.27-22.1,2,10.93,5.38,28.62,6.32,31.34,0,0,39.68,23.72,55.71,40.47,13.35,13.95,47.43,22.26,60.52,26.1l0-.7C590.27,163.47,586.06,161.14,582.45,159.14Z" transform="translate(-8.2 -44.81)" style="fill:#fc7065"/><path d="M594.49,165.78l0,.7c1.11.32,2.06.62,2.85.88Z" transform="translate(-8.2 -44.81)" style="fill:#d1618f;opacity:0.75;isolation:isolate"/><path d="M61.1,159.72c-16.62,10.19-28.89,16.46-37.5,21.49,1,4.93,6.18,11.22,23.12,16.14,5.65,1.12,11.66,2.45,18,3.88,7.71,1.22,16.81,2.22,27.55,2.91,5,.33,111.2,10.28,178.91,4.78a231.68,231.68,0,0,0,8.66-27c4.82-19.08,27.67-49.76,27.67-49.76,15.52-8.49-47.36-44.81-89.59-69.68-4.64.85-9.45,1.76-14.19,2.66l-.16,0-1.55.3-.37.07-6.18,1.2c-.26,0-.52.09-.77.15l-1.05.21-.85.16-.91.18-1,.19-.92.18-.66.13c-.59.12-1.16.24-1.74.34l-1,.21-.69.13-1.1.23-.63.12-1.1.23-.58.11-1.27.26-.35.07-1.56.31A3.43,3.43,0,0,1,179,70l-1.16.24-.43.09-1.08.22-.36.08c-.4.07-.79.16-1.16.24l-.17,0-2.52.52-.26.06-.84.18-.31.07c-.24,0-.47.09-.7.15l-.32.07-.71.16a.9.9,0,0,0-.16,0l-.81.18-.13,0-.55.12-.18,0-.4.1-.17,0-.31.08-.12,0-.32.08c-4.91,1.39-37.83,19-42.67,21.56-4.56,2.38-25.85,40.3-44.46,54.07C75.54,149.89,75.17,151.28,61.1,159.72Z" transform="translate(-8.2 -44.81)" style="fill:#490125;opacity:0.17000000178813934;isolation:isolate"/><path d="M215.4,85.3c-7.92-2.62-44.23-8.61-68.42-3.41-7,3.6-14.29,7.47-19.08,10h0s-17.19,18.52-20.25,26.74-11.52,24.76-11.52,24.76,26.65-2.6,44.15-2.07,22.65,9.71,35,22.59,35.39,30.65,35.39,30.65,4.4-27.12-1-41.68,5-37.92,4.79-41.95S226.08,88.84,215.4,85.3Z" transform="translate(-8.2 -44.81)" style="fill:#490125;opacity:0.17000000178813934;isolation:isolate"/><path d="M232.41,122c21,4.81,78.25,17,85.3,15s47.78-3.9,62.66-7.07,45.81-.5,64.21-4.67,39.51-25,40.81-27.56c.79-1.53,1.43-10.51-.09-18.42-4.63-4.75-10-9.61-15.14-11.5C459,63.71,395.59,50.58,376.73,51.47l-127.1,6c-10.92.51-78.9,14-83.8,15.42C161.77,74,138.55,86.26,127.9,91.9c-5.11,3.67-8.35,6.76-6.94,8C125.47,103.81,211.39,117.17,232.41,122Z" transform="translate(-8.2 -44.81)" style="fill:#fc7065"/><path d="M307.07,70S258,71.53,240.2,70,157.08,85.58,160,89.31s64.53,20.24,104.45,26.91S388.91,108.05,409.16,104,457,91.68,462.85,86.76s-48.3-10.14-72.33-12.89S307.07,70,307.07,70Z" transform="translate(-8.2 -44.81)" style="fill:#490125;opacity:0.23000000417232513;isolation:isolate"/><path d="M390.53,73.86c-24-2.76-83.45-3.85-83.45-3.85s-11.43.35-25.26.56c12.58,3.12,27,7,32.87,9.54,11.32,5,23.09,18.56,24,23.24a108.16,108.16,0,0,1,1.22,11.27c30.29-3.39,58.6-8.48,69.24-10.61C429.44,100,457,91.68,462.87,86.76S414.56,76.61,390.53,73.86Z" transform="translate(-8.2 -44.81)" style="fill:#490125;opacity:0.23000000417232513;isolation:isolate"/></g></svg>