<svg id="Layer_1" data-name="Layer 1" xmlns="http://www.w3.org/2000/svg" xmlns:xlink="http://www.w3.org/1999/xlink" viewBox="0 0 619.03 632"><defs><clipPath id="clip-path" transform="translate(-9.12 -43.76)"><path d="M545-211.1c23.94,2.83-77,292.91-82.84,298s-33.31,13.57-53.5,17.73S304.23,124,264.45,117.16,163.29,93.35,160.38,89.5,45.14-155.59,62.89-154.06L-229.69,146.2s21.95,584.61,29.93,584.61S813.83,704.87,819.81,694.9,867.7-87.24,865.7-101.2,545-211.1,545-211.1Z" style="fill:none"/></clipPath></defs><g style="clip-path:url(#clip-path)"><rect x="129.81" y="42.77" width="340.52" height="589.23" style="fill:#ed5946"/></g><g style="clip-path:url(#clip-path)"><path d="M107.06,187c42.24-6.7,84.65-6.63,127.31-7.35,35.67-.6,71.33-1.75,107-3S412.58,174,448.2,173c27.47-.8,55-.8,82.45-1.64,17.9-1.14,35.78-3.2,53.18-7.41,2.51-1,.33-4.37-5.51-11l-.36-.22c-1.17-.71-2.38-1.47-3.6-2.25l-1.11-.71-1.46-1-1.24-.82-1.47-1-1.3-.88-1.5-1-1.32-.91-1.53-1.07-1.34-.94-1.55-1.1-1.37-1L557.6,139l-1.37-1-1.6-1.16-1.38-1c-.54-.39-1.08-.78-1.61-1.18l-1.36-1-1.69-1.24-1.28-.95-1.78-1.31-1.07-.79-7.65-5.68,0,0-3.1-2.3c-16.49-12.21-33.58-36.22-37.6-37.2a2.66,2.66,0,0,1-.39-.14l-.13-.07-.3-.16-.17-.11-.3-.21-.18-.14a3.75,3.75,0,0,1-.33-.26l-.19-.16-.36-.31-.19-.18c-.13-.12-.27-.24-.4-.38l-.18-.18-.46-.45-.15-.15-.55-.56-.09-.09c-2.11-2.2-4.67-5.15-7.5-8.15l-.06-.06c-1.06-1.12-2.15-2.24-3.28-3.34l-.27-.26L480,68.2l-.39-.38c-.18-.16-.36-.32-.53-.49l-.45-.41-.51-.45-.48-.42-.5-.42-.5-.42-.49-.39-.52-.41-.47-.36-.54-.39c-.16-.11-.31-.23-.47-.33l-.55-.37-.45-.3-.57-.35-.44-.26-.61-.34-.41-.22c-.22-.12-.45-.22-.67-.33l-.34-.16c-.34-.15-.67-.29-1-.42C458,56.39,394.81,42.89,376,43.8L249.36,49.92c-4.65.23-19.67,2.89-35.73,6l-.22,0-1.85.36-.29.06-6.35,1.24-.09,0-2.05.4-.11,0-1.9.38-.29.06-6.14,1.23-.17,0-1.69.34-.45.09-1.76.36h-.06l-3.77.77-.38.08-1.32.27-.57.12-1.17.25-.5.11-1.18.25-.49.1-1.48.31-.54.11-.91.19-.69.15-.7.15-.68.14-.7.15-.64.14-.56.12-1.15.25-.58.13-.55.12-.54.12-.49.11-.55.12-.4.09-.61.14-.26.06-.75.17-.26.06-.44.1-.23.06-.35.08-.2,0-.3.07-.13,0-.32.09-.5.17-.19.07-.44.18-.25.1-.53.23-.27.12-.71.32-.19.09c-.66.31-1.4.66-2.19,1.05l-.19.09-1.06.52-.24.12-1.2.6-.1,0c-7.4,3.75-18,9.48-25.62,13.63l-.35.19-.86.47L128,85.4h0L123.31,88c-4.56,2.45-29.19,43.47-99.87,92.27.92,15.89,93.48-62,94.37-46.08C126.26,132.72,98.59,188.38,107.06,187Z" transform="translate(-9.12 -43.76)" style="fill:#ff8983"/><path d="M619.71,178.51c-10.94-9.12-37.36-19.07-41.06-18.79-12.91-7.81-29.24-20.21-44.65-31.62-16.49-12.21-33.58-36.22-37.6-37.21s-15.86-19.34-27-23.53-74.3-17.69-93.09-16.78L249.68,56.71c-10.88.53-78.61,14.44-83.5,15.86s-37.69,19.56-42.51,22.16c-4.55,2.45-25.76,41.43-44.3,55.59-45.09,31.05-65.71,35.53-70.25,48.05,39.24-9.72,122.76,41.95,249.42,17.06,55.86-4.09,59.52,43.44,115.42,40.19,62.33-3.63,124.13-12.4,185.52-23.27q23.64-4.36,47.24-9c-.15-1.34,9.8-.58,21.43.6Z" transform="translate(-9.12 -43.76)" style="fill:#e04f44"/><path d="M593.3,168.13c-4.2-2.38-8.4-4.76-12-6.83-13.28-7.63-30.82-21-47.31-33.19s-33.58-36.22-37.6-37.21-15.86-19.34-27-23.53c-.39-.15-.86-.31-1.38-.48a40.2,40.2,0,0,0-6.1,1s-57.09,41.51-37.72,57.18c0,0,34.88,1.08,46.07,15.76s28.81,41.51,34.74,44a114.15,114.15,0,0,0,17.5,5c30.34-2.87,55.08-5.26,71.47-6.85C593.69,178.1,593.48,173.12,593.3,168.13Z" transform="translate(-9.12 -43.76)" style="fill:#f7a6e4;opacity:0.1599999964237213;isolation:isolate"/><path d="M593.3,168.13c.18,5,.39,10,.69,14.93l22-2.15S604.63,174.54,593.3,168.13Z" transform="translate(-9.12 -43.76)" style="fill:#f7a6e4;opacity:0.1599999964237213;isolation:isolate"/><path d="M581.31,161.3c-13.28-7.63-30.82-21-47.31-33.19S500.42,91.89,496.4,90.9c-3.8-.94-14.61-17.41-25.18-22.73,2,11.24,5.37,29.43,6.3,32.23,0,0,39.54,24.38,55.51,41.6,13.3,14.35,47.26,22.89,60.3,26.84l0-.72C589.1,165.75,584.9,163.36,581.31,161.3Z" transform="translate(-9.12 -43.76)" style="fill:#fc7065"/><path d="M593.3,168.13c0,.24,0,.47,0,.72,1.11.33,2.06.64,2.84.9Z" transform="translate(-9.12 -43.76)" style="fill:#d1618f;opacity:0.75;isolation:isolate"/><path d="M61.83,161.9C45.27,172.37,33,178.82,24.47,184c1,5.07,6.15,11.54,23,16.6,5.63,1.15,11.62,2.51,18,4,7.68,1.25,16.75,2.28,27.45,3,5,.34,110.8,10.57,178.27,4.91a244.92,244.92,0,0,0,8.62-27.78c4.81-19.61,27.58-51.16,27.58-51.16,15.46-8.73-47.19-46.07-89.27-71.64-4.63.88-9.42,1.81-14.14,2.74l-.16,0-1.55.31-.36.07-6.16,1.23-.77.16-1.05.21-.84.17-.91.18-1,.2-.91.18-.66.14-1.73.35-1,.21-.69.14-1.09.23-.63.13-1.1.23-.58.12-1.26.26-.35.07-1.55.32-.34.07-1.16.24-.43.09-1.07.23-.36.08-1.16.25-.17,0-2.51.54-.26.06-.83.18-.31.07-.7.16-.32.07-.71.16-.16,0-.8.18-.13,0-.55.13-.18,0-.4.1-.17,0-.31.08-.12,0-.32.09c-4.89,1.42-37.69,19.56-42.51,22.16-4.55,2.45-25.76,41.43-44.3,55.59C76.22,151.79,75.85,153.22,61.83,161.9Z" transform="translate(-9.12 -43.76)" style="fill:#490125;opacity:0.17000000178813934;isolation:isolate"/><path d="M215.58,85.39c-7.9-2.7-44.07-8.86-68.18-3.51-7,3.7-14.24,7.68-19,10.28h0s-17.13,19-20.18,27.49-11.48,25.46-11.48,25.46,26.56-2.67,44-2.13,22.56,10,34.84,23.23,35.26,31.51,35.26,31.51,4.39-27.89-1-42.85,5-39,4.77-43.13S226.22,89,215.58,85.39Z" transform="translate(-9.12 -43.76)" style="fill:#490125;opacity:0.17000000178813934;isolation:isolate"/><path d="M232.53,123.09c20.95,4.94,78,17.5,85,15.46s47.61-4,62.43-7.27,45.65-.51,64-4.8,39.37-25.72,40.67-28.34c.78-1.57,1.42-10.8-.09-18.93-4.62-4.89-9.93-9.88-15.09-11.83-11.12-4.19-74.3-17.69-93.09-16.78L249.68,56.73c-10.88.53-78.61,14.44-83.5,15.86-4,1.17-27.18,13.78-37.79,19.58-5.09,3.77-8.32,7-6.91,8.22C126,104.42,211.58,118.15,232.53,123.09Z" transform="translate(-9.12 -43.76)" style="fill:#fc7065"/><path d="M306.92,69.67s-48.88,1.56-66.63,0-82.82,16-79.91,19.81,64.29,20.81,104.07,27.66,124-8.39,144.19-12.55S456.27,92,462.14,86.89,414,76.46,390.07,73.63,306.92,69.67,306.92,69.67Z" transform="translate(-9.12 -43.76)" style="fill:#490125;opacity:0.23000000417232513;isolation:isolate"/><path d="M390.08,73.62c-23.94-2.83-83.15-4-83.15-4s-11.39.36-25.17.57c12.53,3.21,26.91,7.17,32.75,9.81,11.28,5.11,23,19.08,23.94,23.89a114.45,114.45,0,0,1,1.22,11.59c30.18-3.49,58.39-8.72,69-10.91,20.19-4.16,47.63-12.67,53.5-17.73S414,76.45,390.08,73.62Z" transform="translate(-9.12 -43.76)" style="fill:#490125;opacity:0.23000000417232513;isolation:isolate"/></g></svg>